<?xml version="1.0" encoding="UTF-8"?>
<svg id="_라틴" data-name="라틴" xmlns="http://www.w3.org/2000/svg" viewBox="0 0 1850 800">
  <defs>
    <style>
      .cls-1, .cls-2, .cls-3, .cls-4 {
        stroke-width: 0px;
      }

      .cls-1, .cls-5, .cls-6 {
        fill: none;
      }

      .cls-2 {
        fill: #d6ad00;
      }

      .cls-3 {
        fill: #000;
      }

      .cls-5 {
        stroke: #231f20;
        stroke-width: .5px;
      }

      .cls-5, .cls-6 {
        stroke-miterlimit: 10;
      }

      .cls-6 {
        stroke: #000;
        stroke-dasharray: 0 0 6 3;
      }

      .cls-4 {
        fill: #ffe424;
      }
    </style>
  </defs>
  <g id="_선" data-name="선">
    <line class="cls-5" x1="69" y1="290.63" x2="1778" y2="290.63"/>
    <line class="cls-5" x1="69" y1="348.48" x2="1778" y2="348.48"/>
    <line class="cls-5" x1="69" y1="460.21" x2="1778" y2="460.21"/>
    <line class="cls-5" x1="69" y1="518.34" x2="1778" y2="518.34"/>
  </g>
  <g id="_글자_노랑" data-name="글자 노랑">
    <path class="cls-4" d="M759.53,464.83c-5.47,5.54-12.14,11.81-16.19,16.14-1.67,1.93-2.62,5.06-2.62,8.92,0,12.05,10.24,27.95,39.51,27.95,30.94,0,59.27-19.28,59.27-45.54,0-24.1-20-26.51-33.32-26.51-10.47,0-20.23.72-28.33.72-.23,0-.44-.01-.66-.02l-15.07,15.07c-.45,1.02-1.49,2.14-2.6,3.26ZM790.3,461h8.09c17.14,0,27.14,6.26,27.14,20.96,0,13.73-14.04,25.78-35.23,25.78s-31.9-10.84-31.9-23.86c0-9.16,5.71-16.63,11.43-20.24,3.33-2.17,12.85-2.65,20.47-2.65Z"/>
    <path class="cls-4" d="M806.42,359.53c-5.47-2.41-13.81-4.82-22.85-4.82-21.19,0-38.8,15.66-38.8,36.39,0,13.93,7.96,22.93,15.46,27.74l12.28,4.39c2.67.25,5.76.65,9.63.65,30.23,0,39.99-21.69,39.99-38.31,0-3.97,0-7.94-.44-11.91l-10.74-12.17c-1.26-.51-2.72-1.14-4.53-1.94ZM785.72,416.88c-11.43,0-21.66-11.08-21.66-28.19s8.57-26.99,20-26.99c14.52,0,21.19,13.74,21.19,30.12,0,14.7-6.66,25.06-19.52,25.06Z"/>
    <path class="cls-4" d="M517.21,455.08l-6.86-.77c-8.64-1.03-14.22-4.37-20.32-10.54-19.81-21.08-39.37-44.22-63.5-72.25-3.3-4.11-4.83-6.17-4.83-7.97,0-.51.14-1.03.4-1.58l-17.55,16.71c4.07,2.77,9.08,8.68,18.67,19.58l20.32,23.14c9.65,11.06,16.26,18,21.08,24.17,1.78,2.31,3.56,4.37,3.56,5.91,0,1.29-2.54,2.06-6.1,2.57l-5.84,1.03c-1.52,1.54-.76,5.91,1.02,6.43,11.68-.51,20.57-.77,30.99-.77,11.94,0,21.84.26,28.45.77,1.78-.77,2.29-5.14.51-6.43Z"/>
    <circle class="cls-4" cx="611.52" cy="375.88" r="80.89"/>
    <path class="cls-4" d="M726.72,498.07c-3.33,1.45-9.05,2.17-11.43,2.17-5.47,0-13.33-.48-22.14-3.37-19.04-6.26-40.94-26.02-53.08-37.83-1.37-1.39-2.29-2.33-1.94-3.47l-30.11,3.93c3.22,1.02,5.77,2.82,10.62,7.73,8.81,8.67,24.52,22.65,44.04,31.81,14.04,6.51,27.61,8.91,38.56,8.91,8.33,0,19.04-1.93,26.66-6.26.71-1.2.24-3.37-1.19-3.61Z"/>
    <path class="cls-4" d="M318.15,454.44l-6.03-.76c-11.75-1.44-14.36-3.87-14.92-18.75v25.2c6.2.12,12.58.34,20.45.67,1.51-.76,2.01-5.34.5-6.36Z"/>
    <path class="cls-4" d="M261.09,453.68l-4.78.76c-1.51,1.53-1,5.6.5,6.36,6.68-.31,12.63-.52,18.56-.64v-16.03c-1.51,6.53-5.21,8.04-14.29,9.54Z"/>
    <path class="cls-4" d="M179.41,359.54v-29.26c0-26.71.5-30.53,15.08-32.06l4.78-.51c1.51-1.02,1.01-5.6-.5-6.36-10.81.51-19.35.76-29.15.76-10.81,0-19.35-.51-31.67-.76-1.51.76-2.01,5.34-.5,6.36l6.53.51c13.07,1.02,14.83,5.34,14.83,32.06v91.59c0,26.71-.5,29.26-14.58,31.8l-4.27.76c-1.51,1.53-1.01,5.6.5,6.36,9.8-.25,18.35-.76,29.16-.76,9.8,0,18.35.25,31.92.76,1.51-.76,2.01-5.34.5-6.36l-7.29-.76c-14.07-1.53-15.33-5.09-15.33-31.8v-35.87c0-1.91.03-3.37.27-4.49v-17.38c-.23-1.13-.27-2.63-.27-4.6Z"/>
    <path class="cls-4" d="M1519.07,384.07h69.27s-3.78-31.49-32.75-31.49-36.53,31.49-36.53,31.49Z"/>
    <path class="cls-4" d="M943.26,294c-.49-1.75-2.22-2.25-3.7-2.25-2.71,3.25-6.91,7.74-12.82,9.49.49,2.65,0,5.63-1.39,9.95h23.3c-1.9-5.77-3.75-11.55-5.39-17.19Z"/>
    <path class="cls-4" d="M1098.47,299.44h18.21c11.13,0,19.22.26,24.53,1.54,13.15,3.33,15.43,12.29,19.22,24.32,1.26,1.54,5.31,1.02,6.32-.51-1.01-11.27-2.53-29.7-4.05-34.05-3.03.77-17.96.77-34.14.77h-47.55c-10.37,0-18.97-.26-29.85-.77-1.52.77-2.02,5.38-.51,6.4l4.05.51c4.1.49,7.11,1.14,9.33,2.38h28.91c1.12-.51,2.84-.59,5.52-.59Z"/>
    <path class="cls-4" d="M1449.11,368.75l-19.42-12.29c-4.76-2.99-10.26-7.29-14.39-12.8l-15.06,15.06c5.08,7.29,11.81,13,18.03,17.15l23.06,15.24c15.17,9.89,18.95,20.13,19.73,29.66l16.92-16.92c-4.13-16.39-16.43-27.29-28.88-35.1Z"/>
    <path class="cls-4" d="M1719.97,385.28c0-17.52-8.79-32.43-30.23-32.43-10.88,0-21.05,4.46-30.37,9.84v7.52c4.35-2.83,10.47-4.8,17.19-4.8,15.65,0,22.67,8.72,24.03,21.16h19.38v-1.28Z"/>
    <path class="cls-4" d="M1342.07,454.82c4.63-1.23,9.01-2.22,11.93-2.22.97-.74.97-2.22.24-2.96-4.38-1.73-5.84-7.64-5.84-17.49v-1.76l-29.08,29.08c7.99-1.18,16-2.85,22.75-4.65Z"/>
  </g>
  <g id="_글자_포인트" data-name="글자 포인트">
    <path class="cls-2" d="M840.23,363.39h-19.28c-4,0-5.92-.29-9.99-1.92l10.74,12.17c-.01-.13-.02-.25-.03-.38h17.14c3.57-.48,4.05-8.67,1.43-9.88Z"/>
    <path class="cls-2" d="M762.63,420.25c0,1.2-1.19,3.13-2.38,4.58-4.05,4.34-8.57,8.43-12.62,11.08-2.62,1.93-3.57,2.89-3.57,4.1,0,8.43,8.09,16.63,17.38,19.04,1.04.7,1.12,1.57.69,2.52l15.07-15.07c-10.73-.18-16-4.67-16-10.1,0-6.99,7.62-11.57,10.47-13.25.28.02.56.05.85.08l-12.28-4.39c.8.52,1.6,1,2.39,1.42Z"/>
    <path class="cls-2" d="M263.86,367.68h-71.88c-9.05,0-11.59-.14-12.3-3.55v17.38c.71-3.37,3.25-3.65,12.3-3.65h71.88c7.1,0,10.18.19,11.53,1.89v-13.85c-1.35,1.68-4.43,1.78-11.53,1.78Z"/>
    <path class="cls-2" d="M158.2,442.14v10.01l-8.85.37s7.99-1.46,8.85-10.38Z"/>
  </g>
  <g id="_글자_검정" data-name="글자 검정">
    <path class="cls-3" d="M427.55,355.58l22.86-21.85c14.22-13.63,28.45-25.71,35.56-29.83,7.11-4.11,17.02-6.68,23.62-7.2,1.52-1.54,1.27-5.14-.51-6.43-7.62.51-16.26.77-25.15.77s-19.05-.26-27.94-.77c-2.03,1.29-2.29,4.63-.51,6.43l6.86,1.54c3.3.77,4.32,1.54,4.32,2.57s-.51,2.31-1.78,4.11c-2.54,3.6-14.99,16.71-19.81,21.34l-27.43,27.51c-2.79,2.57-9.4,9.26-12.95,12.34-1.78,1.29-4.83,2.83-7.11,2.83-2.79,0-3.3-4.89-3.3-9.77v-29.57c0-27,.51-30.85,15.24-32.4l4.83-.51c1.52-1.03,1.02-5.66-.51-6.43-10.92.51-19.56.77-29.46.77-11.43,0-19.56-.26-32-.77-1.52.77-2.03,5.4-.51,6.43l6.35.51c14.73,1.29,15.24,5.4,15.24,32.4v92.56c0,27-.51,30.08-13.97,32.14l-5.08.77c-1.52,1.8-1.02,5.66.51,6.43,10.41-.51,19.05-.77,29.46-.77s18.54.26,30.99.77c1.52-.77,2.03-5.4.51-6.43l-6.86-.77c-14.22-1.54-14.73-5.14-14.73-32.14v-33.17c0-9,.51-12.34,4.32-12.34,2.06,0,3.89.61,5.97,2.02l17.55-16.71c.8-1.69,2.76-3.67,5.44-6.39Z"/>
    <path class="cls-3" d="M638.17,455.42c33.32-10.12,57.61-40.72,57.61-80.48,0-42.41-27.61-82.65-82.6-82.65-49.04,0-84.74,36.87-84.74,85.06,0,34.46,19.28,63.13,50.94,75.18,8.57,3.37,17.14,4.82,23.33,5.78,2.14.39,3.8.7,5.32,1.18l30.11-3.93s.02-.1.04-.15ZM552.24,369.64c0-52.77,32.13-69.88,56.89-69.88,45.46,0,62.84,42.89,62.84,82.65,0,47.47-27.14,69.16-55.7,69.16-46.89,0-64.03-46.26-64.03-81.93Z"/>
    <path class="cls-3" d="M297.03,421.88v-91.59c0-26.71.5-30.53,15.08-32.06l5.28-.51c1.51-1.02,1.01-5.6-.5-6.36-11.31.51-19.86.76-29.66.76-10.3,0-18.85-.25-30.41-.76-1.51.76-2.01,5.34-.5,6.36l4.78.51c14.83,1.53,15.33,5.34,15.33,32.06v29.26c0,3.25-.1,5.19-1.04,6.36v13.85c.94,1.19,1.04,3.11,1.04,6.25v35.87c0,10.89,0,17.76-1.04,22.26v16.03c3.89-.08,7.77-.12,11.85-.12,3.4,0,6.66.03,9.96.09v-25.2c-.14-3.58-.16-7.87-.16-13.05Z"/>
    <path class="cls-1" d="M1529.21,380.99h18.55c19.34,0,25.08-1.06,27.17-2.65.78-.53,1.57-1.59,1.57-5.03,0-7.41-4.96-16.66-20.12-16.66s-28.74,14.28-29,23.01c0,.53,0,1.32,1.83,1.32Z"/>
    <path class="cls-3" d="M1591.92,432.57c-8.1,10.32-15.42,12.96-24.04,12.96-27.96,0-43.37-22.75-43.37-49.46,0-6.61.26-7.14,7.06-7.14h48.34c10.97,0,14.63-.26,15.42-1.85.52-1.06,1.05-3.17,1.05-6.88,0-15.87-14.63-31.47-37.1-31.47-31.35,0-52.52,27.24-52.52,59.78,0,11.64,3.14,24.07,10.97,34.39,7.58,10.05,20.9,17.46,37.89,17.46,13.59,0,32.4-6.61,41.02-24.6-.26-2.38-2.09-3.97-4.7-3.17ZM1556.38,356.66c15.15,0,20.12,9.26,20.12,16.66,0,3.44-.78,4.5-1.57,5.03-2.09,1.59-7.84,2.65-27.17,2.65h-18.55c-1.83,0-1.83-.79-1.83-1.32.26-8.73,13.59-23.01,29-23.01Z"/>
    <path class="cls-1" d="M937.34,337.93c-1.97-5.99-4.19-12.73-5.67-15.73h-.49c-.74,1.25-3.21,7.24-5.92,14.73l-15.53,43.43c-1.97,5.74-1.73,5.99,5.18,5.99h30.33c7.15,0,7.64-1,5.42-7.74l-13.32-40.69Z"/>
    <path class="cls-3" d="M1015.51,455l-6.66-.75c-10.6-1.25-13.81-4.99-20.96-26.46l-33.78-100.35c-1.8-5.34-3.65-10.8-5.46-16.26h-23.3c-.71,2.2-1.64,4.74-2.81,7.77l-25.15,67.4c-10.36,27.96-17.26,44.18-21.7,55.67-3.45,8.99-8.88,11.73-14.79,12.23l-8.14.75c-1.48,1.25-.99,5.24.49,6.24,6.66-.25,15.54-.75,23.67-.75,11.59.25,19.23.25,25.65.75,2.22-1,2.22-4.99.49-6.24l-8.14-.75c-5.92-.5-7.15-2-7.15-4.99,0-2.75,1.73-9.49,5.42-20.72l8.63-26.21c1.73-5.24,3.2-5.99,9.37-5.99h37.23c7.4,0,8.38.75,10.11,6.24l10.85,33.95c1.97,5.99,3.2,10.48,3.2,13.23,0,2.5-3.45,3.99-8.63,4.49l-7.15.75c-1.73,1.25-1.48,5.24.49,6.24,7.15-.25,16.52-.75,28.36-.75,11.1,0,19.73.25,29.84.75,1.23-1,1.73-4.99,0-6.24ZM945.23,386.36h-30.33c-6.9,0-7.15-.25-5.18-5.99l15.53-43.43c2.71-7.49,5.18-13.48,5.92-14.73h.49c1.48,3,3.7,9.74,5.67,15.73l13.32,40.69c2.22,6.74,1.73,7.74-5.42,7.74Z"/>
    <path class="cls-3" d="M1176.62,423.86c-6.58,13.31-13.4,22.27-17.96,24.84-5.56,2.82-12.9,3.84-32.37,3.84-22.26,0-27.57-2.82-30.6-5.89-4.05-4.35-4.81-13.06-4.81-26.63v-36.1c0-6.66.76-6.91,8.35-6.91h14.67c9.86,0,15.93.26,19.48,1.28,5.06,1.28,6.83,5.12,7.84,9.73l2.28,9.99c1.26,1.54,5.56,1.54,6.58-.26,0-5.63-1.01-15.36-1.01-24.58,0-9.73,1.01-19.71,1.01-25.86-1.01-1.79-5.31-1.79-6.58-.26l-2.02,10.5c-1.26,6.4-3.03,7.94-6.07,8.96-3.04,1.02-10.88,1.54-21.5,1.54h-14.67c-7.59,0-8.35,0-8.35-7.17v-51.21c0-6.29.01-8.72,2.06-9.65h-28.91c5.83,3.25,6.1,10.58,6.1,29.88v92.17c0,26.88-1.26,30.72-15.68,32l-8.35.77c-1.52,1.54-1.01,5.63.51,6.4,14.92-.51,23.52-.77,34.4-.77h22.76c22.51,0,45.02.26,67.78.77,3.29-6.91,9.61-26.63,11.38-35.59-1.01-2.3-4.55-3.07-6.32-1.79Z"/>
    <path class="cls-3" d="M1409.05,326.23c0-11.3,5.1-27.28,28.89-27.28s29.86,15.97,33.02,27.77c1.21,1.47,5.1.74,6.07-.74,0-10.32-2.18-24.08-4.37-29.98-1.94,0-5.34-.49-8.5-1.47-6.31-1.72-15.05-3.2-22.58-3.2-31.56,0-49.52,18.92-49.52,42.27,0,9.82,3.35,18.18,8.19,25.12l15.06-15.06c-3.67-4.89-6.25-10.73-6.25-17.43Z"/>
    <path class="cls-3" d="M1461.25,425.52c0,14.75-9.95,28.26-30.35,28.26-28.16,0-38.11-24.08-41.76-36.62-.97-1.47-4.61-.98-5.83.74.49,11.55,3.64,29,6.55,34.41,4.61,2.7,17.48,9.09,37.87,9.09,31.56,0,51.71-18.43,51.71-45.46,0-4.33-.52-8.35-1.46-12.09l-16.92,16.92c.13,1.6.18,3.19.18,4.75Z"/>
    <path class="cls-3" d="M1653.57,366.18c-1.81,0-2.84-1.31-2.84-2.88,0-2.35,0-6.28.52-12.29-.52-1.31-1.81-1.83-2.84-1.83-5.17,3.92-19.9,10.72-25.84,12.82-1.29.78-1.29,3.66-.26,4.71l2.33,1.57c6.98,4.71,6.98,6.02,6.98,16.22v45.77c0,18.83-.26,21.45-9.82,22.76l-5.43.78c-1.81,1.31-1.29,5.75.52,6.54,7.23-.52,14.99-.78,24.29-.78s16.54.26,23.51.78c1.81-.78,2.33-5.23.52-6.54l-4.65-.78c-9.3-1.57-9.82-3.92-9.82-22.76v-40.02c0-7.59.52-11.25,3.88-15.69,1.14-1.57,2.77-3.05,4.77-4.36v-7.52c-1.97,1.14-3.91,2.32-5.81,3.5Z"/>
    <path class="cls-3" d="M1700.59,386.56c.17,1.53.26,3.1.26,4.73v38.97c0,18.83-.26,21.19-9.82,22.76l-4.91.78c-1.81,1.31-1.29,5.75.52,6.54,6.98-.52,14.73-.78,24.03-.78s16.54.26,24.29.78c1.81-.78,2.33-5.23.52-6.54l-5.68-.78c-9.3-1.31-9.82-3.92-9.82-22.76v-43.71h-19.38Z"/>
    <path class="cls-3" d="M1362.52,391.01c-8.03.49-16.31.74-25.8.74-14.36,0-27.75-.25-34.81-.74-1.7.74-1.95,5.17,0,6.16l10.71,1.23c15.09,1.72,15.82,3.2,15.82,23.9v9.86c0,7.88-1.22,12.32-2.43,14.04-2.68,4.19-11.68,7.39-26.77,7.39-48.92,0-73.02-37.2-73.02-84.51,0-36.96,20.69-70.96,67.91-70.96,24.83,0,43.08,8.38,49.9,34.99,1.46,1.48,5.84,1.23,6.57-.74-2.19-14.78-3.65-27.59-3.65-35.73-2.92.49-10.47-1.23-15.09-2.22-4.14-.99-17.04-3.7-30.91-3.7-36.75,0-60.85,11.58-77.15,28.83-15.09,16.26-21.91,37.45-21.91,58.39s7.79,41.15,22.39,55.93c18.74,19.22,45.27,27.35,74.23,27.35,6.27,0,13.54-.68,20.82-1.76l29.08-29.08v-12.04c0-12.57.24-19.46,10.47-20.7l3.89-.49c1.7-1.48,1.46-5.17-.24-6.16Z"/>
  </g>
  <g id="_선-2" data-name="선">
    <line class="cls-6" x1="937.5" y1="273" x2="937.5" y2="305.5"/>
    <line class="cls-6" x1="766.5" y1="155.5" x2="766.5" y2="367.5"/>
    <line class="cls-6" x1="1445.5" y1="156" x2="1445.5" y2="380.5"/>
    <line class="cls-6" x1="825.5" y1="216" x2="825.5" y2="368"/>
    <line class="cls-6" x1="169.5" y1="215.5" x2="169.5" y2="303.5"/>
    <line class="cls-6" x1="1555.5" y1="215.5" x2="1555.5" y2="366.5"/>
    <line class="cls-6" x1="759.5" y1="594" x2="759.5" y2="445.5"/>
    <line class="cls-6" x1="155.5" y1="592" x2="155.5" y2="449.5"/>
    <line class="cls-6" x1="604.5" y1="273" x2="604.5" y2="335.5"/>
    <line class="cls-6" x1="210.5" y1="273" x2="210.5" y2="372.5"/>
    <line class="cls-6" x1="1121.5" y1="215.5" x2="1121.5" y2="294.5"/>
    <line class="cls-6" x1="1346.5" y1="536" x2="1346.5" y2="449.5"/>
    <line class="cls-6" x1="812.5" y1="536" x2="812.5" y2="505.5"/>
    <line class="cls-6" x1="625.5" y1="536" x2="625.5" y2="465.5"/>
    <line class="cls-6" x1="438.5" y1="536" x2="438.5" y2="402.5"/>
    <line class="cls-6" x1="265.5" y1="536" x2="265.5" y2="456.5"/>
    <line class="cls-6" x1="1710.5" y1="273" x2="1710.5" y2="364.5"/>
  </g>
</svg>