<?xml version="1.0" encoding="UTF-8"?>
<svg id="Layer_1" data-name="Layer 1" xmlns="http://www.w3.org/2000/svg" viewBox="0 0 1850 800">
  <defs>
    <style>
      .cls-1 {
        stroke: #221814;
      }

      .cls-1, .cls-2, .cls-3, .cls-4 {
        fill: none;
        stroke-miterlimit: 10;
      }

      .cls-1, .cls-3, .cls-4 {
        stroke-width: .5px;
      }

      .cls-2 {
        stroke: #000;
        stroke-dasharray: 0 0 6 3;
      }

      .cls-3 {
        stroke: #211713;
      }

      .cls-5 {
        fill: #231f20;
        stroke-width: 0px;
      }

      .cls-4 {
        stroke: #221915;
      }
    </style>
  </defs>
  <g>
    <line class="cls-1" x1="1057.04" y1="185.5" x2="1057.04" y2="358.15"/>
    <path class="cls-5" d="M887.27,378.96c0,6.93-1.56,19.24-7.8,22.53-2.08.87-4.16-.69-4.16-9.19v-19.24c-24.61,14.04-69.5,27.9-83.02,28.42-5.37.17-9.71-6.07-9.71-13.17l-.17-20.97c0-4.85-5.89-5.72-10.74-6.93-4.51-1.04-5.37-4.51,3.29-6.24,7.8.17,16.64,1.73,19.76,3.29,9.01,0,10.23-.17,26-1.39,4.16-.34,5.03-.87,8.49-1.91.87-6.76,1.04-12.48,1.39-22.36-12.3.52-22.18.52-32.76,2.25-9.36,1.39-4.16,5.72-23.22-3.29-4.85-3.47-5.03-5.89,2.95-4.85,5.72.69,11.79,1.21,18.54,1.21,8.49.17,18.02-.17,29.64-1.04,6.59-.52,1.56-2.77,12.65-1.73,13.17,1.21,8.15,4.68,5.03,8.67-1.91,7.8-4.16,13.34-6.07,20.28,10.05,1.56,10.05,7.8,2.25,8.14-12.65.35-34.32,1.73-41.42,2.08-2.77,1.39-3.47-.17-3.47,3.64.17,4.51,0,11.44,0,19.41,0,2.6,1.39,3.12,4.85,2.77,19.41-2.25,50.78-9.01,75.56-22.36v-46.1c0-2.43-9.36-5.89-15.77-8.49-5.55-2.25-4.68-4.85,3.47-6.07,32.06,5.89,24.78,7.97,24.78,13.69l-.35,58.92ZM879.99,446.03c12.82,1.21,11.09,7.8,1.04,7.8-10.57,0-42.46.69-56.33,1.21-2.25,12.82-9.71,15.94-11.09,1.04-.52-5.2-1.73-28.6-2.77-39.34l-.17-1.73c-.69-1.56-4.51-3.29-7.97-4.33-4.33-1.21-9.88-4.16,2.43-6.59,5.2,0,12.48.69,18.54,2.77,9.01,0,38.13-.35,46.45-1.04,5.37-.35,1.73-1.56,10.57-1.21,17.33.87,6.24,5.37,5.55,9.36-2.25,12.48-4.68,24.96-6.24,32.06ZM824.7,413.45c-.69.17-1.04.34-1.04,1.56l1.21,33.8,37.26-.87c6.07-.17,6.41-1.04,10.23-1.91.52-7.45,1.04-21.49,1.04-34.14-10.57.35-36.22.87-48.7,1.56Z"/>
    <path class="cls-5" d="M1057.91,395.54c-8.84-7.28-18.02-16.81-26.52-22.36-11.96,10.05-30.33,22.18-53.38,30.5-7.28,2.6-9.88.17-1.04-4.33,21.32-10.57,46.97-26.86,61.01-50.95-5.03.35-20.45,1.04-33.62,1.73-8.49,2.08-2.25,6.93-21.14-2.6-6.76-3.29-7.11-6.59,2.25-5.2,3.99.52,10.22.87,17.33,1.04,10.57.17,23.57.17,36.92-1.21,2.77-.69,1.21-2.25,12.13-1.39,7.45.52,7.45,3.29,1.56,7.45-3.81,4.51-10.57,14.21-16.81,20.8,1.39,1.56,2.95,2.6,4.68,3.47,3.29,1.73,6.76,2.77,10.23,4.33,3.64,1.56,6.93,3.99,10.57,8.67,8.14,10.57-.35,13.17-4.16,10.05ZM1092.57,459.49c-13.17-10.22-26.86-21.84-39-31.71-10.23,12.82-25.82,27.73-58.58,36.22-9.53,2.6-11.78-.87-1.73-4.16,23.22-7.62,42.46-23.22,53.03-42.29.69-2.08.35-3.29-1.04-3.81-7.8,0-17.5.52-23.92,1.39-8.14,1.04-2.08,5.72-18.54-3.29-9.36-5.2-6.76-7.45,2.6-5.2,3.81.87,7.8,1.04,11.78,1.21,9.71.52,19.93.34,28.6,0,8.15-.17,15.08-.52,18.54-.87l4.16-.35c4.85-.35,3.47-5.37,21.49-2.77,11.09,1.56,6.93,9.19,1.56,9.19-12.13-.17-27.73.17-34.49.35,4.51,5.2,2.08,5.37,0,9.88,5.03,3.64,10.23,7.45,15.94,10.57,11.44,6.07,12.48,1.91,25.3,16.81,6.76,7.8,1.91,14.73-5.72,8.84ZM1021.16,330.03l-5.03.17c-2.25-.35-6.24-2.77-13.34-8.32-5.03-3.99-3.99-5.89,3.29-3.81,4.33,1.39,14.73,2.77,31.37,2.77,7.8,0,7.8,6.93,1.73,9.19-3.12.17-13-.17-18.02,0ZM1089.45,373.35c-.17,5.37,0,10.22-1.73,15.25-2.77,8.32-9.7,16.29-9.7-3.29v-62.91c0-3.12-4.85-5.2-13.69-8.67-10.75-2.77-5.89-6.76,1.56-6.24,7.97.52,14.39,2.43,19.41,3.99,7.28,2.25,4.68,4.33,4.68,9.71l-.17,45.93c2.6,0,7.45-.17,9.36-.69,7.45-1.91,4.33-5.03,18.89-4.16,8.84.52,8.67,10.05.52,10.22l-29.12.87Z"/>
    <line class="cls-4" x1="710.69" y1="305.98" x2="932.65" y2="305.98"/>
    <line class="cls-4" x1="710.69" y1="463.96" x2="932.65" y2="463.96"/>
    <line class="cls-1" x1="971.37" y1="279.5" x2="971.37" y2="487.5"/>
    <line class="cls-1" x1="977.77" y1="265.5" x2="977.77" y2="377.7"/>
    <line class="cls-1" x1="1090.5" y1="265.5" x2="1090.5" y2="394.85"/>
    <line class="cls-1" x1="1124.68" y1="312.51" x2="1124.68" y2="483.31"/>
    <line class="cls-3" x1="717.24" y1="327.12" x2="933" y2="327.12"/>
    <line class="cls-3" x1="717.24" y1="401.26" x2="933" y2="401.26"/>
  </g>
  <line class="cls-2" x1="724.5" y1="327.5" x2="672.5" y2="352.5"/>
  <line class="cls-2" x1="720.5" y1="401.5" x2="672.5" y2="424.5"/>
  <line class="cls-2" x1="750.5" y1="464.5" x2="699.5" y2="489.5"/>
  <line class="cls-2" x1="714.5" y1="305.5" x2="714.5" y2="265.5"/>
</svg>