<?xml version="1.0" encoding="UTF-8"?>
<svg id="Layer_1" data-name="Layer 1" xmlns="http://www.w3.org/2000/svg" viewBox="0 0 1850 800">
  <defs>
    <style>
      .cls-1 {
        stroke-dasharray: 0 0 6.51 3.25;
      }

      .cls-1, .cls-2, .cls-3, .cls-4, .cls-5, .cls-6, .cls-7 {
        fill: none;
      }

      .cls-1, .cls-3, .cls-4, .cls-5 {
        stroke: #000;
      }

      .cls-1, .cls-3, .cls-4, .cls-5, .cls-6, .cls-7 {
        stroke-miterlimit: 10;
      }

      .cls-2, .cls-8, .cls-9 {
        stroke-width: 0px;
      }

      .cls-8 {
        fill: #221f1f;
      }

      .cls-3 {
        stroke-dasharray: 0 0 6.07 3.04;
      }

      .cls-5 {
        stroke-dasharray: 0 0 6 3;
      }

      .cls-6 {
        stroke: #211713;
      }

      .cls-6, .cls-7 {
        stroke-width: .5px;
      }

      .cls-7 {
        stroke: #221915;
      }

      .cls-9 {
        fill: #a9ea2a;
      }
    </style>
  </defs>
  <g>
    <line class="cls-7" x1="175.94" y1="305.88" x2="1674.06" y2="305.88"/>
    <line class="cls-7" x1="175.94" y1="463.87" x2="1674.06" y2="463.87"/>
    <line class="cls-6" x1="189.44" y1="384.87" x2="1656.56" y2="384.87"/>
  </g>
  <g>
    <polygon class="cls-2" points="681.08 387.28 700.31 386.94 700.31 356.64 681.08 356.98 681.08 387.28"/>
    <path class="cls-2" d="M622.02,353.23c-12.26,0-18.72,8.17-19.74,17.36-1.02,10.55,5.62,21.96,19.74,21.96s21.79-10.21,21.62-20.09c-.17-9.7-7.49-19.23-21.62-19.23Z"/>
    <path class="cls-2" d="M862.46,393.5h3.78c-1.24,0-2.5-.01-3.78-.01h0Z"/>
    <path class="cls-2" d="M1508.43,375.86c-.52,6.76,4.5,14.39,15.42,14.39s16.29-7.63,15.6-14.56c-.69-6.07-5.89-11.78-15.6-11.78s-14.91,5.89-15.42,11.96Z"/>
    <polygon class="cls-2" points="967.92 374.54 1004.85 373.86 1004.85 349.35 967.92 350.2 967.92 374.54"/>
    <path class="cls-8" d="M1228.61,313.18c8.85,3.06,14.3,6.98,14.64,10.21l.17,67.74c0,12.43,4.43,11.91,8.51,2.04,1.87-6.47,2.72-16.34,2.72-23.49v-49.19c0-5.62,3.23-6.98-6.3-9.7-4.94-1.53-9.53-3.4-17.36-3.75-10.55-.51-10.38,3.23-2.38,6.13Z"/>
    <path class="cls-8" d="M1212.44,335.48c2.72-6.13,9.87-9.7-4.42-10.04-9.7-.34-7.49,1.53-12.26,2.04l-1.87.17c-5.45.51-10.38.68-14.64.85-7.49.34-13.45.34-19.06,0-3.57-.17-7.32-.85-11.06-1.53-9.19-1.7-7.15,2.55-3.23,4.77,19.23,10.72,14.64,4.94,21.96,3.91,9.7-1.36,23.49-1.87,31.83-2.21-2.38,6.81-6.81,15.83-8.68,18.21-11.4,2.21-25.87,4.08-37.45,4.26-6.13.17-11.23,0-14.81-.68-7.32-1.53-8.34.85-2.55,4.94,20.43,11.06,13.96,5.96,21.96,4.26,8.34-1.7,21.28-4.77,29.45-6.98-11.91,18.38-34.21,38.3-51.23,48.51-10.04,5.96-6.3,8,1.87,3.92,26.38-13.11,56.85-36.6,74.21-74.38Z"/>
    <path class="cls-8" d="M1542.74,413.82c-9.01-.35-8.49,1.91-1.91,5.2,13,6.59,7.8,2.43,16.12,1.39l10.05-1.21.17-6.41c-6.93.52-14.21,1.39-24.44,1.04Z"/>
    <path class="cls-8" d="M1489.71,348.48c14.38,7.62,10.57,3.64,16.29,2.6,3.47-.17,10.23-.69,13.52-.87,1.91,1.73,3.29,4.51.69,5.89-14.56,2.6-20.97,10.4-21.84,18.89-1.04,11.09,8.32,23.05,25.48,23.05,19.58,0,27.9-13.69,24.78-25.3-1.91-7.28-8.14-13.87-19.41-16.12,1.04-2.25,2.43-2.6-.52-6.93,5.03-.17,12.31-.52,19.58-.35,11.96.17,11.09-8.84-.35-8.84s-5.55,2.43-16.46,3.12c0,0-9.53.69-14.21.87-7.28.17-15.25.35-24.96-.52-8.15-.87-7.97,1.56-2.6,4.51ZM1539.45,375.69c.69,6.93-4.51,14.56-15.6,14.56s-15.94-7.63-15.42-14.39c.52-6.07,5.89-11.96,15.42-11.96s14.9,5.72,15.6,11.78Z"/>
    <path class="cls-8" d="M1599.59,310.18c-4.16-1.39-11.27-3.64-17.16-3.81-10.74-.35-9.53,2.94-2.6,6.07,6.41,2.77,11.79,6.24,11.96,7.97l.35,135.7c0,12.65,4.68,12.31,8.49,2.08,2.43-6.41,2.95-16.64,2.95-23.92v-114.56c0-5.72,2.77-7.45-3.99-9.53Z"/>
    <path class="cls-8" d="M1554.35,401.51c10.23-4.16,9.01-7.45-.87-4.51-13,3.99-33.28,7.11-49.05,7.97-8.32.35-15.25.52-19.24-.52-7.28-1.91-9.36,1.56-2.08,5.37,20.1,10.74,15.08,5.89,22.18,4.16,3.99-.87,8.49-1.56,11.96-2.25l.17,31.89c0,9.01,3.99,8.84,7.63,2.43,3.99-7.28,4.51-11.44,4.33-36.22,7.11-1.91,18.89-5.89,24.96-8.32Z"/>
    <path class="cls-8" d="M1506.17,329.76c5.37,4.68,6.59,5.37,9.36,5.55,5.89.34,16.98.17,19.41,0,9.88-1.04,8.49-8.49-.52-8.49h-1.04c-8.15,0-17.16-1.04-23.4-2.08-6.93-1.91-9.36,0-3.81,5.03Z"/>
    <path class="cls-8" d="M1363.23,444.25c0,11.96,4.68,11.96,8.84,1.21,3.47-8.67,3.29-26.86,3.29-45.58h0l-12.13,2.08v42.29Z"/>
    <path class="cls-8" d="M1319.21,376.14c15.25-5.37,30.85-12.3,45.41-23.92,10.22,3.29,33.28,11.61,41.59,14.73,10.92,4.16,13.17-3.64,5.54-8.67-13-8.67-13.86-3.81-25.3-6.24-6.24-1.21-11.79-2.95-16.81-4.68,3.47-2.95,7.97-7.8,10.4-11.61,2.43-3.64,3.29-6.24,0-8.15-4.68-2.6-11.44-6.24-16.99-7.97-11.61-1.73-10.4,2.94-5.72,5.54,3.47,1.91,8.15,4.85,8.84,7.28v.35c-3.12,5.2-7.28,9.53-11.61,13.86-10.22,10.05-22.7,18.02-36.57,25.3-10.92,4.16-8.49,7.63,1.21,4.16Z"/>
    <path class="cls-8" d="M432.72,389.48v-42.89c0-4.26,4.08-7.83-21.62-9.36-10.55,1.53-6.64,5.11-1.7,5.79,6.47,1.87,11.57,3.23,11.57,6.81l.17,41.02h11.77c-.14-.38-.2-.82-.2-1.36Z"/>
    <path class="cls-8" d="M533.32,447.53c-18.21-.51-9.7,3.92-25.36,3.92h-40c-4.09,0-5.45-1.36-5.45-4.26-.17-7.15.17-14.3.17-21.62,0-4.6,5.28-8.34-21.11-9.36-8.85,1.19-6.98,4.43-2.89,5.45,8.17,1.87,12.09,2.89,12.09,6.3l-.17,18.04c0,7.15,4.94,11.74,16.34,11.74h69.62c7.49,0,10.21-9.87-3.23-10.21Z"/>
    <path class="cls-8" d="M516.12,365.5v50.7c0,13.96,10.21,12.43,10.55-6.64l1.19-83.4c.17-6.3,6.64-10.04-24.17-14.64-10.89,1.87-5.45,4.26-.85,5.96,5.28,2.04,12.94,5.45,13.27,8.85v39.17Z"/>
    <path class="cls-8" d="M230.72,336c6.41,2.25,11.44,4.16,11.44,6.07l-.17,45.41c0,8.84,5.03,13.87,14.73,13.69l70.19-.69c7.8,0,13.17-10.22-3.12-11.09-18.2-1.04-11.96,2.95-21.84,4.85-19.93.52-32.93.52-41.42.69-4.51,0-5.89-1.04-5.89-4.33v-21.15l.17-6.41v-22.01c0-2.08.69-1.56,2.08-1.91,13.86-.35,56.5-1.56,68.46-1.91,10.4-.17,10.23-9.19-1.39-9.88-16.47-1.04-12.13,3.29-21.49,3.99-25.48,1.73-31.89,1.04-46.97,1.21-2.43-.52-13.69-2.08-21.32-2.25-12.13,1.21-6.59,5.37-3.47,5.72Z"/>
    <path class="cls-8" d="M628.14,345.23c1.7-3.23,5.79-5.28-4.6-9.7-7.32-1.7-8.85.51-4.77,4.6,2.21,2.21,1.19,3.57-1.7,4.6l-1.19.17c-7.32,1.02-13.28,4.77-17.53,9.02-4.6,4.94-7.15,10.89-7.66,17.19-1.19,14.64,10.04,30.13,31.32,30.13s32.17-14.47,32-28.77c-.17-11.74-8.17-23.49-25.87-27.23ZM622.02,392.55c-14.13,0-20.77-11.4-19.74-21.96,1.02-9.19,7.49-17.36,19.74-17.36,14.13,0,21.45,9.53,21.62,19.23.17,9.87-7.15,20.09-21.62,20.09Z"/>
    <polygon class="cls-8" points="681.08 387.28 681.08 394.09 700.31 393.75 700.31 386.94 681.08 387.28"/>
    <polygon class="cls-8" points="700.31 356.64 700.31 349.66 681.08 350 681.08 356.98 700.31 356.64"/>
    <path class="cls-8" d="M854.97,340.11v27c.85,12.09,6.64,6.64,9.36,1.02,2.38-5.28,2.55-34.04,2.55-47.15,0-5.79,4.26-7.49-19.57-10.89-10.38.68-8.34,3.91-2.21,5.62,5.96,2.55,9.7,4.6,9.87,6.13v18.28Z"/>
    <path class="cls-8" d="M898.54,383.78c-21.79-2.55-15.32,1.36-26.72,2.21-7.66.51-24.34,1.53-42.38,2.21-17.36.68-36.25.68-50.21.51-6.98-.17-12.94-.51-16.51-1.36-9.53-2.04-9.87.68-4.43,4.59,24.51,12.08,17.36,6.13,28.26,4.6,5.79-.85,10.04-.85,14.64-1.19v.07s12.77-.41,12.77-.41c16.85-.51,28.26-1.19,36.26-1.53h12.25s0,0,0,0c1.28,0,2.54,0,3.78.01h.23s-.23,0-.23,0c12.62.08,23.14.51,30.26.67,10.21.34,10.73-8.34,2.04-10.38Z"/>
    <path class="cls-8" d="M779.74,321.66c5.79,1.53,10.55,3.06,10.55,5.28l.34,1.87c.17,3.4.51,38.13.51,41.53.17,6.98,2.21,10.04,7.15,4.6,1.19-1.02,2.55-2.72,3.23-5.79l.85-6.47h0v-38.13c0-4.26,4.6-7.32-20.26-9.02-9.7,1.53-7.66,4.59-2.38,6.13Z"/>
    <path class="cls-8" d="M1082.81,352.75c-12.08-.34-9.02,3.57-15.66,4.6-2.72.34-6.13.51-8.34.51l.17-37.28c0-6.47,3.74-7.32-7.49-10.89-4.26-1.36-9.87-2.55-16.85-3.57-8.85.17-9.87,3.57-2.04,5.96,6.64,3.06,14.13,6.3,14.13,9.87l-.17,58.04c0,17.02,6.3,16.34,10.04,4.26,1.53-5.28,1.7-10.21,1.7-20.43l26.72-.68c10.04-.34,10.89-9.87-2.21-10.38Z"/>
    <path class="cls-8" d="M1015.92,375.05c1.36-8,.51-26.04,1.02-46.13.17-6.13,5.28-8.17-19.57-10.38-9.36,1.36-8,3.91-1.53,5.79,5.96,2.38,8.85,3.92,8.85,5.96v12.6l-36.77.85v-10.38c0-4.26,4.6-7.83-21.79-8.51-8.51,1.36-8.34,4.77-.51,6.13,6.3,1.7,10.38,3.4,10.38,5.28v1.19c0,12.43.51,43.4.68,44.6.34,13.62,7.32,11.4,10.72-.85l37.96-.85c.68,11.91,8.17,8.51,10.55-5.28ZM1004.85,373.86l-36.94.68v-24.34l36.94-.85v24.51Z"/>
    <path class="cls-8" d="M1060.34,405.86c1.19-4.6,7.83-8-5.1-8.34-6.98-.17-4.6.51-8,.85-6.98.85-12.43,1.36-17.19,1.36-4.93.17-9.36,0-13.62-.34-8.51-.68-10.55,1.19-1.02,5.28,13.45,5.79,8.34,2.72,15.49.85,2.72-.17,11.23-.68,18.04-1.02l11.4,1.54c0-.06,0-.12,0-.18Z"/>
    <path class="cls-8" d="M999.24,399.73c-8.17-.34-5.62.85-9.36,1.02-8,.51-15.32.68-21.79.68-4.08,0-8-.17-11.06-.51-6.98-.85-9.7,1.53-2.04,4.94,16.17,7.49,9.7,2.38,16.68,1.7,4.08-.51,14.13-.85,20.94-1.36l11.52,1.56c1.14-3.89,7.7-7.37-4.88-8.03Z"/>
    <g>
      <path class="cls-9" d="M1575.84,320.23c-3.81-1.39-11.61-3.64-17.68-3.99-10.57.35-6.93,4.51-2.25,5.72,5.55,2.77,11.27,5.2,11.27,6.93v83.88l-.17,6.41h0v29.81c0,7.8,2.95,12.13,7.8,3.12,2.25-3.99,3.99-11.96,3.99-26l.17-96.71c0-4.85,2.6-7.11-3.12-9.19Z"/>
      <path class="cls-9" d="M1425.8,382.38c-17.33,4.68-52.86,10.57-79.55,11.96-11.27.52-20.97.52-27.04-.69-8.32-1.73-9.36,1.04-2.6,5.37,27.04,13.17,19.59,7.8,29.46,5.2,5.37-.69,13-1.73,17.16-2.25h0l12.13-2.08c20.1-4.16,37.96-8.67,50.61-12.48l-.17-5.03h0Z"/>
      <path class="cls-9" d="M1434.63,311.32c-5.72-2.25-12.13-4.16-20.97-5.2-9.53,1.39-8.15,3.47-.17,7.11,5.2,2.25,12.3,5.89,12.3,10.05v59.1l.17,5.03v65.68c0,11.27,2.43,13.17,4.51,12.83,4.33-.87,7.45-15.95,7.45-32.76l.17-113.17c0-5.02,2.6-6.24-3.47-8.67Z"/>
      <path class="cls-9" d="M473.91,358.85c17.19,7.49,11.74,3.23,20.94,1.87,3.91-.17,13.62-1.02,21.28-1.19v-5.96c-7.83.51-17.36,1.02-26.38,1.02-4.6,0-9.19-.17-13.11-.51-11.4-1.02-6.47,2.72-2.72,4.77Z"/>
      <path class="cls-9" d="M493.32,381.82c-21.11,7.66-39.32,10.55-54.13,10.72-4.22,0-5.78-.41-6.27-1.7h-11.77c0,4.42,3.57,12.94,9.19,12.42,16.68-1.53,44.09-7.15,64-17.19,10.04-4.94,6.47-6.98-1.02-4.26Z"/>
      <path class="cls-9" d="M320.32,368.23c8.32-.35,10.92-9.53-2.95-10.22-15.08-.69-10.05,3.12-19.93,3.99-14.04,1.39-30.68,1.04-42.63,1.04h0s-.17,6.41-.17,6.41c8.32.17,47.83-.52,65.69-1.21Z"/>
      <path class="cls-9" d="M352.73,426.99c-22.7-3.64-15.42,1.39-26.52,2.25l-6.41.52c-13.34,1.04-25.13.69-35.88.87-22.88.35-40.73,1.04-53.55.17-6.76-.35-12.48-1.39-16.81-2.43-9.71-2.08-9.71,1.21-2.77,5.89,26,12.65,18.02,7.11,29.64,4.68,14.38-1.04,33.28-2.25,48.01-2.43,17.33-.35,44.89,0,64.65,1.73,11.27.87,12.48-9.18-.35-11.26Z"/>
      <path class="cls-9" d="M681.08,356.98v-28.59c0-5.28,1.87-6.47-3.57-8.34-4.77-1.7-9.36-2.72-17.02-3.23-10.72,1.02-9.36,4.43-1.87,6.3,6.98,3.06,11.06,5.62,11.06,7.32l.17,107.23c0,8.17,2.55,10.89,4.43,10.38,3.91-2.04,6.81-9.7,6.81-31.83v-59.23Z"/>
      <path class="cls-9" d="M708.32,310.51c-4.43-1.7-13.11-4.26-18.89-4.77-11.4.85-8.68,4.09-1.87,6.13,6.13,2.55,12.43,6.3,12.77,9.19v132.6c0,8.51,2.21,10.55,4.08,9.7,4.6-3.23,7.15-11.4,7.15-39.66l.17-104.17c0-5.62,1.53-6.98-3.4-9.02Z"/>
      <polygon class="cls-9" points="854.97 338.34 854.97 331.87 802.37 334.25 802.37 340.55 854.97 338.34"/>
      <polygon class="cls-9" points="802.37 362.68 801.52 369.14 801.52 369.14 854.97 367.1 854.97 360.8 802.37 362.68"/>
      <path class="cls-9" d="M801.86,440.97c.17,14.81,4.77,13.45,8.85,3.57,3.57-12.94,3.23-28.94,3.23-49.53l-12.76.41.68,45.55Z"/>
      <path class="cls-9" d="M850.2,448.63c0,14.47,5.45,13.11,8.85,1.7,2.89-9.53,3.4-32.84,3.4-56.84h-12.25s0,55.14,0,55.14Z"/>
      <path class="cls-9" d="M1048.94,404.5l.17,48.85c0,14.3,6.81,13.11,9.87-4.43,1.7-8.99,1.36-26.59,1.36-42.88l-11.4-1.54Z"/>
      <path class="cls-9" d="M992.6,449.09c0,16.85,5.96,13.11,9.36-.34,1.19-5.11,2.04-19.91,2.04-40.51.03-.16.07-.32.12-.48l-11.52-1.56v42.89Z"/>
      <path class="cls-9" d="M1246.31,403.05c-7.83,0-6.64,1.53-10.89,1.7-15.66.34-34.21,1.36-49.7,1.19-5.62-.17-10.72-.51-15.32-1.19-8.34-1.36-8.17,1.53-2.04,5.11,19.23,11.23,13.11,5.11,21.79,3.23,14.47-.85,39.49-1.87,51.06-1.87h12.09c1.4-4.61,6.65-8.17-6.99-8.17Z"/>
    </g>
    <path class="cls-8" d="M1241.21,411.22v45.79c0,11.4,6.47,8.68,9.36-1.19,2.55-12.77,2.38-18.55,2.55-43.91.05-.23.11-.46.18-.68h-12.09Z"/>
  </g>
  <g>
    <line class="cls-5" x1="258.5" y1="438.5" x2="258.5" y2="482"/>
    <g>
      <line class="cls-4" x1="805.06" y1="434" x2="806.48" y2="436.64"/>
      <line class="cls-3" x1="807.93" y1="439.31" x2="828.9" y2="478.03"/>
      <polyline class="cls-4" points="829.63 479.36 831.06 482 832.48 479.36"/>
      <line class="cls-3" x1="833.93" y1="476.69" x2="854.9" y2="437.97"/>
      <line class="cls-4" x1="855.63" y1="436.64" x2="857.06" y2="434"/>
    </g>
    <g>
      <line class="cls-4" x1="708.96" y1="321.81" x2="707.52" y2="319.18"/>
      <line class="cls-1" x1="705.96" y1="316.33" x2="692.69" y2="292.06"/>
      <polyline class="cls-4" points="691.91 290.63 690.47 288 689.05 290.64"/>
      <line class="cls-1" x1="687.51" y1="293.51" x2="674.44" y2="317.89"/>
      <line class="cls-4" x1="673.67" y1="319.32" x2="672.25" y2="321.97"/>
    </g>
    <g>
      <line class="cls-4" x1="999.06" y1="434" x2="1000.48" y2="436.64"/>
      <line class="cls-3" x1="1001.93" y1="439.31" x2="1022.9" y2="478.03"/>
      <polyline class="cls-4" points="1023.63 479.36 1025.06 482 1026.48 479.36"/>
      <line class="cls-3" x1="1027.93" y1="476.69" x2="1048.9" y2="437.97"/>
      <line class="cls-4" x1="1049.63" y1="436.64" x2="1051.06" y2="434"/>
    </g>
    <line class="cls-5" x1="1206.56" y1="409.5" x2="1206.56" y2="481.5"/>
    <line class="cls-5" x1="1382.56" y1="395.5" x2="1382.56" y2="482"/>
    <line class="cls-5" x1="428.56" y1="395.5" x2="428.56" y2="482"/>
    <line class="cls-5" x1="1571.56" y1="439.5" x2="1571.56" y2="482"/>
    <line class="cls-5" x1="1431.56" y1="330.5" x2="1431.56" y2="288"/>
    <line class="cls-5" x1="824.56" y1="338.5" x2="824.56" y2="288"/>
    <line class="cls-5" x1="494.56" y1="357.5" x2="494.56" y2="288"/>
    <line class="cls-5" x1="293.56" y1="366.5" x2="293.56" y2="288"/>
  </g>
</svg>