<?xml version="1.0" encoding="UTF-8"?>
<svg id="_라틴" data-name="라틴" xmlns="http://www.w3.org/2000/svg" viewBox="0 0 1850 800">
  <defs>
    <style>
      .cls-1 {
        fill: #d6ad00;
      }

      .cls-1, .cls-2 {
        stroke-width: 0px;
      }

      .cls-3 {
        stroke: #231f20;
      }

      .cls-3, .cls-4, .cls-5 {
        fill: none;
        stroke-miterlimit: 10;
      }

      .cls-2 {
        fill: #000;
      }

      .cls-4 {
        stroke: #000;
        stroke-dasharray: 0 0 6 3;
      }

      .cls-5 {
        stroke: #d6ad00;
      }
    </style>
  </defs>
  <g id="_선" data-name="선">
    <line class="cls-3" x1="668" y1="290.63" x2="1211" y2="290.63"/>
    <line class="cls-3" x1="668" y1="348.48" x2="1211" y2="348.48"/>
    <line class="cls-3" x1="668" y1="460.21" x2="1211" y2="460.21"/>
    <line class="cls-3" x1="668" y1="518.34" x2="1211" y2="518.34"/>
  </g>
  <g>
    <path class="cls-2" d="M852.62,423.86c-6.58,13.31-13.4,22.27-17.96,24.84-5.56,2.82-12.9,3.84-32.37,3.84-22.26,0-27.57-2.82-30.6-5.89-4.05-4.35-4.81-13.06-4.81-26.63v-36.1c0-6.66.76-6.91,8.35-6.91h14.67c9.86,0,15.93.26,19.48,1.28,5.06,1.28,6.83,5.12,7.84,9.73l2.28,9.99c1.26,1.54,5.56,1.54,6.58-.26,0-5.63-1.01-15.36-1.01-24.58,0-9.73,1.01-19.71,1.01-25.86-1.01-1.79-5.31-1.79-6.58-.26l-2.02,10.5c-1.26,6.4-3.03,7.94-6.07,8.96-3.04,1.02-10.88,1.54-21.5,1.54h-14.67c-7.59,0-8.35,0-8.35-7.17v-51.21c0-6.29.01-8.72,2.06-9.65,1.12-.51,2.84-.59,5.52-.59h18.21c11.13,0,19.22.26,24.53,1.54,13.15,3.33,15.43,12.29,19.22,24.32,1.26,1.54,5.31,1.02,6.32-.51-1.01-11.27-2.53-29.7-4.05-34.05-3.03.77-17.96.77-34.14.77h-47.55c-10.37,0-18.97-.26-29.85-.77-1.52.77-2.02,5.38-.51,6.4l4.05.51c4.1.49,7.11,1.14,9.33,2.38,5.83,3.25,6.1,10.58,6.1,29.88v92.17c0,26.88-1.26,30.72-15.68,32l-8.35.77c-1.52,1.54-1.01,5.63.51,6.4,14.92-.51,23.52-.77,34.4-.77h22.76c22.51,0,45.02.26,67.78.77,3.29-6.91,9.61-26.63,11.38-35.59-1.01-2.3-4.55-3.07-6.32-1.79Z"/>
    <path class="cls-2" d="M992.85,453.47l-4.45-.28c-7.5-.56-11.95-4.22-18.34-13.22l-25.84-36.84c-3.61-5.06-3.61-5.91-.28-10.41,11.11-15.19,21.39-28.12,26.12-32.06,3.06-2.53,7.22-3.38,13.89-4.78l4.17-.84c1.67-1.41,1.67-5.91-.56-7.03-5.28.56-13.89.84-20.28.84s-13.89-.28-20.28-.84c-2.22.84-2.78,5.34-1.11,7.03l3.33.84c6.11,1.69,6.95,3.09,2.22,10.41-5.83,9-15,23.06-16.11,23.91-.83-.84-2.5-3.09-3.61-4.78l-13.34-19.69c-4.72-6.75-5-8.44,2.5-9.84l4.17-.84c1.67-1.41,1.67-5.91-.28-7.03-10.84.56-16.95.84-23.62.84s-13.34-.28-24.17-.84c-1.94.84-2.22,5.62-.56,7.03l4.45.84c7.78,1.41,12.5,5.91,16.67,12.09l25,35.72c2.22,3.09,1.67,4.22-.83,7.31-6.39,7.87-18.89,26.72-24.73,32.9-5,5.34-8.89,7.59-13.89,8.44l-6.39,1.12c-1.94,1.12-1.67,5.91.56,7.03,7.22-.56,13.34-.84,20.28-.84s13.61.28,20.56.84c1.94-.84,2.22-5.62.56-7.03l-4.72-.84c-6.95-1.12-6.39-3.38-.83-12.37l11.67-18.56c1.94-3.09,4.17-5.91,5-6.75,1.11.84,2.78,3.09,6.11,8.16l14.45,21.09c3.61,5.06,3.33,7.59-4.72,8.44l-8.06.84c-1.94,1.41-1.39,6.19.83,7.03,8.89-.56,16.11-.84,26.39-.84,8.06,0,17.23.28,27.5.84,1.94-.84,2.22-5.34.56-7.03Z"/>
    <path class="cls-2" d="M1109.18,363.61h-19.28c-4,0-5.92-.29-9.99-1.92-1.26-.51-2.72-1.14-4.53-1.94-5.47-2.41-13.81-4.82-22.85-4.82-21.19,0-38.8,15.66-38.8,36.39,0,13.93,7.96,22.93,15.46,27.74.8.52,1.6,1,2.39,1.42,0,1.2-1.19,3.13-2.38,4.58-4.05,4.34-8.57,8.43-12.62,11.08-2.62,1.93-3.57,2.89-3.57,4.1,0,8.43,8.09,16.63,17.38,19.04,1.04.7,1.12,1.57.69,2.52-.45,1.02-1.49,2.14-2.6,3.26-5.47,5.54-12.14,11.81-16.19,16.14-1.67,1.93-2.62,5.06-2.62,8.92,0,12.05,10.24,27.95,39.51,27.95,30.94,0,59.27-19.28,59.27-45.54,0-24.1-20-26.51-33.32-26.51-10.47,0-20.23.72-28.33.72-.23,0-.44-.01-.66-.02-10.73-.18-16-4.67-16-10.1,0-6.99,7.62-11.57,10.47-13.25.28.02.56.05.85.08,2.67.25,5.76.65,9.63.65,30.23,0,39.99-21.69,39.99-38.31,0-3.97,0-7.94-.44-11.91-.01-.13-.02-.25-.03-.38h17.14c3.57-.48,4.05-8.67,1.43-9.88ZM1059.25,461.22h8.09c17.14,0,27.14,6.26,27.14,20.96,0,13.73-14.04,25.78-35.23,25.78s-31.9-10.84-31.9-23.86c0-9.16,5.71-16.63,11.43-20.24,3.33-2.17,12.85-2.65,20.47-2.65ZM1054.67,417.1c-11.43,0-21.66-11.08-21.66-28.19s8.57-26.99,20-26.99c14.52,0,21.19,13.74,21.19,30.12,0,14.7-6.66,25.06-19.52,25.06Z"/>
  </g>
  <g>
    <line class="cls-5" x1="1173.97" y1="295.35" x2="1173.97" y2="345.28"/>
    <polygon class="cls-1" points="1173.97 291.43 1169.22 298.12 1178.71 298.12 1173.97 291.43"/>
    <polygon class="cls-1" points="1173.97 347.95 1178.71 341.26 1169.22 341.26 1173.97 347.95"/>
  </g>
  <g>
    <line class="cls-5" x1="1173.97" y1="352.35" x2="1173.97" y2="456.5"/>
    <polygon class="cls-1" points="1173.97 348.43 1169.22 355.12 1178.71 355.12 1173.97 348.43"/>
    <polygon class="cls-1" points="1173.97 460.69 1178.71 454 1169.22 454 1173.97 460.69"/>
  </g>
  <g>
    <line class="cls-5" x1="1173.97" y1="465.18" x2="1173.97" y2="515.11"/>
    <polygon class="cls-1" points="1173.97 461.26 1169.22 467.95 1178.71 467.95 1173.97 461.26"/>
    <polygon class="cls-1" points="1173.97 517.78 1178.71 511.09 1169.22 511.09 1173.97 517.78"/>
  </g>
  <g>
    <line class="cls-4" x1="663" y1="460.5" x2="610" y2="460.5"/>
    <line class="cls-4" x1="663" y1="348.5" x2="610" y2="348.5"/>
    <line class="cls-4" x1="663.5" y1="518.5" x2="611.5" y2="543.5"/>
    <line class="cls-4" x1="663.5" y1="290.5" x2="611.5" y2="265.5"/>
  </g>
</svg>