<?xml version="1.0" encoding="UTF-8"?>
<svg id="Layer_1" data-name="Layer 1" xmlns="http://www.w3.org/2000/svg" viewBox="0 0 650 400">
  <defs>
    <style>
      .cls-1 {
        fill: #000;
        stroke-width: 0px;
      }
    </style>
  </defs>
  <path class="cls-1" d="M52.7,34.24h17.91l42.42,116.92h-17.35l-11.86-35.02h-46.24l-12.65,35.02H8.69L52.7,34.24ZM78.73,103.25l-17.75-51.65-18.86,51.65h36.61Z"/>
  <path class="cls-1" d="M128.95,34.24h81.1v14.33h-65.26v35.5h57.38v13.93h-57.38v53.17h-15.84V34.24Z"/>
  <path class="cls-1" d="M304.83,37.59c11.45,6.1,18.46,16.79,21.02,32.07h-15.68c-1.87-8.54-5.74-14.76-11.61-18.66-5.87-3.9-13.28-5.85-22.21-5.85-10.6,0-19.53,4.06-26.77,12.18-7.25,8.12-10.87,20.22-10.87,36.29,0,13.9,2.99,25.22,8.97,33.94,5.98,8.73,15.73,13.09,29.25,13.09,10.35,0,18.91-3.06,25.7-9.19,6.79-6.13,10.26-16.04,10.42-29.73h-36.61v-13.13h51.33v62.56h-10.19l-3.82-15.04c-5.27,5.89-9.94,9.98-14.01,12.26-6.84,3.93-15.53,5.89-26.07,5.89-13.62,0-25.34-4.48-35.15-13.45-10.7-11.25-16.05-26.69-16.05-46.32s5.23-35.15,15.69-46.72c9.94-11.04,22.8-16.55,38.59-16.55,10.82,0,20.18,2.12,28.08,6.37Z"/>
  <path class="cls-1" d="M411.25,116.3c0,9.87-1.46,17.54-4.38,23-5.42,9.98-15.72,14.96-30.92,14.96-8.76,0-16.25-2.38-22.47-7.12-6.21-4.75-9.32-13.2-9.32-25.35v-8.36h14.88v8.36c0,6.37,1.42,11.16,4.27,14.37,2.85,3.21,7.27,4.82,13.28,4.82,8.45,0,13.98-2.89,16.59-8.68,1.59-3.55,2.39-10.27,2.39-20.14V34.24h15.68v82.06Z"/>
  <path class="cls-1" d="M542.26,150.84l-7.94,9.6-18.1-13.74c-4.35,2.39-9.06,4.3-14.12,5.73-5.07,1.43-10.6,2.15-16.59,2.15-18.14,0-32.36-5.94-42.65-17.83-9.07-11.57-13.61-26.05-13.61-43.46,0-15.81,3.93-29.34,11.78-40.59,10.08-14.43,24.99-21.65,44.73-21.65s35.92,6.63,45.84,19.89c7.75,10.34,11.62,23.58,11.62,39.71,0,7.53-.93,14.77-2.78,21.72-2.81,10.61-7.55,19.26-14.22,25.94l16.05,12.52ZM496.73,139.81c2.87-.46,5.37-1.36,7.49-2.7l-12.9-10,7.96-9.79,15.25,11.9c4.84-5.52,8.12-11.71,9.85-18.57,1.73-6.85,2.59-13.41,2.59-19.68,0-13.76-3.59-24.83-10.78-33.23-7.19-8.39-17.02-12.59-29.49-12.59s-22.63,4.02-30.01,12.07c-7.38,8.05-11.06,20.43-11.06,37.16,0,14.07,3.55,25.28,10.64,33.62,7.09,8.34,17.5,12.51,31.21,12.51,3.29,0,6.38-.23,9.25-.68Z"/>
  <path class="cls-1" d="M647.08,34.24v13.93h-39.4v102.99h-16V48.17h-39.4v-13.93h94.79Z"/>
  <path class="cls-1" d="M74.51,295.17c3.29-.42,5.49-1.8,6.61-4.13.64-1.28.95-3.12.95-5.51,0-4.9-1.73-8.46-5.2-10.67s-8.43-3.32-14.89-3.32c-7.47,0-12.76,2.03-15.89,6.08-1.75,2.24-2.89,5.57-3.42,10h-13.37c.26-10.54,3.67-17.87,10.21-21.99,6.54-4.12,14.14-6.19,22.78-6.19,10.02,0,18.15,1.91,24.41,5.73,6.2,3.82,9.3,9.76,9.3,17.83v49.11c0,1.49.3,2.68.92,3.58.61.9,1.9,1.35,3.86,1.35.64,0,1.35-.04,2.15-.12.8-.08,1.64-.2,2.55-.36v10.58c-2.23.64-3.93,1.03-5.09,1.19-1.17.16-2.76.24-4.78.24-4.93,0-8.52-1.75-10.74-5.25-1.17-1.86-1.99-4.48-2.47-7.88-2.92,3.82-7.11,7.13-12.58,9.95-5.47,2.81-11.49,4.22-18.07,4.22-7.91,0-14.37-2.4-19.38-7.19-5.01-4.79-7.52-10.8-7.52-18,0-7.89,2.47-14.02,7.4-18.36s11.41-7.02,19.42-8.03l22.84-2.86ZM44.34,333.88c3.02,2.38,6.61,3.57,10.74,3.57,5.04,0,9.92-1.16,14.64-3.5,7.96-3.87,11.94-10.2,11.94-18.99v-11.52c-1.75,1.12-4,2.05-6.75,2.79-2.75.75-5.45,1.28-8.1,1.59l-8.66,1.11c-5.19.69-9.09,1.78-11.71,3.26-4.43,2.49-6.65,6.46-6.65,11.91,0,4.13,1.51,7.38,4.54,9.77Z"/>
  <path class="cls-1" d="M126.16,235.49c3.34-4.88,9.79-7.32,19.34-7.32.9,0,1.83.03,2.79.08.96.05,2.04.13,3.26.24v13.05c-1.5-.11-2.59-.17-3.26-.2-.67-.03-1.3-.04-1.89-.04-4.4,0-7.03,1.13-7.89,3.38-.86,2.26-1.29,8-1.29,17.23h14.33v11.3h-14.33v73.54h-14.17v-73.54h-11.86v-11.3h11.86v-13.37c.21-5.94,1.25-10.29,3.1-13.05Z"/>
  <path class="cls-1" d="M212.15,264.94c2.69,1.86,5.44,4.56,8.25,8.12v-10.75h13.21v77.52c0,10.82-1.59,19.37-4.76,25.63-5.92,11.57-17.11,17.35-33.55,17.35-9.15,0-16.84-2.06-23.08-6.17-6.24-4.11-9.73-10.55-10.47-19.3h14.56c.69,3.82,2.06,6.76,4.12,8.83,3.22,3.18,8.28,4.78,15.2,4.78,10.92,0,18.07-3.87,21.45-11.62,2.01-4.56,2.93-12.71,2.77-24.43-2.85,4.35-6.29,7.59-10.31,9.71s-9.33,3.18-15.94,3.18c-9.2,0-17.24-3.28-24.14-9.83-6.9-6.55-10.35-17.39-10.35-32.51,0-14.27,3.47-25.42,10.42-33.43,6.95-8.01,15.34-12.02,25.17-12.02,6.66,0,12.47,1.65,17.44,4.93ZM213.9,280.3c-4.33-5.09-9.85-7.64-16.55-7.64-10.03,0-16.89,4.72-20.59,14.17-1.95,5.04-2.93,11.65-2.93,19.82,0,9.6,1.94,16.91,5.82,21.93,3.88,5.01,9.09,7.52,15.64,7.52,10.24,0,17.44-4.64,21.62-13.93,2.32-5.25,3.48-11.38,3.48-18.38,0-10.56-2.17-18.38-6.49-23.48Z"/>
  <path class="cls-1" d="M255.42,229.44h14.33v43.62c3.4-4.3,6.45-7.32,9.15-9.07,4.62-3.02,10.37-4.54,17.27-4.54,12.36,0,20.75,4.33,25.15,12.97,2.39,4.72,3.58,11.28,3.58,19.66v54.68h-14.72v-53.72c0-6.26-.8-10.85-2.39-13.77-2.6-4.67-7.48-7-14.64-7-5.94,0-11.33,2.04-16.16,6.13-4.83,4.09-7.24,11.81-7.24,23.16v45.21h-14.33v-117.32Z"/>
  <path class="cls-1" d="M332.54,368.33c6.42-.21,10.28-.78,11.58-1.71,1.3-.93,1.95-3.83,1.95-8.71v-95.99h14.33v97.5c0,6.21-1.01,10.85-3.03,13.93-3.34,5.2-9.68,7.8-19.02,7.8-.69,0-1.42-.03-2.19-.08-.77-.05-1.97-.16-3.62-.32v-12.42ZM360.4,246.4h-14.33v-16.55h14.33v16.55Z"/>
  <path class="cls-1" d="M382.68,261.52h13.61v14.72c1.11-2.87,3.85-6.35,8.2-10.47,4.35-4.11,9.37-6.17,15.04-6.17.26,0,.72.03,1.35.08.64.05,1.72.16,3.26.32v15.12c-.85-.16-1.63-.26-2.35-.32-.72-.05-1.5-.08-2.35-.08-7.22,0-12.76,2.32-16.63,6.96-3.87,4.64-5.81,9.99-5.81,16.04v49.03h-14.33v-85.24Z"/>
  <path class="cls-1" d="M445.08,320.02c.43,4.78,1.65,8.44,3.65,10.98,3.68,4.62,10.07,6.92,19.17,6.92,5.41,0,10.18-1.15,14.3-3.46,4.12-2.31,6.17-5.88,6.17-10.71,0-3.66-1.65-6.45-4.94-8.36-2.1-1.17-6.25-2.52-12.46-4.06l-11.57-2.87c-7.39-1.8-12.83-3.82-16.34-6.05-6.25-3.87-9.38-9.23-9.38-16.08,0-8.06,2.94-14.59,8.83-19.58,5.89-4.99,13.81-7.48,23.75-7.48,13.01,0,22.4,3.77,28.15,11.3,3.6,4.78,5.35,9.92,5.25,15.44h-13.53c-.27-3.22-1.44-6.15-3.5-8.79-3.37-3.75-9.21-5.62-17.52-5.62-5.54,0-9.74,1.03-12.59,3.09s-4.28,4.79-4.28,8.17c0,3.7,1.87,6.66,5.62,8.88,2.16,1.32,5.35,2.49,9.57,3.5l9.65,2.31c10.49,2.5,17.51,4.91,21.08,7.24,5.57,3.66,8.36,9.42,8.36,17.27s-2.91,14.14-8.74,19.66-14.71,8.28-26.63,8.28c-12.84,0-21.93-2.88-27.28-8.64-5.34-5.76-8.21-12.88-8.58-21.37h13.77Z"/>
  <path class="cls-1" d="M520.93,237.72h14.49v23.8h13.61v11.7h-13.61v55.63c0,2.97,1.01,4.96,3.02,5.97,1.11.58,2.97.88,5.57.88.69,0,1.43-.02,2.23-.05s1.72-.12,2.79-.27v11.38c-1.64.48-3.36.82-5.13,1.04-1.78.21-3.7.32-5.77.32-6.69,0-11.22-1.71-13.61-5.13-2.39-3.42-3.58-7.87-3.58-13.33v-56.43h-11.54v-11.7h11.54v-23.8Z"/>
  <path class="cls-1" d="M616.63,261.52h15.84c-2.02,5.47-6.5,17.94-13.45,37.42-5.2,14.65-9.55,26.6-13.05,35.83-8.27,21.74-14.1,34.99-17.49,39.77-3.39,4.77-9.22,7.16-17.49,7.16-2.01,0-3.57-.08-4.65-.24s-2.43-.45-4.02-.88v-13.05c2.49.69,4.29,1.11,5.4,1.27,1.11.16,2.09.24,2.94.24,2.65,0,4.59-.44,5.84-1.31,1.24-.87,2.29-1.95,3.14-3.22.26-.42,1.22-2.59,2.86-6.51,1.64-3.92,2.83-6.83,3.58-8.74l-31.52-87.75h16.24l22.84,69.43,23-69.43Z"/>
</svg>