<?xml version="1.0" encoding="UTF-8"?>
<svg id="Layer_2" data-name="Layer 2" xmlns="http://www.w3.org/2000/svg" viewBox="0 0 501.92 168.11">
  <defs>
    <style>
      .cls-1, .cls-2, .cls-3 {
        stroke-width: 0px;
      }

      .cls-1, .cls-4 {
        fill: none;
      }

      .cls-2 {
        fill: #40b8e9;
      }

      .cls-3 {
        fill: #000;
      }

      .cls-4 {
        stroke: #000;
        stroke-miterlimit: 10;
      }
    </style>
  </defs>
  <g id="Layer_2-2" data-name="Layer 2">
    <g>
      <g>
        <path class="cls-1" d="M284.94,143.09c0,7.74,7.92,13.32,30.96,13.32,21.42,0,32.22-4.68,32.22-15.3,0-4.5-1.98-12.96-17.28-13.32l-29.34-.72c-8.46,2.7-16.56,8.1-16.56,16.02Z"/>
        <path class="cls-1" d="M312.84,48.06c-14.22,0-22.5,6.12-22.5,18.54s8.28,18.36,22.5,18.36,22.68-5.94,22.68-18.36-8.28-18.54-22.68-18.54Z"/>
        <path class="cls-1" d="M419.94,49.14c-14.22,0-25.02,7.56-28.08,25.56h53.1c0-15.48-10.08-25.56-25.02-25.56Z"/>
        <rect class="cls-3" x="38.24" y="114.47" width="49.59" height="14.22"/>
        <polygon class="cls-2" points="16.38 114.47 16.38 90.05 .18 90.05 .18 111.78 0 128.69 38.24 128.69 38.24 114.47 16.38 114.47"/>
        <polygon class="cls-3" points="16.38 16.92 16.56 0 0 0 .18 16.92 .18 90.05 16.38 90.05 16.38 16.92"/>
        <path class="cls-2" d="M160.71,100.98c-3.64,7.61-9.45,12.4-15.55,15.07v11.85c9.47-3.98,16.08-10.96,18.99-16.3h.36c.36,5.22.54,11.52,1.62,17.1h14.94c-.72-4.86-1.62-11.52-1.62-21.96v-5.76h-18.75Z"/>
        <path class="cls-3" d="M132.3,118.79c-10.08,0-15.12-5.22-15.12-13.14,0-17.64,25.38-22.14,47.34-22.5-.1,7.17-1.53,13.05-3.81,17.82h18.75v-31.32c0-24.12-16.92-33.3-37.62-33.3-19.44,0-30.78,8.1-37.44,17.28l9.72,7.74c7.74-8.46,14.58-12.78,26.82-12.78,15.12,0,23.58,6.48,23.58,20.88v2.88c-19.62.18-63.54,1.62-63.54,34.02,0,18.36,15.3,24.66,28.62,24.66,5.79,0,11.01-1.22,15.57-3.14v-11.85c-4.38,1.92-8.9,2.75-12.87,2.75Z"/>
        <path class="cls-3" d="M223.74,69.3h-.36v-30.42h-15.3l.18,15.84v58.32l-.18,15.66h15.84l-.18-15.66v-19.8c1.8-16.2,15.48-42.12,34.74-42.12,1.08,0,2.34,0,3.6.18v-14.58c-.72-.18-2.34-.36-3.6-.36-12.96,0-26.82,9.36-34.74,32.94Z"/>
        <path class="cls-2" d="M338.57,43.56c-6.3-4.5-14.94-7.2-25.56-7.2-23.04,0-37.26,12.06-37.26,30.42,0,9.72,3.96,17.64,11.16,22.86-6.66,3.24-12.24,9-12.24,17.46s6.48,14.22,13.68,17.1v.36c-13.32,2.88-18.9,12.06-18.9,20.88,0,16.38,19.62,22.68,43.92,22.68,26.82,0,50.04-7.56,50.04-29.34,0-14.58-9.9-24.3-32.58-24.84l-24.48-.54c-10.08-.18-17.1-4.14-17.1-10.62,0-3.96,2.88-7.56,6.66-8.64,4.86,1.62,10.62,2.52,16.92,2.52,22.86,0,37.26-11.88,37.26-30.24,0-5.94-1.62-11.34-4.5-15.66,2.16-4.68,7.02-6.48,12.06-6.48,2.16,0,4.86.36,7.38.9v-12.6c-1.26-.54-3.06-1.26-6.66-1.26-10.26,0-16.02,6.12-19.8,12.24ZM301.5,127.07l29.34.72c15.3.36,17.28,8.82,17.28,13.32,0,10.62-10.8,15.3-32.22,15.3-23.04,0-30.96-5.58-30.96-13.32s8.1-13.32,16.56-16.02ZM312.84,84.96c-14.22,0-22.5-5.94-22.5-18.36s8.28-18.54,22.5-18.54,22.68,6.12,22.68,18.54-8.28,18.36-22.68,18.36Z"/>
        <path class="cls-3" d="M419.4,36.36c-25.2,0-44.28,18.72-44.28,49.5s19.08,45.36,45.72,45.36c22.68,0,36.54-13.32,39.6-17.1l-9.18-9c-3.42,3.96-15.3,12.96-29.16,12.96-18.72,0-30.96-12.6-31.14-31.5h70.74c1.26-26.28-10.62-50.22-42.3-50.22ZM391.86,74.7c3.06-18,13.86-25.56,28.08-25.56,14.94,0,25.02,10.08,25.02,25.56h-53.1Z"/>
      </g>
      <line class="cls-4" x1="262.08" y1="34.19" x2="262.08" y2="4.16"/>
      <line class="cls-4" x1="450.31" y1="89.69" x2="501.92" y2="89.69"/>
      <line class="cls-4" x1="450.31" y1="101.87" x2="500.88" y2="109.98"/>
    </g>
  </g>
</svg>