<?xml version="1.0" encoding="UTF-8"?>
<svg id="Layer_1" data-name="Layer 1" xmlns="http://www.w3.org/2000/svg" version="1.1" viewBox="0 0 650 400">
  <defs>
    <style>
      .cls-1 {
        fill: #000;
        stroke-width: 0px;
      }
    </style>
  </defs>
  <path class="cls-1" d="M82.3,102.5h-41l-2.8,6.8c-4.1,9.9-6.2,16.4-6.2,19.4s1.1,5.7,3.3,7.4c2.2,1.7,5,2.5,8.5,2.5v3.7H12v-3.7c4.8-.7,8.3-2.4,10.7-5.1,2.3-2.6,5.1-8.2,8.4-16.6.3-.8,1.5-3.9,3.8-9.2l31.4-74.9h3.1l36.1,85.7,4.9,11.3c1.1,2.5,2.6,4.6,4.5,6,1.9,1.5,4.7,2.4,8.5,2.7v3.7h-42.4v-3.7c5.2,0,8.7-.4,10.5-1.2,1.8-.8,2.7-2.3,2.7-4.6s-1.2-4.6-3.7-10.4l-8.3-20ZM80.9,98.9l-19.1-46-19,46h38.1Z"/>
  <path class="cls-1" d="M210.8,34.4l.9,26.9h-3.7c-.7-5.9-2.4-10.8-5-14.6-2.6-3.8-5.3-6.2-8.1-7.2s-7.6-1.4-14.2-1.4h-21.1v45.8h10.1c6.5,0,10.9-1.1,13-3.3,2.1-2.2,3.2-6.6,3.2-13.3h4v38h-4c0-4.6-.5-8.3-1.4-10.9-.9-2.7-2.3-4.5-4.1-5.5-1.8-1-5.4-1.5-10.7-1.5h-10.1v26.8c0,8.5.2,14,.6,16.7.4,2.6,1.5,4.6,3.2,5.8,1.7,1.3,5.1,1.9,10,1.9h3.7v3.7h-50.1v-3.7h3.3c4.6,0,7.8-.6,9.6-1.8,1.8-1.2,2.9-3,3.4-5.5.5-2.5.8-8.2.8-17.2v-52.9c0-8.6-.3-14.1-.8-16.6-.5-2.5-1.6-4.2-3.2-5.2-1.6-1-5.2-1.4-10.6-1.4h-1.9v-3.7h83.2Z"/>
  <path class="cls-1" d="M287.6,96.2h46.6v3.8c-5.1,0-8.6.5-10.5,1.6-1.8,1-3,2.8-3.6,5.2-.6,2.4-.9,8.3-.9,17.5v11.5c-1.3-.2-2.4-.3-3.4-.3-4.1,0-9.4,1.2-16.1,3.7-9,3.4-17.4,5.1-25.1,5.1-15.4,0-28.3-5.1-38.5-15.2-10.2-10.2-15.4-23-15.4-38.6s4.9-29,14.6-40.6c9.8-11.6,23-17.4,39.8-17.4s26.4,5.3,35.8,15.9c1.8-3.7,2.9-7.7,3.3-12h3.8v36.1h-3.8c-1.5-11.1-5.7-19.9-12.6-26.3-6.9-6.5-15.2-9.7-25-9.7s-19,3.8-26.5,11.3c-7.5,7.5-11.3,20.9-11.3,40.1s3.6,32.7,10.9,40.7c7.3,8,16.3,12,27.1,12s10.5-1.1,15-3.4c4.5-2.3,7.6-5,9.2-8.2,1.6-3.2,2.5-7.3,2.5-12.3s-.4-9.6-1.2-11.6c-.8-1.9-2-3.2-3.5-3.9-1.6-.7-4.5-1-8.8-1h-2.5v-3.8Z"/>
  <path class="cls-1" d="M343.8,34.4h50.1v3.7h-2.7c-5.3,0-8.8.4-10.4,1.3-1.6.9-2.7,2.5-3.3,4.9-.5,2.4-.8,8.1-.8,17v70.5c0,9.1-.4,16.1-1.1,20.9-.7,4.8-2.7,9.4-6,14-3.3,4.5-7.7,8-13.2,10.5-5.5,2.4-11.9,3.7-19.1,3.7s-14.5-1.5-18.9-4.5c-4.4-3-6.6-6.6-6.6-10.7s.8-4.6,2.3-6.3c1.6-1.7,3.5-2.5,5.8-2.5s4.3.8,5.8,2.3c1.6,1.5,2.3,3.4,2.3,5.7s-.3,2.7-1,4.1c-.6,1.3-.9,2.2-.9,2.9,0,1.7,1,3,3,4,2,1,4.5,1.4,7.5,1.4,6,0,11.1-1.9,15.3-5.8,4.1-3.8,6.6-8.4,7.5-13.6.8-5.2,1.3-13.9,1.3-25.9V61.3c0-8.6-.3-14.1-.8-16.6-.5-2.5-1.6-4.2-3.2-5.2-1.6-1-5.2-1.4-10.6-1.4h-2.5v-3.7Z"/>
  <path class="cls-1" d="M471,143.9c-2.5.3-5.2.4-8,.4-17.4,0-31.5-5.2-42.5-15.5-11-10.3-16.4-24-16.4-41.2s5.6-30,16.7-40.1c11.1-10.1,25-15.2,41.7-15.2s20.2,2.2,29.8,6.7c9.6,4.5,16.9,11.1,21.8,19.9,4.9,8.8,7.4,18.5,7.4,29.2s-3.2,23.4-9.7,33c-6.4,9.6-15.8,16.2-28,20.1l-23.8,13.1c1.6-.2,3.1-.2,4.3-.2,11.8,0,25.3,2.7,40.7,8,11.8,4.1,21.1,6.1,28,6.1s15.2-3.6,17-10.8h3.3c-.9,7.3-4,13.3-9.2,17.8-5.2,4.6-11.9,6.8-20.1,6.8s-10.3-.9-14.8-2.6c-4.4-1.8-10.2-4.9-17.3-9.4-12.7-8.1-23.3-12.2-31.8-12.2s-10,2-14.8,6c-3.2,2.7-5.4,4-6.6,4-1.9,0-2.9-.9-2.9-2.6s1.1-2.7,3.4-4.1c2.3-1.4,6.6-3.6,12.9-6.7,1.3-.6,2.7-1.3,4-2.1l14.7-8.4ZM422.3,88.2c0,17.4,3.5,30.4,10.4,39.1,6.9,8.7,17.3,13.1,31.2,13.1s21.8-4.4,28.8-13.1c7.1-8.7,10.6-21.7,10.6-38.9s-3.5-29.6-10.4-38.6c-7-8.9-17-13.4-30.2-13.4s-23,4.4-29.9,13.1c-6.9,8.7-10.4,21.6-10.4,38.7Z"/>
  <path class="cls-1" d="M531.6,60.3h-3.7l.6-25.9h104.7l.6,25.9h-3.4c-1.2-7.1-2.9-12.2-5-15.4-2.1-3.2-4.4-5.1-6.8-5.8-2.4-.7-6.6-1.1-12.5-1.1h-17.4v76.2c0,8.4.2,14,.6,16.6.4,2.7,1.5,4.6,3.2,5.9,1.8,1.3,5,1.9,9.9,1.9h5.3v3.7h-53.8v-3.7h5.6c4.6,0,7.8-.6,9.6-1.8,1.8-1.2,2.9-3,3.4-5.5.5-2.5.8-8.2.8-17.2V38h-16c-7,0-11.6.3-14,1-2.4.7-4.6,2.7-6.7,6-2.1,3.3-3.7,8.4-4.8,15.3Z"/>
  <path class="cls-1" d="M115.5,326h2.9c-.5,9.1-4.9,13.6-13.4,13.6s-6.5-1-8.6-2.9c-2.1-1.9-3.5-4.7-4.1-8.5-5.3,3.8-10.1,6.6-14.5,8.5-4.4,1.9-8.3,2.9-11.7,2.9s-8.2-1.3-11.4-3.8-4.8-5.9-4.8-10.1,2.7-10.2,8-14.3c5.3-4.1,12.7-8.1,22.1-11.9l12.3-5v-3.2c0-4.5-.3-7.8-.9-9.8-.6-2-2.1-3.8-4.5-5.4-2.4-1.6-5.7-2.4-9.6-2.4-8,0-12.4,2.7-13.3,8-.8,5.4-3.1,8.1-6.7,8.1s-4.9-1.5-4.9-4.6,2.1-6.3,6.4-9.8c4.3-3.5,11-5.2,20.1-5.2s12,1.1,15.7,3.2c3.7,2.1,6.2,4.5,7.4,7.2,1.2,2.7,1.8,6.8,1.8,12.4v26.3c0,6.2.3,10.1,1,11.9.6,1.8,2,2.6,4.1,2.6,3.5,0,5.7-2.6,6.5-7.8ZM92.4,298.1l-8.7,3.5c-13.7,5.6-20.5,12.6-20.5,21s.9,6,2.6,8.1c1.8,2,4,3.1,6.8,3.1s5.4-.8,8.7-2.5c3.3-1.6,7-4.1,11.1-7.4v-25.8Z"/>
  <path class="cls-1" d="M159.8,272.7v3.7h-13.6v39.2c0,7,0,11.3.3,13.1.2,1.8.9,3.2,2.3,4.1s3.7,1.4,7.1,1.4h3.4v3.7h-35.3v-3.7c3.7,0,6.2-.4,7.6-1.1,1.4-.7,2.3-1.9,2.6-3.4.3-1.5.5-6.2.5-14.2v-39.2h-12.2v-3.7h12.2v-5.9c0-6.6.3-11.7.8-15.3.5-3.6,2-7.3,4.5-11.2,2.5-3.8,5.6-6.8,9.3-8.9,3.7-2.1,8.2-3.1,13.3-3.1s11.3,1.3,15,3.9,5.7,5.3,5.7,8-.5,2.8-1.6,3.8c-1.1,1-2.3,1.5-3.7,1.5-2.8,0-5.4-2.2-7.7-6.5-2.6-4.8-6-7.2-10.1-7.2s-6.3,1.2-8.8,3.6c-2.5,2.4-4,5.4-4.5,9-.5,3.6-.7,11.4-.7,23.2v4.9h13.6Z"/>
  <path class="cls-1" d="M220.2,278.4c4.5-5.1,9.1-7.6,13.7-7.6s4.5.7,5.9,2.1c1.4,1.4,2.1,2.9,2.1,4.5,0,3.5-1.6,5.3-4.8,5.3s-3.3-1.1-4.5-3.3c-1.2-2-2.4-3-3.7-3-2,0-4.2,1.4-6.7,4.1,2.8,4.4,4.1,9,4.1,13.8s-2.3,12-6.8,16.9c-4.6,4.9-12.3,7.6-23.1,8-11.2.4-16.9,2.7-16.9,6.8s1.3,3.3,3.8,4.1c2.5.8,7.7,1.5,15.8,1.9,8.8.4,15.5,1.2,20.2,2.4,4.7,1.2,8.5,3.6,11.3,7.2,2.8,3.6,4.2,7.9,4.2,12.9s-2.9,12.7-8.6,17c-5.7,4.3-14,6.4-24.8,6.4s-17.8-1.9-23.7-5.7c-5.9-3.8-8.9-8.6-8.9-14.5s.8-5.9,2.5-8c1.7-2.1,4.1-3.1,7.2-3.1s1.6.1,2.3.4c-3.3,3.6-4.9,7.4-4.9,11.5s2.2,8.5,6.6,11.6c4.4,3.1,10.9,4.6,19.6,4.6s13.8-1.6,18.1-4.7c4.3-3.1,6.5-7.1,6.5-11.9s-1.9-9-5.8-11.2c-3.9-2.1-10.8-3.4-20.7-3.8-11.4-.5-18.8-1.9-22.2-4.2-3.4-2.3-5.1-5.2-5.1-8.8,0-7,4.9-11.3,14.6-13.1-5-3-8.8-6.4-11.4-10.2s-3.8-8.1-3.8-12.8,2.6-12.3,7.8-16.9c5.2-4.6,11.4-7,18.6-7s16,2.8,21.3,8.4ZM184.4,295.8c0,6.8,1.4,11.9,4.2,15,2.8,3.2,6.4,4.8,10.7,4.8s7.5-1.6,10.4-4.7c2.9-3.2,4.3-8.6,4.3-16.4s-1.5-13.3-4.6-16.2c-3.1-3-6.6-4.5-10.4-4.5s-8.5,1.8-11,5.5c-2.4,3.7-3.7,9.2-3.7,16.6Z"/>
  <path class="cls-1" d="M267.3,283.5c3.2-4.5,6.8-7.8,10.7-10,4-2.2,8.3-3.3,13-3.3s9.8,1.1,13.3,3.3c3.5,2.2,5.8,5,6.9,8.2,1.1,3.3,1.6,8.6,1.6,15.9v18c0,7.6.1,12.3.4,13.9.3,1.6,1.2,2.9,2.6,3.6,1.4.8,4.1,1.2,8,1.2v3.7h-33.7v-3.7h1.5c3.9,0,6.4-.6,7.5-1.7,1.1-1.1,1.8-2.4,2-3.9.2-1.5.3-5.9.3-13.1v-19.6c0-5.4-.3-9.4-1-12-.6-2.6-2.1-4.7-4.5-6.4-2.4-1.7-5.3-2.5-8.9-2.5s-7.9,1.2-11.1,3.6c-3.3,2.4-6.2,6-8.7,10.9v26.1c0,7.3.1,11.8.4,13.5.2,1.7,1,3,2.4,3.9,1.4.9,3.9,1.3,7.6,1.3v3.7h-33.1v-3.7h1.7c3.8,0,6.3-.5,7.4-1.6,1.1-1.1,1.8-2.4,2-3.9.2-1.5.3-5.9.3-13.2v-64.9c0-6.6-.6-10.7-1.9-12.5-1.2-1.8-4.2-2.6-9-2.6v-3.7c8.2,0,15.1-1.1,20.5-3.3h1.7v55Z"/>
  <path class="cls-1" d="M354.8,270.1v70c0,7-.3,12.3-.8,16-.6,3.7-2,7.3-4.2,10.7s-5.4,6.1-9.4,8.2c-4.1,2-8.6,3.1-13.7,3.1s-8.9-.9-12.2-2.8c-3.3-1.9-4.9-4.2-4.9-7.1s.5-3,1.6-3.9c1-.9,2.2-1.4,3.5-1.4,2.4,0,4.4,1.7,5.9,5.1,1.9,4.3,4.7,6.5,8.5,6.5s6.3-1.1,8.9-3.3c2.6-2.2,4.2-5,4.7-8.5.6-3.5.9-9,.9-16.7v-50.3c0-6.4-.2-10.7-.7-12.7-.5-2-1.3-3.4-2.5-4.1-1.2-.7-3.5-1-6.9-1h-2v-3.7c9.3-1,16.6-2.4,21.7-4.2h1.8ZM339.1,236.8c0-2.3.8-4.2,2.4-5.9,1.6-1.6,3.6-2.5,5.9-2.5s4.2.8,5.8,2.5c1.6,1.6,2.4,3.6,2.4,5.9s-.8,4.3-2.4,6c-1.6,1.6-3.5,2.5-5.8,2.5s-4.4-.8-5.9-2.5c-1.6-1.7-2.3-3.7-2.3-5.9Z"/>
  <path class="cls-1" d="M395.2,286.7c1.8-4.7,4.7-8.7,8.8-11.9,4.1-3.2,8-4.8,11.9-4.8s6.3,1.1,8.3,3.3c2,2.2,3,4.4,3,6.7s-.5,2.9-1.6,4c-1,1.1-2.3,1.7-3.8,1.7-2.7,0-4.7-2-6-5.9-1-2.7-2.4-4-4.3-4s-5,1.6-8.2,4.7c-3.2,3.1-5.2,6.3-6.1,9.7-.9,3.3-1.4,7.9-1.4,13.8v11.6c0,7,0,11.3.3,13.1.2,1.8.9,3.2,2.3,4.1,1.3,1,3.7,1.4,7.1,1.4h2.2v3.7h-34.6v-3.7h1.7c3.2,0,5.5-.4,6.8-1.3,1.4-.9,2.2-2.1,2.4-3.7.3-1.6.4-6.2.4-13.7v-18.4c0-7,0-11.4-.3-13.2-.2-1.8-.9-3.2-2.3-4.1-1.3-1-3.7-1.5-7.1-1.5h-1.7v-3.6c5-.6,11.5-2.1,19.6-4.7,1.5,4.2,2.4,9.7,2.5,16.6Z"/>
  <path class="cls-1" d="M435.7,340v-21.4h3.1c3.6,12.4,10.1,18.5,19.3,18.5s7-1.2,9-3.7c2-2.4,3-5.1,3-8s-1.1-6.2-3.2-8.4c-2.2-2.2-6.4-4.8-12.7-7.9-6.6-3.2-11.3-6.4-14.2-9.6-2.9-3.1-4.3-6.9-4.3-11.4s1.5-8.4,4.6-12.3c3.1-3.9,7.4-5.8,13-5.8s10.4,2.3,14.1,6.9c.8-.8,1.8-2.7,3.1-5.8h2.9v20.1h-2.9c-1.1-4.8-3.1-9-6.2-12.5-3.1-3.5-6.6-5.2-10.8-5.2s-5.8,1-7.7,2.9-2.9,4.2-2.9,6.8,1.1,5.3,3.3,7.4c2.1,2.1,6.2,4.5,12.2,7.2,9,4.1,14.5,8.1,16.6,11.9,2,3.9,3,7.7,3,11.3,0,5.7-1.9,10.3-5.6,13.8-3.7,3.6-8.5,5.3-14.1,5.3s-11.3-2.5-16-7.4c-1.4,1.6-2.6,3.9-3.5,6.8h-3.1Z"/>
  <path class="cls-1" d="M528.2,276.4h-19.7v39.4c0,6,.3,10.1.8,12.2.5,2.1,1.7,3.8,3.4,5.1,1.7,1.3,3.6,1.9,5.5,1.9,3.8,0,7.1-2.2,9.9-6.5l2.5,1.5c-1.6,3.5-4.1,6.1-7.3,7.9-3.2,1.8-6.5,2.7-9.8,2.7s-7.2-1.1-10.1-3.4c-2.9-2.3-4.7-4.9-5.4-7.9-.7-3-1.1-8.3-1.1-15.9v-36.9h-9.5v-3.7c4.3-.1,8.2-1.9,11.7-5.5,3.4-3.6,5.7-8.5,6.6-15h2.5v20.5h19.7v3.7Z"/>
  <path class="cls-1" d="M573.2,325.6l15.1-36.2c2.2-5.3,3.3-8.2,3.3-8.8,0-2.7-2.9-4-8.8-4.1v-3.7h22.9v3.7c-3.6.2-6.2,1.1-7.8,2.8-1.6,1.7-3.7,5.5-6.1,11.4l-29.1,70.1c-2.8,6.7-5.2,11.2-7.3,13.7-2.1,2.4-4.5,3.6-7,3.6s-5.2-1.6-5.2-4.7,2.8-6.7,8.3-9.2c3.2-1.4,5.4-2.7,6.5-3.7,1.1-1,2.2-2.8,3.2-5.5l6.2-15.5-24.5-52.5c-2.2-4.6-4-7.5-5.4-8.8-1.4-1.2-3.9-1.8-7.3-1.8v-3.7h29.9v3.7c-5.3.2-7.9,1.2-7.9,3.3s1,3.4,3.1,7.8l17.9,38.1Z"/>
</svg>