<?xml version="1.0" encoding="UTF-8"?>
<svg id="Layer_2" data-name="Layer 2" xmlns="http://www.w3.org/2000/svg" viewBox="0 0 431 189.9">
  <defs>
    <style>
      .cls-1, .cls-2, .cls-3 {
        stroke-width: 0px;
      }

      .cls-1, .cls-4 {
        fill: none;
      }

      .cls-2 {
        fill: #40b8e9;
      }

      .cls-3 {
        fill: #000;
      }

      .cls-4 {
        stroke: #000;
        stroke-miterlimit: 10;
      }
    </style>
  </defs>
  <g id="Layer_2-2" data-name="Layer 2">
    <g>
      <polyline class="cls-4" points="73.36 14.41 73.36 .5 .5 .5 .5 14.41"/>
      <polyline class="cls-4" points="149.21 14.41 149.21 .5 80.04 .5 80.04 14.41"/>
      <polyline class="cls-4" points="223.48 14.41 223.48 .5 164.42 .5 164.42 14.41"/>
      <polyline class="cls-4" points="299.06 14.41 299.06 .5 226.85 .5 226.85 14.41"/>
      <polyline class="cls-4" points="380.36 14.41 380.36 .5 307.5 .5 307.5 14.41"/>
      <g>
        <path class="cls-1" d="M238.42,164.67c0,8.32,7.5,12.48,22.5,12.48,7.09,0,12.58-1.04,16.48-3.12,3.9-2.08,5.84-5.02,5.84-8.83s-2.46-6.81-7.38-9.18-11.28-3.56-19.07-3.56c-5.39,0-9.8,1.14-13.23,3.43s-5.14,5.21-5.14,8.79Z"/>
        <path class="cls-1" d="M99.33,119.37c-2.26,2.2-3.38,4.94-3.38,8.22s1.07,6.06,3.21,8.17c2.14,2.11,4.91,3.16,8.31,3.16,5.1,0,9.81-2.08,14.15-6.24v-23.99l-10.72,4.13c-5.45,2.17-9.3,4.35-11.56,6.55Z"/>
        <path class="cls-1" d="M249.49,86.1c-3.05,2.93-4.57,6.45-4.57,10.55s1.49,7.6,4.48,10.33,6.77,4.09,11.34,4.09,8.28-1.39,11.29-4.17c3.02-2.78,4.53-6.25,4.53-10.42s-1.52-7.73-4.57-10.55c-3.05-2.81-6.86-4.22-11.43-4.22s-8.03,1.46-11.07,4.39Z"/>
        <path class="cls-1" d="M345.12,80.12c-5.74,0-10.45,1.73-14.11,5.19-3.66,3.46-6.05,8.38-7.16,14.77h40.69c-.41-6.39-2.32-11.31-5.71-14.77-3.4-3.46-7.97-5.19-13.71-5.19Z"/>
        <rect class="cls-3" x="36.93" y="132.68" width="36.43" height="16"/>
        <rect class="cls-3" x=".5" y="25.89" width="17.58" height="82.79"/>
        <polygon class="cls-2" points="18.08 132.68 18.08 108.69 .5 108.69 .5 148.68 36.93 148.68 36.93 132.68 18.08 132.68"/>
        <path class="cls-3" d="M137.35,134.44v-34.37c0-6.8-.19-11.41-.57-13.84-.38-2.43-1.27-4.86-2.68-7.29-1.41-2.43-2.99-4.38-4.75-5.84-5.27-4.57-12.28-6.86-21.01-6.86-11.66,0-20.6,3.66-26.81,10.99v17.49c8.26-9.02,16.76-13.54,25.49-13.54,9.73,0,14.59,4.86,14.59,14.59v4.31l-20.48,7.03c-6.74,2.34-11.94,5.52-15.6,9.54-3.66,4.01-5.49,8.57-5.49,13.67,0,5.62,1.87,10.3,5.62,14.02,3.75,3.72,8.44,5.58,14.06,5.58,7.68,0,14.91-2.64,21.71-7.91,1.23,5.39,5.27,8.09,12.13,8.09,2.4,0,4.7-.43,6.9-1.27s5.11-2.45,8.75-4.79v-9.76c-4.1,2.87-7.12,4.31-9.05,4.31s-2.81-1.38-2.81-4.13ZM121.61,132.68c-4.34,4.16-9.05,6.24-14.15,6.24-3.4,0-6.17-1.05-8.31-3.16-2.14-2.11-3.21-4.83-3.21-8.17s1.13-6.02,3.38-8.22c2.25-2.2,6.11-4.38,11.56-6.55l10.72-4.13v23.99Z"/>
        <path class="cls-3" d="M204.58,66.24c-7.73,0-15.47,6.24-23.2,18.72l-.88,1.41v-18.54h-16.08v80.86h16.08v-42.28c0-6.74,1.89-12.57,5.67-17.49s8.25-7.38,13.4-7.38c4.75,0,9.9,2.64,15.47,7.91l8.44-14.06c-6.56-6.09-12.86-9.14-18.9-9.14Z"/>
        <path class="cls-2" d="M239.96,75.33c-6.3,5.01-9.45,11.82-9.45,20.43,0,11.78,5.95,20.3,17.84,25.58-3.93,1-7.05,2.55-9.36,4.66-2.32,2.11-3.47,4.45-3.47,7.03,0,3.4,2.69,6.83,8.09,10.28-13.54,3.16-20.3,10.22-20.3,21.18,0,7.73,3.44,13.9,10.33,18.5,6.88,4.6,16.1,6.9,27.64,6.9s20.55-2.29,27.38-6.86c6.83-4.57,10.24-10.69,10.24-18.37,0-5.86-1.93-10.72-5.8-14.59-2.29-2.29-4.85-4.04-7.69-5.27-2.84-1.23-9.21-2.93-19.12-5.1-5.92-1.29-10.01-2.53-12.26-3.74-2.26-1.2-3.38-2.74-3.38-4.61,0-3.28,3.02-5.36,9.05-6.24,8.61-1.29,14.81-3.02,18.59-5.19,3.78-2.17,6.87-5.29,9.27-9.36,2.4-4.07,3.6-8.22,3.6-12.44,0-3.4-.62-6.42-1.85-9.05s-3.43-5.57-6.59-8.79h16.35v-12.48h-33.31c-10.9,0-19.5,2.5-25.8,7.51ZM256.79,152.46c7.79,0,14.15,1.19,19.07,3.56s7.38,5.43,7.38,9.18-1.95,6.75-5.84,8.83c-3.9,2.08-9.39,3.12-16.48,3.12-15,0-22.5-4.16-22.5-12.48,0-3.57,1.71-6.5,5.14-8.79s7.84-3.43,13.23-3.43ZM276.56,96.47c0,4.16-1.51,7.63-4.53,10.42-3.02,2.78-6.78,4.17-11.29,4.17s-8.35-1.36-11.34-4.09-4.48-6.17-4.48-10.33,1.52-7.62,4.57-10.55c3.05-2.93,6.74-4.39,11.07-4.39,4.57,0,8.38,1.41,11.43,4.22,3.05,2.81,4.57,6.33,4.57,10.55Z"/>
        <path class="cls-3" d="M380.36,107.63c0-12.6-3.19-22.65-9.58-30.15-6.39-7.5-14.94-11.25-25.66-11.25s-20.19,3.85-27.16,11.56c-6.97,7.71-10.46,17.71-10.46,30.01,0,8.2,1.65,15.42,4.97,21.67,3.31,6.24,7.72,11.21,13.23,14.9,5.51,3.69,12.71,5.54,21.62,5.54,6.5,0,12.17-.7,17.01-2.11s9.71-3.75,14.63-7.03v-15.64c-8.91,6.56-18.63,9.84-29.18,9.84-7.56,0-13.73-2.29-18.5-6.86-4.78-4.57-7.37-10.72-7.78-18.46h56.87v-2.02ZM323.85,100.07c1.11-6.39,3.5-11.31,7.16-14.77,3.66-3.46,8.36-5.19,14.11-5.19s10.31,1.73,13.71,5.19c3.4,3.46,5.3,8.38,5.71,14.77h-40.69Z"/>
      </g>
      <line class="cls-4" x1="389.02" y1="109.65" x2="430.28" y2="109.65"/>
      <line class="cls-4" x1="387.89" y1="140.77" x2="431" y2="140.77"/>
    </g>
  </g>
</svg>