<?xml version="1.0" encoding="UTF-8"?>
<svg id="Layer_2" data-name="Layer 2" xmlns="http://www.w3.org/2000/svg" viewBox="0 0 650 255.17">
  <defs>
    <style>
      .cls-1, .cls-2, .cls-3 {
        stroke-width: 0px;
      }

      .cls-1, .cls-4 {
        fill: none;
      }

      .cls-2 {
        fill: #40b8e9;
      }

      .cls-3 {
        fill: #000;
      }

      .cls-4 {
        stroke: #000;
        stroke-miterlimit: 10;
      }
    </style>
  </defs>
  <g id="_올드스타일" data-name="올드스타일">
    <line class="cls-4" x1="511.74" y1="105.96" x2="552.11" y2="105.96"/>
    <line class="cls-4" x1="511.74" y1="130.02" x2="552.11" y2="130.02"/>
    <line class="cls-4" x1="398.48" y1="40.68" x2="414.02" y2="240.65"/>
    <line class="cls-4" x1="478.84" y1="40.68" x2="497.34" y2="195.29"/>
    <g>
      <path class="cls-1" d="M390.79,189.71c4.86,3.78,10.98,5.58,17.64,5.58,7.02,0,12.24-2.16,14.22-3.24,7.2-4.68,9.9-11.52,9.9-16.74,0-2.34-.36-6.48-2.52-9.36-1.8-2.34-5.22-4.68-9.54-5.58-4.86-.9-10.62-.9-18.18-.9-5.76,0-8.64,1.08-9.72,1.8-5.76,3.96-8.1,10.62-8.1,14.76,0,5.76,2.52,10.44,6.3,13.68Z"/>
      <path class="cls-1" d="M277.39,122.4c-5.04,0-13.68,3.06-18.54,5.4-1.8,1.26-3.6,2.52-3.6,6.84,0,7.92,7.56,10.8,11.34,10.8,2.7,0,6.3-1.26,9.72-3.06,1.08-.72,2.16-4.14,2.16-4.5.36-4.32.36-10.44.36-14.04,0-.54-.72-1.44-1.44-1.44Z"/>
      <path class="cls-1" d="M402.67,83.88c-3.24,0-7.38,2.34-9,4.5-2.7,2.88-4.68,7.56-4.68,16.02,0,9,6.12,22.5,17.82,22.5,1.26,0,3.42-.9,5.94-2.52,4.5-2.88,6.84-11.7,6.84-19.08,0-3.24-1.08-9.18-3.96-13.5-3.42-5.04-7.74-7.92-12.96-7.92Z"/>
      <path class="cls-1" d="M468.01,100.44c4.68.18,14.22.18,23.22,0,4.32,0,6.12-.9,6.12-4.5,0-5.04-5.4-10.8-11.88-10.8-8.1,0-14.94,5.04-18.18,13.32-.36.9.36,1.98.72,1.98Z"/>
      <path class="cls-2" d="M178.57,145.8c-1.44-.18-5.76-4.32-6.12-6.84-.53-4.35-.96-14.78-1.15-25.56h-15.16c-.18,11.64-.42,20.52-.61,22.86-.9,7.02-3.42,10.44-13.32,12.42-2.88.54-4.32,1.98-4.32,3.24,0,1.62,1.8,1.98,5.22,1.98,2.52,0,10.98-.9,23.22-.9,6.84,0,12.97.04,18.44.1v-6.68c-2.26-.14-4.38-.33-6.2-.61Z"/>
      <path class="cls-3" d="M171.19,101.7c0-26.64,0-44.82,1.08-52.92.36-2.7,1.62-4.68,12.06-7.02,2.7-.72,4.14-1.8,4.14-3.06s-1.26-1.98-4.5-1.98c-4.32,0-16.56.54-23.58.54-5.22,0-8.46-.36-13.32-.36-3.96,0-5.4.9-5.4,2.16s1.44,2.7,5.04,3.42c8.46,1.62,9.36,5.04,9.54,9,.18,5.94.18,18.36.18,25.56,0,12.52-.12,25.62-.29,36.36h15.16c-.07-3.95-.11-7.94-.11-11.7Z"/>
      <path class="cls-3" d="M230.59,126.72c-.9,0-2.52.72-4.5,3.96-4.86,6.84-7.74,9.54-10.26,12.06-3.6,3.24-5.76,3.24-7.2,3.42-2.7.36-7.74.54-12.78.54-3.63,0-7.53-.07-11.08-.29v6.68c23.73.27,34.89.98,36.64.98.72,0,4.14-1.08,4.32-3.06,1.44-6.84,2.7-10.62,5.58-19.44.72-2.88.18-4.86-.72-4.86Z"/>
      <path class="cls-2" d="M255.25,87.12c-8.46,5.58-13.5,10.62-13.5,15.84,0,.9,1.08,2.34,2.16,2.34.9,0,9.9-4.5,11.7-5.94.36-.36,1.08-1.44,1.08-1.98-.36-3.6.18-6.84,1.26-7.38,1.26-.9,3.6-1.98,7.38-1.98.44,0,.87.03,1.3.07l-1.54-6.11c-3.32,1.25-7,3.09-9.84,5.14Z"/>
      <path class="cls-3" d="M305.11,141.66c-1.98,1.44-6.12,2.7-6.84,2.7-1.44,0-7.2-.72-7.2-9,0-1.98.72-24.66.72-31.68,0-7.56-.9-11.16-3.6-14.94-2.7-3.96-7.2-8.46-16.2-8.46-1.56,0-4.1.64-6.9,1.7l1.54,6.11c8.03.7,12.74,7.72,12.74,11.99,0,2.16-.18,13.14-.36,14.76,0,1.08-1.08,1.98-5.22,3.24-3.96,1.26-18.36,5.22-21.06,6.3-2.7,1.26-5.4,2.16-7.2,4.5-1.98,2.52-3.42,5.94-3.42,9.18,0,9,6.12,16.74,12.42,16.74.9,0,5.22-.36,7.2-1.08,1.8-.54,9.54-3.6,16.2-8.28.36-.18,1.08.54,1.08.72,2.16,6.66,7.38,9,11.52,9,8.1,0,16.2-7.74,16.2-11.16,0-.18,0-1.26-.54-1.8-.36-.54-.54-.9-1.08-.54ZM278.47,137.88c0,.36-1.08,3.78-2.16,4.5-3.42,1.8-7.02,3.06-9.72,3.06-3.78,0-11.34-2.88-11.34-10.8,0-4.32,1.8-5.58,3.6-6.84,4.86-2.34,13.5-5.4,18.54-5.4.72,0,1.44.9,1.44,1.44,0,3.6,0,9.72-.36,14.04Z"/>
      <path class="cls-3" d="M357.49,80.28c-5.58,0-13.5,4.5-20.52,11.16-.36.18-1.26,0-1.26-.72,0-3.42.36-6.66.36-9.9,0-.54-.9-2.16-1.62-2.16-.54,0-1.44.72-3.6,2.16-1.8,1.08-7.38,3.78-13.32,5.76-1.98.72-2.34,2.52-2.34,3.06,0,.72,1.8,1.44,6.12,4.86,1.98,1.26,1.98,3.6,1.98,5.4v30.51h13.41c-.33-10.63-.81-28.61-.81-31.23,0-.9.54-2.52,1.8-3.96,1.8-1.98,4.86-2.52,7.92-2.52,3.6,0,7.92,2.16,9.9,3.96.54.36,2.16.72,2.52.54,1.08-.54,5.4-5.4,7.38-8.28.54-.9,1.08-2.16,1.08-2.52,0-1.62-1.62-6.12-9-6.12Z"/>
      <path class="cls-2" d="M323.29,134.28c-.18,10.8-.72,12.6-7.74,14.94-1.44.54-3.6,1.26-3.6,2.34,0,1.44,1.8,2.16,3.78,2.16,4.32,0,6.48-.72,11.88-.72,10.44,0,16.74.9,21.24.9,2.7,0,4.32-.72,4.32-1.62,0-.72-.36-1.98-3.24-2.88-2.7-.72-5.94-1.62-8.28-2.16-3.24-.54-4.32-3.96-4.68-9.18-.05-.73-.15-3.68-.27-7.65h-13.41v3.87Z"/>
      <path class="cls-3" d="M445.69,84.24c-3.78-.9-16.92-1.08-20.88-1.44-1.26-.18-3.06-.72-5.04-1.08-5.22-1.26-8.46-2.16-15.66-2.16s-13.32,1.98-18.36,5.76c-7.02,5.22-10.98,11.7-10.98,20.52,0,13.14,8.64,19.98,13.68,22.86.54.54,1.08,1.26.72,1.62-2.88,2.88-10.62,7.2-13.32,9.36-.36.36-.9,1.26-.9,1.62,0,5.76,2.52,10.8,6.12,13.32,2.34,1.8,5.76,2.88,7.02,3.6.54.36.9.9.54,1.26-2.34,1.98-7.92,5.94-12.42,9.72-1.62,1.26-5.22,3.42-5.22,11.34,0,5.04,3.24,11.7,8.28,15.66,7.56,5.58,16.02,6.66,22.5,6.66s16.02-1.26,25.92-7.74c7.74-5.04,16.92-14.22,16.92-27.72,0-4.68-2.52-11.52-7.56-15.84-3.24-2.52-7.2-4.14-8.64-4.32-5.76-.9-25.2-1.08-33.12-1.44-1.98-.18-7.38-3.42-7.38-8.1,0-1.44,3.96-5.22,5.76-6.12.72-.36,1.62-.36,2.7-.18,1.26,0,5.22.18,6.3.18,4.32,0,11.7-.72,19.62-6.84,7.02-5.4,10.08-12.78,10.08-22.68,0-3.06-.54-6.3-1.44-9-.18-.54.36-1.44,1.08-1.44,4.5.36,10.98.36,12.06.36.72,0,3.24-3.24,3.24-5.76,0-.72-.54-1.8-1.62-1.98ZM392.59,161.27c1.08-.72,3.96-1.8,9.72-1.8,7.56,0,13.32,0,18.18.9,4.32.9,7.74,3.24,9.54,5.58,2.16,2.88,2.52,7.02,2.52,9.36,0,5.22-2.7,12.06-9.9,16.74-1.98,1.08-7.2,3.24-14.22,3.24s-12.78-1.8-17.64-5.58c-3.78-3.24-6.3-7.92-6.3-13.68,0-4.14,2.34-10.8,8.1-14.76ZM412.75,124.38c-2.52,1.62-4.68,2.52-5.94,2.52-11.7,0-17.82-13.5-17.82-22.5,0-8.46,1.98-13.14,4.68-16.02,1.62-2.16,5.76-4.5,9-4.5,5.22,0,9.54,2.88,12.96,7.92,2.88,4.32,3.96,10.26,3.96,13.5,0,7.38-2.34,16.2-6.84,19.08Z"/>
      <path class="cls-3" d="M510.3,134.82c-.72,0-1.62,1.08-2.34,2.16-3.06,4.5-8.46,6.48-16.38,6.48-8.64,0-16.2-4.5-20.16-9.9-3.96-5.22-6.84-13.5-6.84-20.52,0-1.8.36-4.86.9-6.3.18-.54.9-1.44,1.44-1.44,8.28.18,39.06.18,41.04.18s3.42-1.98,3.42-3.06c0-6.3-2.34-11.34-6.3-15.12-4.5-4.5-11.52-6.84-17.82-6.84-3.06,0-9,1.08-13.68,3.24-14.04,6.48-21.6,20.88-21.6,35.28,0,21.06,12.96,35.82,32.4,35.82,10.26,0,19.8-4.32,26.1-13.5.54-.9,1.26-2.88,1.26-4.32,0-.9-.36-2.16-1.44-2.16ZM467.29,98.46c3.24-8.28,10.08-13.32,18.18-13.32,6.48,0,11.88,5.76,11.88,10.8,0,3.6-1.8,4.5-6.12,4.5-9,.18-18.54.18-23.22,0-.36,0-1.08-1.08-.72-1.98Z"/>
    </g>
  </g>
</svg>