<?xml version="1.0" encoding="UTF-8"?>
<svg id="Layer_1" data-name="Layer 1" xmlns="http://www.w3.org/2000/svg" viewBox="0 0 686 400">
  <defs>
    <style>
      .cls-1 {
        fill: #000;
        stroke-width: 0px;
      }
    </style>
  </defs>
  <path class="cls-1" d="M51.83,151.16h-14.51l42.87-116.54h18.91l42.87,116.54h-15.81l-12.55-35.21h-49.22l-12.55,35.21ZM68.78,103.24h40.26l-19.89-56.4h-.33l-20.05,56.4Z"/>
  <path class="cls-1" d="M229.66,98.19h-54.44v37.65l.16,15.32h-15l.16-15.32V49.94l-.16-15.32h79.54v12.88h-64.71v37.98h54.44v12.71Z"/>
  <path class="cls-1" d="M354.84,151.16h-12.06v-16.95h-.33c-7.5,14.18-19.72,20.05-36.84,20.05-33.41,0-55.91-21.03-55.91-59.33,0-33.41,17.11-63.4,56.07-63.4,26.89,0,40.42,15,48.25,31.78l-13.37,5.38c-3.75-9.78-14.51-24.12-34.72-24.12-22.49,0-40.26,16.79-40.26,49.06,0,35.21,21.35,47.59,41.07,47.59s35.53-12.88,35.53-33.74h-34.23v-12.71h46.94l-.16,15.32v41.07Z"/>
  <path class="cls-1" d="M370.66,139.26c2.61.65,6.68,1.3,10.92,1.3,15.16,0,19.89-8.8,19.89-22.82V49.78l-.16-15.16h15l-.16,15.32v67.81c0,28.69-17.28,35.86-34.72,35.86-3.75,0-7.66-.33-10.76-1.14v-13.2Z"/>
  <path class="cls-1" d="M495.18,154.09c-35.37-.81-55.26-28.04-55.26-61.29s20.54-61.29,57.05-61.29,57.21,27.71,57.21,61.29c0,29.5-15.81,54.44-44.17,60.15v.33c1.14,9.29,6.68,13.04,16.3,13.04,5.54,0,9.13-.65,15-1.3v13.69c-5.38.81-10.59,1.47-14.02,1.47-14.34,0-28.52-1.96-32.11-26.08ZM538.05,92.81c0-31.13-18.09-48.25-41.07-48.25s-41.07,17.11-41.07,48.25,18.25,48.41,41.07,48.41,41.07-17.11,41.07-48.41Z"/>
  <path class="cls-1" d="M615.31,47.5v88.34l.16,15.32h-15l.16-15.32V47.5h-38.63v-12.88h91.93v12.88h-38.63Z"/>
  <path class="cls-1" d="M17.03,278.79c6.03-8.31,16.3-15.65,33.9-15.65,18.74,0,34.07,8.31,34.07,30.15v33.58c0,9.45.81,15.48,1.47,19.88h-13.53c-.98-5.05-1.14-10.76-1.47-15.48h-.33c-3.91,7.17-15.16,17.6-31.29,17.6-12.06,0-25.92-5.71-25.92-22.33,0-29.34,39.77-30.64,57.54-30.81v-2.61c0-13.04-7.66-18.91-21.35-18.91-11.08,0-17.28,3.91-24.29,11.57l-8.8-7.01ZM71.47,305.52c-19.89.33-42.87,4.4-42.87,20.38,0,7.17,4.56,11.9,13.69,11.9,11.74,0,28.85-7.99,29.18-32.27Z"/>
  <path class="cls-1" d="M100.97,265.43h15.97v-10.43c0-21.19,11.08-25.92,24.45-25.92,4.56,0,7.5.65,9.45,1.14v11.57c-2.12-.49-5.38-1.14-8.8-1.14-8.96,0-11.08,4.4-11.08,13.85v10.92h19.89v11.25h-19.89v55.91l.16,14.18h-14.34l.16-14.18v-55.91h-15.97v-11.25Z"/>
  <path class="cls-1" d="M182.31,315.46c-3.42.98-6.03,4.24-6.03,7.82,0,5.87,6.36,9.45,15.48,9.62l22.17.49c20.54.49,29.5,9.29,29.5,22.49,0,19.72-21.03,26.57-45.31,26.57-22,0-39.77-5.7-39.77-20.54,0-7.99,5.05-16.3,17.11-18.91v-.33c-6.52-2.61-12.39-7.5-12.39-15.49s5.05-12.88,11.08-15.81c-6.52-4.73-10.11-11.9-10.11-20.7,0-16.62,12.88-27.55,33.74-27.55,9.62,0,17.44,2.44,23.15,6.52,3.42-5.54,8.64-11.08,17.93-11.08,3.26,0,4.89.65,6.03,1.14v11.41c-2.28-.49-4.73-.82-6.68-.82-4.56,0-8.96,1.63-10.92,5.87,2.61,3.91,4.07,8.8,4.07,14.18,0,16.63-13.04,27.38-33.74,27.38-5.7,0-10.92-.81-15.32-2.28ZM187.36,345.29c-7.66,2.44-15,7.33-15,14.51s7.17,12.06,28.04,12.06c19.4,0,29.18-4.24,29.18-13.85,0-4.08-1.79-11.74-15.65-12.06l-26.57-.65ZM218.17,290.53c0-11.25-7.5-16.79-20.54-16.79s-20.37,5.54-20.37,16.79,7.5,16.62,20.37,16.62,20.54-5.38,20.54-16.62Z"/>
  <path class="cls-1" d="M275.06,279.12h.33c6.03-8.15,15.48-15.97,30.15-15.97,17.6,0,28.52,11.41,28.52,32.92v36.51l.16,14.18h-14.34l.16-14.18v-35.21c0-14.67-5.22-22-16.46-22s-22.49,7.66-28.52,18.42v38.79l.16,14.18h-14.34l.16-14.18v-88.02l-.16-14.34h14.34l-.16,14.34v34.55Z"/>
  <path class="cls-1" d="M374.16,265.43l-.16,14.18v77.59c0,21.19-9.45,25.1-22,25.1-4.56,0-7.5-.82-9.45-1.14v-11.41c2.12.49,5.54,1.14,8.64,1.14,7.82,0,8.8-4.24,8.8-13.85v-77.42l-.16-14.18h14.34ZM359.98,248.31v-18.09h14.02v18.09h-14.02Z"/>
  <path class="cls-1" d="M400.73,332.58v-52.81l-.16-14.34h13.85v27.55h.33c7.17-21.35,19.72-29.83,31.46-29.83,1.14,0,2.61.16,3.26.33v13.2c-1.14-.16-2.28-.16-3.26-.16-17.44,0-29.83,23.47-31.46,38.14v17.93l.16,14.18h-14.34l.16-14.18Z"/>
  <path class="cls-1" d="M466.25,325.41c5.38,4.4,13.86,12.71,29.67,12.71,10.11,0,21.35-3.91,21.35-13.85,0-10.59-12.88-11.41-23.47-12.88-14.18-1.96-32.93-4.89-32.93-22.98,0-13.69,10.92-25.59,31.79-25.59,17.93,0,30.48,9.13,35.21,14.34l-8.31,8.64c-4.4-4.24-13.2-11.74-25.92-11.74-9.29,0-19.56,4.07-19.56,12.88s10.76,10.11,22.17,11.57c13.53,1.63,34.23,4.56,34.23,24.45,0,14.34-11.08,26.4-34.07,26.4-20.7,0-33.41-9.62-38.47-15.48l8.31-8.47Z"/>
  <path class="cls-1" d="M592.74,276.67h-22.33v50.2c0,7.17,1.79,10.59,9.45,10.59,5.38,0,10.43-1.63,13.53-2.77v11.57c-3.26,1.14-7.99,2.77-15.81,2.77-11.74,0-21.19-3.75-21.19-21.03v-51.34h-15.32v-11.25h15.65l1.96-23.15h11.74v23.15h22.33v11.25Z"/>
  <path class="cls-1" d="M618.82,265.43l25.26,67.48h.33l22.98-67.48h14.51l-35.04,94.54c-6.36,17.12-18.74,22.33-32.11,22.33-4.56,0-7.5-.82-9.45-1.14v-11.41c2.12.49,5.54,1.14,8.64,1.14,12.39,0,17.93-6.19,22.82-18.09l1.63-4.08-34.88-83.29h15.32Z"/>
</svg>