<?xml version="1.0" encoding="UTF-8"?>
<svg id="Layer_2" data-name="Layer 2" xmlns="http://www.w3.org/2000/svg" viewBox="0 0 650 255.17">
  <defs>
    <style>
      .cls-1, .cls-2, .cls-3 {
        stroke-width: 0px;
      }

      .cls-1, .cls-4 {
        fill: none;
      }

      .cls-2 {
        fill: #40b8e9;
      }

      .cls-3 {
        fill: #000;
      }

      .cls-4 {
        stroke: #000;
        stroke-miterlimit: 10;
      }
    </style>
  </defs>
  <g id="_휴머니스트" data-name="휴머니스트">
    <line class="cls-4" x1="519.52" y1="103.89" x2="559.88" y2="96.21"/>
    <line class="cls-4" x1="517.94" y1="134.47" x2="561.07" y2="146.35"/>
    <line class="cls-4" x1="397.21" y1="40.38" x2="420.94" y2="240.95"/>
    <line class="cls-4" x1="473.41" y1="40.38" x2="511.85" y2="222.96"/>
    <g>
      <path class="cls-1" d="M405.19,88.38c-3.24,0-6.3,1.26-9.18,3.96-3.24,2.7-4.68,7.2-4.68,12.24,0,7.02,2.88,15.12,8.1,19.62,5.76,5.04,10.08,6.12,13.32,6.12,6.48,0,12.78-3.96,12.78-16.02,0-5.94-1.44-12.42-4.5-17.28-2.52-4.14-7.92-8.64-15.84-8.64Z"/>
      <path class="cls-1" d="M387.19,180.35c0,3.24,3.96,12.42,21.96,12.42,10.62,0,18-2.52,22.68-6.84,3.6-3.06,6.3-6.66,6.3-10.98,0-2.52-.18-5.4-3.78-8.1-4.14-2.7-9.18-3.78-15.48-3.78s-13.86.54-18.18,1.62c-1.8.36-4.14,1.62-7.02,4.32-4.68,3.78-6.48,8.64-6.48,11.34Z"/>
      <path class="cls-1" d="M280.09,123.84c-10.8,1.62-17.28,3.78-21.24,6.84-1.08.72-1.8,1.98-1.8,5.22,0,6.12,1.8,9.9,8.1,9.9,1.8,0,6.66-1.62,11.34-3.6,2.16-1.62,3.6-2.7,3.96-4.86.18-2.16.54-9,.54-11.52,0-1.26-.36-1.98-.9-1.98Z"/>
      <path class="cls-1" d="M497.71,101.7c0-5.04-6.84-13.32-14.22-13.32-1.08,0-2.88.54-4.5,1.62-5.4,3.78-8.28,12.78-8.1,20.34,8.46-2.34,16.74-3.6,24.84-5.76,1.08-.18,1.98-.9,1.98-2.88Z"/>
      <path class="cls-2" d="M172.63,145.44c-2.16-.54-3.24-1.98-3.42-4.5-.16-2.83-.31-7.45-.47-27.54h-15.19c0,18.04-.54,24.67-1.26,27.36-1.44,5.4-6.12,6.84-14.94,7.92,0,1.08,1.08,4.86,1.44,5.58.54.18,1.62.18,3.42-.18,2.7-.18,11.52-1.08,21.24-1.08,5.67,0,10.6.02,14.9.05v-6.55c-2.42-.23-4.33-.57-5.72-1.06Z"/>
      <path class="cls-3" d="M224.29,124.38c-.54,0-.72.18-.9.9-1.26,5.58-2.7,9-4.68,12.06-5.94,9.18-17.46,9.54-29.34,9.54-4.43,0-8.1-.11-11.02-.38v6.55c18.76.13,25.72.49,31.72.49,7.56,0,9.54,0,11.34-.18,1.44-.18,2.7-.9,3.06-2.7,1.26-7.74,3.24-15.48,5.4-22.86.18-.72.18-1.26-.54-1.98-.9-.54-4.14-1.44-5.04-1.44Z"/>
      <path class="cls-3" d="M168.67,103.68l-.18-21.78c-.18-14.58.36-26.64.9-31.86.9-7.38,5.22-8.28,16.02-9.54,0-1.44-.54-4.86-1.26-5.4-9.36.54-18.9.9-28.08,1.08-5.76.18-11.34.18-16.74.18-.36,0-.72,0-.9.9l-1.44,3.24c-.36,1.08.18,2.16.9,2.16,12.6-.18,14.04.54,14.58,4.68.54,3.96,1.08,13.68,1.08,28.98v36.9c0,.06,0,.12,0,.18h15.19c-.02-2.9-.05-6.13-.07-9.72Z"/>
      <path class="cls-2" d="M245.17,97.56c-1.08,1.62-1.62,3.06-1.62,4.14,0,.9,1.44,2.34,2.16,2.34,1.08,0,2.16-.18,3.24-.54l9.54-2.88c1.08-.36,1.08-1.08,1.08-2.34,0-5.76.54-7.02,1.26-7.56.88-.44,2.73-.99,5.33-1.18l-1.65-5.67c-5.59,2.51-16.43,9.18-19.33,13.7Z"/>
      <path class="cls-3" d="M307.27,144c-.54.18-5.58,2.52-8.82,2.52-2.7,0-4.5-3.42-4.32-13.14,0-11.88.36-24.48.36-37.08,0-2.34-.36-5.58-3.42-8.82-2.88-3.24-7.02-6.48-14.94-6.48-2.88,0-6.12.72-9.9,2.16-.49.17-1.07.41-1.73.7l1.65,5.67c.59-.04,1.21-.07,1.87-.07,4.14,0,8.64,1.44,10.08,2.88,1.62,1.44,3.06,5.58,3.06,13.14,0,3.6,0,10.62-.54,12.96-10.62,1.8-21.6,4.68-30.96,9.54-4.86,2.52-7.74,5.58-7.74,9.36,0,7.2,2.88,11.88,5.22,14.04,4.14,3.06,7.74,3.6,10.26,3.6,2.16,0,15.84-5.94,22.68-9,1.62,7.74,4.32,9.36,7.56,9.36,6.12,0,17.82-3.24,19.98-4.5.72-.36,1.08-1.08,1.08-1.98l.36-3.06c0-.72-1.26-2.16-1.8-1.8ZM280.45,137.34c-.36,2.16-1.8,3.24-3.96,4.86-4.68,1.98-9.54,3.6-11.34,3.6-6.3,0-8.1-3.78-8.1-9.9,0-3.24.72-4.5,1.8-5.22,3.96-3.06,10.44-5.22,21.24-6.84.54,0,.9.72.9,1.98,0,2.52-.36,9.36-.54,11.52Z"/>
      <path class="cls-3" d="M360.01,82.62c-1.62,0-3.6,1.26-5.22,2.52-2.16,1.62-13.14,10.62-16.92,12.24,0-5.58.36-8.82.72-13.5.36-1.62-.54-2.88-1.26-2.88-.54,0-1.44.18-2.34.72-5.4,3.78-12.78,7.38-19.8,11.7-.18,1.26.72,3.6,2.16,4.14,7.02,1.98,7.38,3.06,7.38,7.38v13.23h13.32v-3.51c0-8.46.36-10.8,1.62-11.88,3.06-2.88,8.1-6.12,12.06-6.12,2.88,0,5.4,2.16,6.84,4.14.54.9,1.26,1.26,2.34,1.26.9,0,1.98-.72,3.06-1.44,1.62-1.44,5.94-6.66,5.94-9.36,0-4.14-5.04-8.64-9.9-8.64Z"/>
      <path class="cls-2" d="M324.73,120.78c0,15.66-.18,20.52-.54,22.5-.36,2.34-1.08,2.88-5.4,4.32l-1.62,4.14c-.36,1.08,0,1.62.72,1.62,1.26,0,5.76-.36,10.44-.36h23.76l1.08-5.58c0-.72-.72-1.62-1.44-1.62l-9.9.36c-1.8.18-2.52-.36-3.06-1.26s-.72-3.24-.72-7.74v-18.99h-13.32v2.61Z"/>
      <path class="cls-3" d="M446.77,83.34c-3.6,0-14.22,2.16-17.1,2.16-.54,0-1.98,0-3.24-.72-3.24-1.8-8.82-3.78-13.68-3.78-7.56,0-14.22,3.42-20.16,7.38-8.1,5.76-14.04,13.32-14.04,24.12,0,7.02,3.06,13.68,8.1,18.18,4.5,3.96,9,5.94,14.4,7.2-7.38,3.6-15.3,7.92-17.1,9.36-1.08,1.44-1.26,2.16-1.26,3.78,0,5.4,4.32,7.74,12.24,11.34-5.58,3.6-9.18,5.94-13.5,9.18-4.5,3.06-6.84,8.1-6.84,14.04,0,7.2,7.74,16.74,27.18,16.74,5.22,0,13.5-1.26,17.64-2.7,4.5-1.8,12.78-5.04,22.14-16.2,4.86-5.76,6.48-8.82,6.48-14.58,0-6.12-2.34-10.62-5.04-12.6-6.12-4.5-13.14-5.58-20.52-5.58-1.62,0-12.96.36-15.12.36-4.86,0-9.18-1.44-9.18-4.68,0-.72.54-1.98,1.62-2.52,3.96-1.98,8.1-4.14,14.76-6.66,13.86-5.58,23.04-16.74,23.04-29.34,0-4.86-1.98-9.72-4.86-14.22,7.92.18,13.32,0,15.3,0,2.16,0,3.06-1.26,3.06-2.16,0-.72-.54-5.04-.72-5.76-.18-.72-2.16-2.34-3.6-2.34ZM400.69,164.69c4.32-1.08,11.88-1.62,18.18-1.62s11.34,1.08,15.48,3.78c3.6,2.7,3.78,5.58,3.78,8.1,0,4.32-2.7,7.92-6.3,10.98-4.68,4.32-12.06,6.84-22.68,6.84-18,0-21.96-9.18-21.96-12.42,0-2.7,1.8-7.56,6.48-11.34,2.88-2.7,5.22-3.96,7.02-4.32ZM412.75,130.32c-3.24,0-7.56-1.08-13.32-6.12-5.22-4.5-8.1-12.6-8.1-19.62,0-5.04,1.44-9.54,4.68-12.24,2.88-2.7,5.94-3.96,9.18-3.96,7.92,0,13.32,4.5,15.84,8.64,3.06,4.86,4.5,11.34,4.5,17.28,0,12.06-6.3,16.02-12.78,16.02Z"/>
      <path class="cls-3" d="M471.25,115.74c7.74-2.34,30.78-6.66,43.2-9.54,1.62-.54,2.88-3.78,3.24-5.4.36-.72.36-1.26-.18-1.62-.54-.54-3.96.18-5.76.54-1.62-4.86-3.96-8.64-7.02-11.88-3.06-3.06-9.36-6.3-15.3-6.3-4.86,0-11.34,2.34-16.02,5.58-9.54,7.02-18.72,18.9-18.72,34.74,0,11.7,5.22,19.62,7.92,22.68,2.34,2.52,10.26,10.08,23.04,10.08,1.8,0,4.32-.18,6.66-.9,5.94-1.8,14.58-5.4,22.32-11.88,1.08-1.08,1.26-2.34,1.62-6.66,0-.54-2.16-.54-2.88.18-6.12,5.4-13.14,8.82-21.42,8.82-12.06,0-21.42-7.56-21.96-25.2,0-1.98.36-3.06,1.26-3.24ZM478.99,90c1.62-1.08,3.42-1.62,4.5-1.62,7.38,0,14.22,8.28,14.22,13.32,0,1.98-.9,2.7-1.98,2.88-8.1,2.16-16.38,3.42-24.84,5.76-.18-7.56,2.7-16.56,8.1-20.34Z"/>
    </g>
  </g>
</svg>