<?xml version="1.0" encoding="UTF-8"?>
<svg id="Layer_1" data-name="Layer 1" xmlns="http://www.w3.org/2000/svg" viewBox="0 0 740 400">
  <defs>
    <style>
      .cls-1 {
        fill: #000;
        stroke-width: 0px;
      }
    </style>
  </defs>
  <path class="cls-1" d="M21.46,138.77h3.42c8.31,0,11.74-2.44,14.34-10.43l30.32-85.9h22.98l32.27,85.9c3.26,9.13,4.89,10.43,13.04,10.43h3.26v12.39h-56.07v-12.39h8.8c7.01,0,8.96-.81,8.96-4.07,0-.98-.65-3.26-1.47-5.38l-4.56-12.71h-35.86l-4.89,13.53c-.81,2.28-1.14,3.91-1.14,5.05,0,2.93,1.63,3.59,8.64,3.59h8.48v12.39H21.46v-12.39ZM78.18,66.08l-12.88,37.81h26.89l-14.02-37.81Z"/>
  <path class="cls-1" d="M144.52,138.77h6.36c9.45.16,10.59-1.14,10.59-10.11v-63.73c0-8.96-1.14-10.27-10.59-10.11h-6.36v-12.39h100.89v45.15h-12.39c-.49-27.06-5.87-33.09-28.52-32.76h-20.21v33.41h2.77c14.51-.33,15.65-1.79,17.28-19.72h12.39v54.28h-12.39c-1.3-19.4-3.59-22.49-17.11-22.17h-2.93v28.04c0,8.96,1.14,10.27,10.76,10.11h7.66v12.39h-58.19v-12.39Z"/>
  <path class="cls-1" d="M344.84,142.68c-13.37,9.29-19.89,11.57-33.25,11.57-31.13,0-54.11-24.45-54.11-57.54s23.31-57.54,54.11-57.54c13.37,0,19.72,2.44,32.11,11.9l4.4-9.29h11.41v42.38h-12.39c-2.77-11.41-5.05-16.3-10.11-21.68-6.03-6.68-13.85-10.11-22.49-10.11-19.4,0-31.62,17.28-31.62,44.5s12.06,43.03,32.76,43.03c7.33,0,14.18-2.28,19.07-6.36,3.91-3.42,5.22-6.68,5.22-13.2v-6.03c.16-8.31-1.14-9.13-12.39-8.96h-6.85v-12.39h57.37v12.39h-6.85c-7.82.16-8.64,1.14-8.8,10.11v36.35h-11.9l-5.7-9.13Z"/>
  <path class="cls-1" d="M412.65,42.44h57.05v12.39h-4.89c-9.45-.16-10.6,1.14-10.6,9.94v51.67c0,15.65-1.96,22.33-8.15,28.36-6.36,6.19-16.3,9.62-27.87,9.62-20.21,0-34.39-11.25-34.39-27.38,0-9.78,5.87-15.97,15.32-15.97,7.82,0,13.04,5.22,13.04,13.04,0,6.85-3.26,10.76-10.92,13.04,5.05,3.75,7.66,4.73,13.37,4.73s10.6-1.96,13.2-5.54c2.45-3.26,3.1-7.01,3.1-16.63v-54.93c0-8.8-1.14-10.11-10.59-9.94h-7.66v-12.39Z"/>
  <path class="cls-1" d="M608.74,129.97c-.16,14.51-1.79,21.03-6.85,26.41-3.75,3.91-9.29,6.03-15.65,6.03-7.82,0-12.22-2.44-22.49-12.39-10.92,3.42-16.14,4.24-24.77,4.24-35.7,0-59.66-23.15-59.66-57.37s23.96-57.54,59.82-57.54,59.82,23.15,59.82,57.21c0,17.28-5.54,30.64-17.44,41.73,3.91,4.73,6.68,6.52,10.27,6.52,2.28,0,3.91-1.47,5.05-4.07.65-1.79.82-3.59,1.47-10.76h10.43ZM516.81,127.04c0-12.71,7.33-20.05,20.38-20.05,11.08,0,18.91,4.07,32.11,16.63,4.07-8.96,5.38-14.83,5.38-25.59,0-28.85-12.88-45.8-35.04-45.8s-35.04,16.79-35.04,44.5c0,8.96,1.3,17.11,4.08,23.63,1.79,4.56,3.59,7.01,8.15,10.92v-4.24ZM535.39,121.5c-5.71,0-9.62,4.07-9.62,9.78,0,6.36,5.22,10.92,12.55,10.92,6.36,0,11.08-1.47,15.97-5.05-6.52-11.41-11.57-15.65-18.91-15.65Z"/>
  <path class="cls-1" d="M652.26,54.5c-19.56-.49-26.73,8.15-27.22,32.92h-12.39v-44.99h102.2v44.99h-12.39c-.49-24.77-7.5-33.25-27.38-32.92v74.33c-.16,8.8,1.14,10.11,10.76,9.94h9.45v12.39h-63.08v-12.39h9.29c9.62.16,10.76-1.14,10.76-9.94V54.5Z"/>
  <path class="cls-1" d="M97.82,318.24c-.16,12.55-.65,16.62-2.28,20.86-3.1,7.01-8.8,10.43-17.93,10.43-9.62,0-14.18-3.26-17.44-12.06-7.99,9.13-14.51,12.22-26.08,12.22-13.85,0-23.31-8.48-23.31-20.86,0-8.31,4.4-15.32,12.22-19.07,5.38-2.77,11.25-4.73,23.15-7.5,10.59-2.61,14.18-5.87,14.18-13.04,0-8.48-5.87-12.88-17.11-12.88-6.52,0-10.43,1.3-15.16,4.73,7.66.49,10.76,3.1,10.76,8.96s-4.56,10.27-11.25,10.27c-7.66,0-12.88-5.22-12.88-12.71,0-12.06,12.55-20.05,31.46-20.05,10.59,0,20.21,2.28,25.1,5.87,6.52,4.73,7.99,8.96,7.99,23.15v33.9c0,3.91,1.3,5.7,3.91,5.7,3.75,0,4.89-3.91,4.89-16.14v-1.79h9.78ZM59.68,306.83c-3.75,1.96-6.52,3.26-7.82,3.75l-8.31,3.26c-7.01,2.77-10.92,7.5-10.92,13.04,0,5.87,3.59,9.29,9.94,9.29,4.73,0,8.96-1.79,12.06-4.89,3.75-3.75,5.05-7.99,5.05-15.16v-9.29Z"/>
  <path class="cls-1" d="M102.38,281.89v-11.25h14.51v-2.61c0-22,9.29-32.76,28.2-32.76,13.85,0,23.31,6.85,23.31,16.95,0,7.33-4.24,12.06-10.92,12.06-6.03,0-10.27-3.91-10.27-9.45,0-4.56,2.28-7.5,6.85-8.96-2.28-1.79-3.91-2.28-6.85-2.28-7.99,0-10.76,4.08-10.76,15.97v11.08h16.63v11.25h-16.63v44.33c0,7.99,1.14,9.29,9.29,9.62h7.33v10.92h-50.69v-10.92h4.73c8.64-.33,9.78-1.47,9.78-9.62v-44.33h-14.51Z"/>
  <path class="cls-1" d="M214.2,333.56c13.2,0,19.56.98,25.26,4.08,6.19,3.42,10.27,10.27,10.27,17.77,0,8.31-4.89,16.14-12.06,19.89-8.15,4.07-20.7,6.36-35.04,6.36-25.26,0-40.26-7.01-40.26-18.74,0-7.01,3.75-10.43,15-14.02-9.13-2.93-13.04-7.17-13.04-14.51s4.08-11.9,14.34-16.14c-8.31-7.82-11.08-13.37-11.08-21.84,0-17.44,14.34-28.85,36.19-28.85,10.92,0,17.77,1.96,26.73,7.33,5.71-5.54,9.62-7.33,15.97-7.33,10.76,0,17.6,6.19,17.6,16.14,0,6.68-4.4,11.57-10.59,11.57-5.87,0-10.43-4.24-10.43-9.78,0-4.73,2.28-7.33,7.66-8.96-2.28-1.63-3.42-2.12-5.38-2.12-3.91,0-6.85,1.79-10.76,6.68,3.42,6.68,4.4,10.11,4.4,15.48,0,17.77-13.53,28.69-35.7,28.69-5.7,0-9.45-.65-17.6-2.77-3.1,2.28-4.08,3.59-4.08,5.54,0,3.91,3.1,5.54,10.43,5.54h22.17ZM180.46,354.09c-2.61,1.79-4.08,4.4-4.08,7.17,0,7.5,8.31,11.08,25.1,11.08,17.93,0,26.89-4.07,26.89-11.9,0-7.33-5.87-9.62-24.77-9.62-13.04,0-20.05.98-23.15,3.26ZM188.94,295.42c0,13.69,4.24,19.56,14.18,19.56s14.51-5.71,14.51-18.58-4.4-19.4-14.51-19.4-14.18,5.87-14.18,18.42Z"/>
  <path class="cls-1" d="M263.92,238.04h33.09v45.64c10.11-11.74,17.11-15.81,27.38-15.81,7.01,0,14.18,2.61,18.26,6.68,4.07,4.08,5.54,9.94,5.54,21.52v30.15c0,8.15,1.14,9.29,9.29,9.62h4.56v10.92h-45.8v-10.92h3.26c7.99-.33,9.13-1.47,9.13-9.62v-30.15c0-6.68-.49-8.96-2.28-11.41-1.96-2.61-5.54-4.24-9.62-4.24-5.71,0-11.25,2.93-15,7.99-3.59,4.56-4.73,9.29-4.73,18.74v19.07c0,8.15,1.14,9.29,9.29,9.62h3.26v10.92h-45.64v-10.92h4.24c8.15-.33,9.29-1.47,9.29-9.62v-67.64c0-8.15-1.14-9.29-9.29-9.62h-4.24v-10.92Z"/>
  <path class="cls-1" d="M367.58,270.32h35.53v80.68c0,10.92-1.3,16.79-4.56,21.19-4.4,5.87-12.55,9.45-22,9.45-12.71,0-22.17-7.01-22.17-16.46,0-6.68,4.73-11.41,11.41-11.41,6.03,0,9.78,3.59,9.78,9.29,0,5.22-2.45,7.66-8.64,8.8,3.26,1.14,5.38,1.63,7.01,1.63,3.1,0,6.19-1.79,7.66-4.4,1.47-2.77,1.79-5.22,1.79-12.88v-65.36c0-7.99-1.14-9.29-9.45-9.62h-6.36v-10.92ZM403.77,248.8c0,6.68-5.38,12.06-11.9,12.06-6.85,0-12.22-5.38-12.22-12.39,0-6.36,5.54-11.74,12.06-11.74s12.06,5.38,12.06,12.06Z"/>
  <path class="cls-1" d="M472.39,346.76h-51.51v-10.92h5.22c8.15-.49,9.29-1.63,9.29-9.62v-35.37c0-8.15-1.14-9.29-9.29-9.62h-5.22v-10.92h34.07v11.41c6.19-9.78,11.9-13.53,20.7-13.53,11.08,0,19.23,7.33,19.23,17.44,0,7.99-5.38,13.69-13.04,13.69-6.68,0-11.08-3.91-11.08-9.94,0-5.54,2.77-8.64,9.78-10.92-2.93-.98-5.54-1.63-7.17-1.63-4.4,0-9.78,3.42-13.2,8.48-3.26,4.89-5.22,12.39-5.22,20.21v20.7c0,7.99,1.14,9.29,9.29,9.62h8.15v10.92Z"/>
  <path class="cls-1" d="M502.38,316.44h11.9c2.77,9.94,5.87,14.67,12.39,18.25,3.75,1.96,8.15,3.1,13.2,3.1,8.31,0,13.69-3.75,13.69-9.78,0-4.89-3.91-7.82-13.53-10.11l-11.9-2.77c-16.79-4.07-24.94-11.74-24.94-23.63,0-14.34,11.9-23.96,29.83-23.96,8.64,0,14.83,2.12,23.14,7.66l3.42-5.87h9.29v28.2h-10.92c-2.45-7.01-4.4-10.27-8.31-13.2-3.75-3.1-10.27-5.22-15.65-5.22-7.33,0-12.06,3.42-12.06,8.8,0,4.24,2.93,6.85,9.13,8.31l14.51,3.42c19.23,4.56,27.38,12.06,27.38,25.1,0,15.32-11.74,24.77-30.97,24.77-10.11,0-14.83-1.63-25.92-8.64l-2.93,6.84h-10.76v-31.29Z"/>
  <path class="cls-1" d="M578.99,281.56v-10.6c15.48-3.42,20.21-9.78,22.17-30.64h10.27v29.99h21.03v11.25h-21.35v43.52c0,7.17,1.47,9.45,5.71,9.45,3.75,0,5.87-1.79,6.52-5.87.82-3.59.82-4.89.98-17.93h10.59v5.71c0,11.73-.82,17.28-3.59,22.82-3.26,6.68-10.11,10.27-19.4,10.27-7.66,0-13.2-2.61-16.63-7.99-2.77-4.4-3.75-8.96-3.75-18.74v-41.24h-12.55Z"/>
  <path class="cls-1" d="M658.37,291.02c-3.42-7.33-5.87-9.45-11.9-9.78h-4.89v-10.92h46.78v10.92h-5.54c-3.75,0-5.87,1.3-5.71,3.59,0,1.3.33,2.61.98,3.91l15,35.21,13.37-33.74c.65-1.79,1.14-3.59,1.14-4.89,0-2.93-2.12-4.07-7.17-4.07h-4.4v-10.92h39.12v10.92h-3.59c-5.54.33-7.99,2.77-11.9,11.57l-18.25,44.82c-14.02,34.88-21.84,44.01-37.65,44.01-13.04,0-22.66-8.64-22.66-20.37,0-8.64,5.54-14.51,13.37-14.51,6.52,0,11.25,4.56,11.25,10.76s-3.91,9.62-11.9,9.62c3.1,3.1,4.73,3.91,8.15,3.91,8.8,0,13.69-5.54,21.35-24.29l-24.94-55.74Z"/>
</svg>