<?xml version="1.0" encoding="UTF-8"?>
<svg id="Layer_2" data-name="Layer 2" xmlns="http://www.w3.org/2000/svg" viewBox="0 0 548.41 215.08">
  <defs>
    <style>
      .cls-1, .cls-2, .cls-3 {
        stroke-width: 0px;
      }

      .cls-1, .cls-4 {
        fill: none;
      }

      .cls-2 {
        fill: #40b8e9;
      }

      .cls-3 {
        fill: #000;
      }

      .cls-4 {
        stroke: #000;
        stroke-miterlimit: 10;
      }
    </style>
  </defs>
  <g id="Layer_2-2" data-name="Layer 2">
    <g>
      <g>
        <path class="cls-1" d="M359.41,71.64c-10.62,0-15.66,6.48-15.66,20.34,0,15.12,4.68,21.6,15.66,21.6s16.02-6.3,16.02-20.52-4.86-21.42-16.02-21.42Z"/>
        <path class="cls-1" d="M329.89,164.7c0,8.28,9.18,12.24,27.72,12.24,19.8,0,29.7-4.5,29.7-13.14,0-8.1-6.48-10.62-27.36-10.62-14.4,0-22.14,1.08-25.56,3.6-2.88,1.98-4.5,4.86-4.5,7.92Z"/>
        <path class="cls-1" d="M161.77,112.32c-7.74,3.06-12.06,8.28-12.06,14.4,0,6.48,3.96,10.26,10.98,10.26,5.22,0,9.9-1.98,13.32-5.4,4.14-4.14,5.58-8.82,5.58-16.74v-10.26c-4.14,2.16-7.2,3.6-8.64,4.14l-9.18,3.6Z"/>
        <path class="cls-1" d="M476.59,73.08c-10.62,0-16.38,6.66-19.26,22.5h35.82c-1.98-16.56-6.3-22.5-16.56-22.5Z"/>
        <path class="cls-3" d="M44.42,53.28c-.18-9.72,1.26-11.16,11.88-10.98h8.46v-13.68H.5v13.68h7.02c10.44-.18,11.7,1.26,11.7,10.98v60.3h25.2v-60.3Z"/>
        <path class="cls-2" d="M77.98,134.47v14.21h33.94v-51.84h-13.68c-.15,26.22-4.18,35.47-20.26,37.63Z"/>
        <path class="cls-2" d="M44.42,135v-21.42h-25.2v10.44c0,9.72-1.26,11.16-11.7,10.98H.5v13.68h57.27v-13.68h-13.35Z"/>
        <path class="cls-3" d="M66.74,135h-8.97v13.68h20.21v-14.21c-3.24.44-6.96.59-11.24.53Z"/>
        <path class="cls-3" d="M210.91,119.16c0,13.5-1.26,17.82-5.4,17.82-2.88,0-4.32-1.98-4.32-6.3v-37.44c0-15.66-1.62-20.34-8.82-25.56-5.4-3.96-16.02-6.48-27.72-6.48-20.88,0-34.74,8.82-34.74,22.14,0,8.28,5.76,14.04,14.22,14.04,7.38,0,12.42-4.68,12.42-11.34s-3.42-9.36-11.88-9.9c5.22-3.78,9.54-5.22,16.74-5.22,12.42,0,18.9,4.86,18.9,14.22,0,7.92-3.96,11.52-15.66,14.4-13.14,3.06-19.62,5.22-25.56,8.28-8.64,4.14-13.5,11.88-13.5,21.06,0,13.68,10.44,23.04,25.74,23.04,12.78,0,19.98-3.42,28.8-13.5,3.6,9.72,8.64,13.32,19.26,13.32s16.38-3.78,19.8-11.52c1.8-4.68,2.34-9.18,2.52-23.04h-10.8v1.98ZM179.59,114.84c0,7.92-1.44,12.6-5.58,16.74-3.42,3.42-8.1,5.4-13.32,5.4-7.02,0-10.98-3.78-10.98-10.26,0-6.12,4.32-11.34,12.06-14.4l9.18-3.6c1.44-.54,4.5-1.98,8.64-4.14v10.26Z"/>
        <path class="cls-3" d="M287.23,61.92c-9.72,0-16.02,4.14-22.86,14.94v-12.6h-37.62v12.06h5.76c9,.36,10.26,1.62,10.26,10.62v39.06c0,8.82-1.26,10.08-10.26,10.62h-5.76v12.06h56.88v-12.06h-9c-9-.36-10.26-1.8-10.26-10.62v-22.86c0-8.64,2.16-16.92,5.76-22.32,3.78-5.58,9.72-9.36,14.58-9.36,1.8,0,4.68.72,7.92,1.8-7.74,2.52-10.8,5.94-10.8,12.06,0,6.66,4.86,10.98,12.24,10.98,8.46,0,14.4-6.3,14.4-15.12,0-11.16-9-19.26-21.24-19.26Z"/>
        <path class="cls-3" d="M407.29,61.2c-7.02,0-11.34,1.98-17.64,8.1-9.9-5.94-17.46-8.1-29.52-8.1-24.12,0-39.96,12.6-39.96,31.86,0,9.36,3.06,15.48,12.24,24.12-11.34,4.68-15.84,9.72-15.84,17.82s4.32,12.78,14.4,16.02c-12.42,3.96-16.56,7.74-16.56,15.48,0,12.96,16.56,20.7,44.46,20.7,15.84,0,29.7-2.52,38.7-7.02,7.92-4.14,13.32-12.78,13.32-21.96,0-8.28-4.5-15.84-11.34-19.62-6.3-3.42-13.32-4.5-27.9-4.5h-24.48c-8.1,0-11.52-1.8-11.52-6.12,0-2.16,1.08-3.6,4.5-6.12,9,2.34,13.14,3.06,19.44,3.06,24.48,0,39.42-12.06,39.42-31.68,0-5.94-1.08-9.72-4.86-17.1,4.32-5.4,7.56-7.38,11.88-7.38.18,0,.35,0,.52.02l6.89-6.89c-1.89-.45-3.94-.69-6.15-.69ZM359.95,153.18c20.88,0,27.36,2.52,27.36,10.62,0,8.64-9.9,13.14-29.7,13.14-18.54,0-27.72-3.96-27.72-12.24,0-3.06,1.62-5.94,4.5-7.92,3.42-2.52,11.16-3.6,25.56-3.6ZM359.41,113.58c-10.98,0-15.66-6.48-15.66-21.6,0-13.86,5.04-20.34,15.66-20.34,11.16,0,16.02,6.66,16.02,21.42s-4.86,20.52-16.02,20.52Z"/>
        <path class="cls-2" d="M413.44,61.89l-6.89,6.89c1.85.09,3.11.67,5.41,2.32-5.94,1.8-8.46,4.68-8.46,9.9,0,6.12,5.04,10.8,11.52,10.8,6.84,0,11.7-5.4,11.7-12.78,0-8.94-5.01-15.13-13.29-17.13Z"/>
        <path class="cls-3" d="M494.05,133.02c-3.42,2.88-8.82,4.5-14.94,4.5-7.74,0-12.96-2.52-16.92-8.1-3.42-5.04-4.86-9.9-5.58-21.24h60.12c-.72-18-3.06-26.28-9.72-34.38-6.84-8.46-16.92-12.6-30.42-12.6-26.64,0-44.46,18.36-44.46,45.54s17.46,45.18,43.74,45.18c11.16,0,20.34-2.88,27.54-8.64,7.38-5.76,10.44-11.7,12.78-24.66h-14.94c-2.16,8.1-3.96,11.52-7.2,14.4ZM476.59,73.08c10.26,0,14.58,5.94,16.56,22.5h-35.82c2.88-15.84,8.64-22.5,19.26-22.5Z"/>
      </g>
      <line class="cls-4" x1="359.59" y1="38.6" x2="359.59" y2="215.08"/>
      <line class="cls-4" x1="477.24" y1="43.28" x2="477.24" y2="172.4"/>
      <line class="cls-4" x1="520.08" y1="107.84" x2="548.41" y2="107.84"/>
      <line class="cls-4" x1="520.08" y1="118.09" x2="548.41" y2="118.09"/>
      <polyline class="cls-4" points="111.92 14.41 111.92 .5 .5 .5 .5 14.41"/>
      <polyline class="cls-4" points="221.71 14.41 221.71 .5 125.6 .5 125.6 14.41"/>
      <polyline class="cls-4" points="308.47 14.41 308.47 .5 226.76 .5 226.76 14.41"/>
      <polyline class="cls-4" points="415.12 14.41 415.12 .5 314.41 .5 314.41 14.41"/>
      <polyline class="cls-4" points="516.73 14.41 516.73 .5 432.13 .5 432.13 14.41"/>
    </g>
  </g>
</svg>