<?xml version="1.0" encoding="UTF-8"?>
<svg id="Layer_1" data-name="Layer 1" xmlns="http://www.w3.org/2000/svg" viewBox="0 0 650 400">
  <defs>
    <style>
      .cls-1 {
        fill: #000;
        stroke-width: 0px;
      }
    </style>
  </defs>
  <path class="cls-1" d="M82.08,47.66c1.3,4.4,4.07,11.74,7.17,20.21,8.48,23.8,20.7,56.07,23.47,62.75,5.38,13.37,7.99,14.67,15.32,16.46,2.61.81,3.91,1.63,3.91,2.77s-1.14,2.12-5.22,2.12c-5.38,0-13.37-.81-20.54-.81-5.22,0-7.5.33-11.57.33s-5.05-1.14-5.05-1.96.98-2.12,3.91-2.61c7.82-1.63,7.17-4.89,6.52-8.31-1.3-6.68-5.38-17.44-9.13-27.87-.16-.65-.81-1.63-5.54-1.63-8.96,0-23.31.16-26.73.65-.65,0-1.47.81-1.79,1.3-4.24,10.59-8.48,24.45-8.48,28.52,0,1.96.65,4.73,7.99,7.01,2.77.81,4.4,1.79,4.4,2.93,0,1.63-2.44,2.12-4.56,2.12-2.77,0-6.85-.49-12.88-.49s-14.51.81-16.95.81c-2.93,0-3.75-.65-3.75-1.63s1.14-2.44,3.59-3.26c8.15-2.77,10.27-3.26,15-13.85,3.75-8.31,22.33-57.54,29.18-74.16.98-2.28,1.14-3.26,1.47-4.24.16-.49.49-1.47,1.14-2.77.98-1.63,2.77-4.73,3.91-6.52,1.14-1.3,1.79-2.12,2.61-2.12.65,0,1.3.65,2.61,4.24ZM87.29,100.47c-2.77-8.31-11.25-32.76-12.71-35.04-.49-.98-.81-1.14-1.3,0-2.93,7.82-11.41,30.64-12.71,35.7-.16.65.16,1.14.81,1.14,6.52-.16,20.05,0,25.43-.49.16,0,.65-.81.49-1.3Z"/>
  <path class="cls-1" d="M183.79,46.35c9.78,0,24.78-.49,26.08-.49.81-.16,1.96.65,1.96,1.63-.33,4.73.33,10.43.49,15.97.16,2.12-.81,4.4-2.28,4.4-1.3,0-2.61-1.79-3.59-5.05-2.61-7.99-4.4-9.45-9.78-10.27-5.54-.81-21.84-.65-25.26-.33-1.63.16-2.61,1.63-2.61,2.12-.33,3.91-.65,25.26-.65,36.02,0,4.4.81,6.03,1.63,6.03,6.36,0,19.56.16,23.47-.16,5.05-.49,6.52-1.96,8.8-7.5.98-2.28,1.63-3.91,3.1-3.91,1.14,0,1.47,1.63,1.47,3.59,0,2.12-.81,7.33-.81,10.27,0,7.82.33,9.29.33,12.88,0,1.79-.81,3.75-2.44,3.75-.81,0-1.79-1.14-2.45-3.42-1.63-6.19-3.59-7.01-6.68-7.82-1.79-.33-7.66-.81-10.92-.81s-10.92,0-14.34.49c-.49,0-1.14,1.3-1.3,1.96-.16,3.1.49,25.92.65,30.64.16,5.05.49,8.31,11.08,10.27,2.44.49,3.91,1.63,3.91,3.1,0,.98-1.47,1.96-4.56,1.96-4.24,0-9.29-.49-15.48-.49-6.52,0-15.97.98-19.4.98s-4.56-.65-4.56-1.63c0-1.3,1.79-2.61,4.4-3.26,8.8-2.12,9.13-5.87,9.29-7.99.49-5.05,1.3-17.11,1.3-49.39,0-15.32,0-24.94-.33-29.18-.33-5.54-3.1-8.31-10.27-10.11-3.26-.81-4.07-1.63-4.07-2.77,0-1.3,1.96-1.96,4.56-1.96,7.17,0,13.04.49,18.09.49h21.19Z"/>
  <path class="cls-1" d="M315.81,47.01c3.26.65,4.4.81,6.19,1.3.65,0,1.96,1.3,1.96,3.91.16,3.91,2.28,11.74,2.28,17.93,0,2.12-.98,3.59-2.12,3.59-.98,0-1.96-1.3-2.93-3.75-1.63-4.4-3.75-8.31-6.19-11.41-3.59-4.4-13.04-10.11-26.08-10.11-27.87,0-44.33,22.82-44.33,48.57,0,11.57,2.61,21.84,7.33,29.67,8.64,14.67,24.29,22.49,39.44,22.49,1.96,0,10.11-.98,14.67-3.91,1.3-.81,3.42-6.36,3.42-8.48,0-5.7-.16-15-.49-16.95-1.14-3.75-2.45-6.85-14.67-7.66-2.44-.16-4.24-1.47-4.24-2.77,0-1.14,1.79-2.28,4.89-2.28,2.93,0,14.83.65,19.56.65,3.91,0,9.45-.65,14.67-.65,2.61,0,4.4.81,4.4,2.12,0,1.14-1.79,2.12-3.75,2.77-4.89,1.47-5.22,3.26-5.87,5.05-.65,1.79-.81,13.53-.81,20.21,0,2.61,1.47,4.24,2.28,4.73,2.93,1.63,2.77,2.12,2.77,2.93,0,.65-.65,1.79-2.45,2.28-2.93.82-8.48,2.12-14.83,3.91-7.01,1.96-17.11,2.93-22.49,2.93-18.26,0-33.41-5.87-43.36-14.83-7.5-7.17-16.79-20.54-16.79-40.1,0-14.51,5.05-29.34,18.42-41.07,10.27-9.13,25.92-14.67,41.73-14.67,11.9,0,20.54,2.12,27.38,3.59Z"/>
  <path class="cls-1" d="M333.75,171.86c.49-.49,3.1-2.12,3.91-2.12.65,0,3.91,1.14,5.05,1.96,3.1,1.96,6.19,3.42,8.48,3.42,2.77,0,4.24-.49,6.52-3.1,2.61-2.77,4.07-6.68,4.56-13.53.65-10.11.98-27.71.98-50.85s-.33-40.1-.98-47.92c-.33-3.26-1.3-7.33-9.62-8.8-3.75-.65-5.05-1.79-5.05-3.1s1.3-1.96,4.4-1.96c5.05,0,10.92.49,18.09.49,5.71,0,12.06-.49,17.12-.49,1.96,0,4.4.33,4.4,1.63,0,1.63-1.47,2.61-4.89,3.26-6.52,1.3-9.29,3.59-9.29,11.9,0,13.37-.65,59.82-.65,73.84-.16,19.72-9.29,34.07-17.6,40.42-7.5,5.71-14.34,7.82-18.58,7.82-5.38,0-10.59-3.26-10.59-6.36,0-1.47,2.12-4.89,3.75-6.52Z"/>
  <path class="cls-1" d="M517.6,97.37c0,18.91-7.33,31.62-17.11,40.75-5.38,5.05-15.65,11.41-23.31,13.85-.49.16-.82.98-.33,1.63,2.77,3.59,13.2,11.41,20.21,15.81,10.92,6.85,20.37,10.43,28.52,10.43,5.05,0,8.64-1.14,11.25-1.63.98-.16,2.12.33,2.12,1.14s-1.14,2.61-2.44,3.59c-3.91,3.1-11.25,5.54-17.11,5.54-12.06,0-24.61-4.89-35.86-12.22-5.7-3.42-13.53-9.13-23.47-16.79-7.66-5.87-14.34-8.48-18.42-9.78-21.03-6.85-35.04-27.71-35.04-50.37,0-20.7,9.62-36.19,22.17-45.15,8.48-6.03,20.21-10.76,34.23-10.76,29.5,0,54.6,23.31,54.6,53.95ZM438.88,55.48c-10.92,8.64-16.46,21.19-16.46,42.38,0,11.74,4.56,24.78,12.55,34.56,7.01,9.13,22.17,15.81,29.18,15.81,9.46,0,15.65-2.44,20.38-5.54,10.92-7.66,17.44-25.59,17.44-39.61,0-16.95-6.36-32.76-17.11-42.7-6.85-6.68-18.26-11.25-27.55-11.25-5.87,0-12.88,1.96-18.42,6.36Z"/>
  <path class="cls-1" d="M614.92,46.03c5.87-.33,8.8-1.3,11.08-2.93,1.14-.65,1.63-.98,2.28-.98.81,0,1.47,1.47.65,3.75-1.63,5.05-2.61,10.27-3.59,18.74-.16,1.47-1.47,3.1-2.77,3.1-1.14,0-1.79-1.14-2.28-5.22-.98-8.48-3.1-9.29-13.2-9.78-2.77-.16-20.86-.16-22.82.33-.81.16-1.47,1.79-1.47,2.12v39.93c0,18.91,0,34.39.65,40.42.81,7.33,1.63,9.29,11.74,11.57,2.12.49,4.4,1.79,4.4,2.93,0,1.79-2.93,1.96-4.56,1.96-1.3,0-11.41-.81-18.58-.81-8.15,0-16.46,1.14-18.58,1.14-3.26,0-4.89-.98-4.89-1.96,0-1.14,1.63-2.44,3.1-2.77,11.41-2.61,11.74-5.38,12.22-17.6.33-9.62,1.14-42.87,1.14-55.42v-19.4c0-1.3-.81-2.12-1.3-2.12-3.26-.49-17.6-.81-20.21-.81-6.19,0-9.62.98-12.06,3.75-.65.49-2.61,3.1-5.38,8.48-1.47,3.42-2.45,3.26-3.1,3.26-.98,0-1.63-2.12-1.63-3.75,0-3.1,3.1-12.06,3.1-21.68,0-.98,1.47-2.61,2.45-2.61.81,0,.81,1.14,2.61,2.61.49.49,3.1,2.93,5.54,3.1,4.24.49,17.28.98,38.14.98,8.47,0,30.64-.16,37.33-.33Z"/>
  <path class="cls-1" d="M106.53,288.57c2.44,3.42,3.26,6.68,3.26,13.53,0,6.36-.65,26.89-.65,28.69,0,7.5,5.22,8.15,6.52,8.15.65,0,4.4-1.14,6.19-2.44.49-.33.65,0,.98.49.49.49.49,1.47.49,1.63,0,3.1-7.33,10.11-14.67,10.11-3.75,0-8.48-2.12-10.43-8.15,0-.16-.65-.82-.98-.65-6.03,4.24-13.04,7.01-14.67,7.5-1.79.65-5.71.98-6.52.98-5.7,0-11.25-7.01-11.25-15.16,0-2.93,1.3-6.03,3.1-8.31,1.63-2.12,4.07-2.93,6.52-4.07,2.44-.98,15.48-4.56,19.07-5.71,3.75-1.14,4.73-1.96,4.73-2.93.16-1.47.33-11.41.33-13.37,0-4.08-4.73-10.92-12.71-10.92-3.42,0-5.54.98-6.68,1.79-.98.49-1.47,3.42-1.14,6.68,0,.49-.65,1.47-.98,1.79-1.63,1.3-9.78,5.38-10.59,5.38-.98,0-1.96-1.3-1.96-2.12,0-4.73,4.56-9.29,12.22-14.34,4.73-3.42,12.06-6.19,15.16-6.19,8.15,0,12.22,4.07,14.67,7.66ZM95.78,337.14c.98-.65,1.96-3.75,1.96-4.07.33-3.91.33-9.45.33-12.71,0-.49-.65-1.3-1.3-1.3-4.56,0-12.39,2.77-16.79,4.89-1.63,1.14-3.26,2.28-3.26,6.19,0,7.17,6.85,9.78,10.27,9.78,2.44,0,5.7-1.14,8.8-2.77Z"/>
  <path class="cls-1" d="M170.26,283.03c1.14,0,2.28,3.42,2.28,6.85,0,.49-1.63,1.63-2.45,1.63-1.14,0-17.28-.49-19.07-.49-.33,0-1.14.98-1.14,1.3-.33,3.26.16,38.96.49,41.73.65,5.7,1.79,7.17,10.92,8.64,2.77.49,3.75,1.79,3.75,2.44,0,1.63-2.28,1.96-4.24,1.96s-9.45-.33-13.53-.33c-5.87,0-14.67.82-16.3.82-2.28,0-4.07-.65-4.07-1.79,0-.82,1.63-1.96,3.42-2.61,7.01-1.96,7.17-3.59,7.33-10.92.16-6.68.33-26.24.33-35.04,0-5.54-.98-6.03-1.63-6.03-1.63,0-5.05,0-6.85.33-.81,0-1.96-1.63-1.47-2.77.16-.65,4.24-2.45,7.99-5.38,1.14-.98,2.12-1.96,2.12-2.77.33-9.78,1.14-17.28,4.07-24.29,3.42-8.15,7.5-14.02,14.67-19.23,6.52-4.89,12.39-6.68,18.58-6.68,3.42,0,7.82.98,10.43,3.1,1.63,1.3,2.77,3.59,2.77,5.54,0,2.28-2.12,6.03-4.4,6.85-.81.33-1.96.49-2.93.49-1.14,0-2.12-.98-4.4-3.26-3.1-2.77-7.17-5.05-11.41-5.05-3.91,0-7.17,1.96-10.11,6.68-3.91,6.85-5.38,15.65-5.38,37,0,.65.49,1.47.98,1.47,9.94,0,18.58-.16,19.23-.16Z"/>
  <path class="cls-1" d="M220.47,282.21c1.79.33,3.42.82,4.56.98,3.59.33,15.48.49,18.91,1.3.98.16,1.47,1.14,1.47,1.79,0,2.28-2.28,5.22-2.93,5.22-.98,0-6.85,0-10.92-.33-.65,0-1.14.82-.98,1.3.81,2.45,1.3,5.38,1.3,8.15,0,8.96-2.77,15.65-9.13,20.54-7.17,5.54-13.85,6.19-17.77,6.19-.98,0-4.56-.16-5.7-.16-.98-.16-1.79-.16-2.45.16-1.63.81-5.22,4.24-5.22,5.54,0,4.24,4.89,7.17,6.68,7.33,7.17.33,24.77.49,29.99,1.3,1.3.16,4.89,1.63,7.82,3.91,4.56,3.91,6.85,10.11,6.85,14.34,0,12.22-8.31,20.54-15.32,25.1-8.96,5.87-17.6,7.01-23.47,7.01s-13.53-.98-20.37-6.03c-4.56-3.59-7.5-9.62-7.5-14.18,0-7.17,3.26-9.13,4.73-10.27,4.07-3.42,9.13-7.01,11.25-8.8.33-.33,0-.82-.49-1.14-1.14-.65-4.24-1.63-6.36-3.26-3.26-2.28-5.54-6.85-5.54-12.06,0-.33.49-1.14.81-1.47,2.44-1.96,9.45-5.87,12.06-8.48.33-.33-.16-.98-.65-1.47-4.56-2.61-12.39-8.8-12.39-20.7,0-7.99,3.59-13.85,9.94-18.58,4.56-3.42,10.27-5.22,16.63-5.22s9.45.82,14.18,1.96ZM223.07,382.13c6.52-4.24,8.96-10.43,8.96-15.16,0-2.12-.33-5.87-2.28-8.48-1.63-2.12-4.73-4.24-8.64-5.05-4.4-.81-9.62-.81-16.46-.81-5.22,0-7.82.98-8.8,1.63-5.22,3.59-7.33,9.62-7.33,13.37,0,5.22,2.28,9.45,5.7,12.39,4.4,3.42,9.94,5.05,15.97,5.05,6.36,0,11.08-1.96,12.88-2.93ZM196.83,288.24c-2.44,2.61-4.24,6.85-4.24,14.51,0,8.15,5.54,20.37,16.14,20.37,1.14,0,3.1-.81,5.38-2.28,4.07-2.61,6.19-10.59,6.19-17.28,0-2.93-.98-8.31-3.59-12.22-3.1-4.56-7.01-7.17-11.74-7.17-2.93,0-6.68,2.12-8.15,4.07Z"/>
  <path class="cls-1" d="M309.13,288.41c3.26,4.4,4.73,10.59,4.73,17.6.16,10.27.49,20.37.65,30.15,0,4.08,2.12,5.38,6.36,6.36,3.26.65,4.56,1.63,4.56,2.61,0,1.47-1.3,2.12-4.4,2.12-5.54,0-7.33-.49-12.88-.49-3.75,0-7.01.33-11.74.33-2.44,0-3.26-.82-3.26-1.96,0-.98,1.47-1.79,3.42-2.28,4.07-1.3,4.56-1.79,5.22-7.99.33-3.1,0-21.03,0-23.63,0-8.96-.81-14.18-2.61-16.3-2.61-3.1-6.85-5.38-13.2-5.38-7.01,0-12.39,3.1-13.04,3.75-.33.33-2.44,2.93-2.61,7.99-.49,6.85-.49,28.04-.33,33.9.33,5.38,2.61,6.36,6.36,7.33,2.28.65,3.59,1.79,3.59,2.61,0,1.47-1.79,1.96-4.07,1.96-1.3,0-9.45-.33-13.37-.33s-9.62.49-12.39.49c-1.47,0-3.75-.49-3.75-2.12,0-.82,1.3-1.79,4.73-2.77,4.24-1.47,5.87-3.26,6.36-9.29.49-6.85,1.63-28.85,1.63-45.31,0-6.52.16-34.07-.49-38.79-.49-4.24-.81-4.56-5.38-7.5-.65-.33-1.63-1.96-1.63-3.26,0-.33.16-.65.49-.81,5.05-1.47,12.39-3.1,16.3-5.71.65-.33,2.12-1.14,3.1-1.14.65,0,.98,1.3.98,1.79-1.63,11.74-2.28,52.32-2.28,57.05,0,.98.98,1.14,1.14.98,6.68-6.03,13.69-9.45,20.54-9.45,8.15,0,13.85,2.77,17.28,7.5Z"/>
  <path class="cls-1" d="M335.7,286.62c3.91-1.14,12.55-3.75,15.32-5.22,1.14-.65,1.96-.81,2.77-.81.16,0,1.14,1.3,1.14,1.79-.33,9.13-.65,54.77-.82,58.84-.33,13.37-3.1,23.31-7.17,30.15-3.91,6.68-9.13,12.39-15.32,16.79-2.61,1.96-4.73,2.93-5.54,2.93s-2.77-.16-3.59-.81c-.33-.49-.16-1.47.16-1.79,6.19-3.91,8.96-6.36,10.43-8.15,4.4-5.54,8.8-16.46,8.8-40.75,0-7.82,0-38.47-.65-43.03-.16-1.3-.98-2.61-6.68-5.87-.65-.33-1.63-.98-1.63-1.63s1.3-1.96,2.77-2.44ZM355.59,255.81c0,6.03-5.05,7.99-7.99,7.99-2.77,0-7.66-3.26-7.82-7.82,0-2.44,1.3-5.05,3.1-6.68.98-.98,2.12-1.47,4.08-1.47,6.68,0,8.64,5.87,8.64,7.99Z"/>
  <path class="cls-1" d="M375.47,286.62c5.38-1.79,10.43-4.24,12.06-5.22,1.96-1.3,2.77-1.96,3.26-1.96.65,0,1.47,1.47,1.47,1.96,0,2.93-.33,5.87-.33,8.96,0,.65.81.82,1.14.65,6.36-6.03,13.53-10.11,18.58-10.11,6.68,0,8.15,4.07,8.15,5.54,0,.33-.49,1.47-.98,2.28-1.79,2.61-5.7,7.01-6.68,7.5-.33.16-1.79-.16-2.28-.49-1.79-1.63-5.7-3.59-8.96-3.59-2.77,0-5.54.49-7.17,2.28-1.14,1.3-1.63,2.77-1.63,3.59,0,3.26.82,32.76.98,35.21.33,4.73,1.3,7.82,4.24,8.31,2.12.49,5.05,1.3,7.5,1.96,2.61.81,2.93,1.96,2.93,2.61,0,.82-1.47,1.47-3.91,1.47-4.08,0-9.78-.82-19.23-.82-4.89,0-6.85.65-10.76.65-1.79,0-3.42-.65-3.42-1.96,0-.98,1.96-1.63,3.26-2.12,6.36-2.12,6.85-3.75,7.01-13.53v-31.13c0-1.63,0-3.75-1.79-4.89-3.91-3.1-5.54-3.75-5.54-4.4,0-.49.33-2.12,2.12-2.77Z"/>
  <path class="cls-1" d="M458.93,281.89c1.79.33,4.89,1.63,5.21,1.79.33.16,1.3,1.3,1.3,2.28,0,2.93.49,8.48.49,9.62,0,1.47-.65,2.93-1.96,2.93-.65,0-1.63-.98-2.45-2.77-3.59-7.66-7.66-10.92-13.04-10.92-6.68,0-9.78,6.68-9.78,10.11,0,5.54,5.22,9.78,16.14,15.81,9.13,5.38,12.71,10.92,12.71,18.25s-5.38,13.04-9.45,15.97c-2.93,1.96-8.64,3.75-13.69,3.75s-13.04-1.3-15.81-3.59c-.49-.82-2.45-7.66-2.45-12.39,0-1.79.33-3.42,1.3-3.42,1.3,0,2.45,1.96,3.42,3.75,4.56,8.31,8.96,11.57,14.83,11.57,2.12,0,4.73-1.14,6.52-2.45,2.45-1.96,3.75-5.87,3.75-8.96,0-4.4-2.28-7.82-7.33-10.92-3.91-2.77-4.89-3.59-9.94-6.85-4.89-3.1-10.11-8.8-10.11-16.46,0-5.54,2.77-10.92,8.96-14.67,3.1-1.96,7.5-3.42,13.04-3.42,3.1,0,6.52.49,8.31.98Z"/>
  <path class="cls-1" d="M518.58,282.54c.16,0,1.79.82,1.79,1.3,0-.49.49,4.08.49,6.19,0,1.47-3.1,1.79-4.24,1.79h-17.77c-.82,0-1.47.82-1.47,1.14-.16,3.26-.33,27.22-.33,35.04,0,4.07.98,6.19,2.77,7.99,3.1,2.77,6.52,3.1,9.94,3.1,2.12,0,5.54-.98,7.99-2.45,1.47-.81,1.79-.98,2.45-.98.16,0,.98.33.98,1.79,0,1.3-1.14,2.93-2.28,4.08-4.4,4.24-10.11,7.17-17.44,7.17-6.68,0-12.39-4.08-14.34-7.66-1.79-2.77-2.12-6.19-2.12-10.76,0-6.03.65-30.48.65-36.18,0-1.14-2.93-2.28-6.19-3.26-1.3-.49-2.28-1.3-2.28-1.79,0-.65.49-1.3.98-1.79,5.71-4.56,10.76-8.48,13.04-11.25,1.96-2.28,3.1-3.58,3.75-3.58.81,0,2.28,1.47,2.28,1.79v7.66c0,.49.65,1.3,1.3,1.3,3.59,0,19.4-.65,20.05-.65Z"/>
  <path class="cls-1" d="M530.32,282.54c4.08,0,7.99.65,12.71.65s9.45-.33,11.41-.33c1.3,0,3.59.49,3.59,1.79,0,1.14-1.14,2.12-3.75,2.77-4.56,1.3-5.05,2.12-3.42,6.36,2.44,7.82,12.88,33.41,14.18,35.37.16.33.82.33,1.3-.65,1.96-4.4,12.06-30.81,12.88-33.41,1.47-4.56.16-6.52-6.19-7.99-1.96-.49-3.42-1.63-3.42-2.28,0-1.47,2.12-1.79,4.07-1.79,3.1,0,7.5.16,9.62.16,2.28,0,6.03-.65,10.27-.65,2.12,0,3.26.33,3.26,1.47,0,1.47-1.63,2.12-3.59,2.77-3.42,1.14-5.54,3.1-7.99,8.48-5.38,12.22-14.18,34.07-17.93,43.52-5.71,14.83-11.74,31.62-16.95,45.47-.65,2.12-3.75,4.56-8.47,4.56-5.54,0-7.33-4.56-7.33-7.99,0-2.77,2.61-7.17,7.17-7.17.82,0,4.24.16,5.87.16,1.47,0,1.79-1.14,2.44-2.77,1.47-2.61,6.68-16.95,7.82-21.03.49-2.28,1.14-4.4.49-5.87-.49-1.14-1.79-4.89-2.44-6.68-3.42-9.62-13.53-33.9-18.58-44.17-1.47-2.93-2.28-4.56-7.66-6.36-2.28-.82-3.26-1.47-3.26-2.45,0-.65.49-1.96,3.91-1.96Z"/>
</svg>