<?xml version="1.0" encoding="UTF-8"?>
<svg id="Layer_2" data-name="Layer 2" xmlns="http://www.w3.org/2000/svg" viewBox="0 0 650 255.17">
  <defs>
    <style>
      .cls-1, .cls-2, .cls-3 {
        stroke-width: 0px;
      }

      .cls-1, .cls-4 {
        fill: none;
      }

      .cls-2 {
        fill: #40b8e9;
      }

      .cls-3 {
        fill: #000;
      }

      .cls-4 {
        stroke: #000;
        stroke-miterlimit: 10;
      }
    </style>
  </defs>
  <g id="_모던" data-name="모던">
    <line class="cls-4" x1="557.68" y1="108.9" x2="598.05" y2="108.9"/>
    <line class="cls-4" x1="557.68" y1="132.95" x2="598.05" y2="132.95"/>
    <line class="cls-4" x1="420.94" y1="40.38" x2="420.94" y2="240.95"/>
    <line class="cls-4" x1="253.72" y1="46.88" x2="253.72" y2="188.98"/>
    <g>
      <path class="cls-1" d="M400.69,165.24c-1.26,1.56-2.28,3.39-3.06,5.49-.78,2.1-1.17,4.71-1.17,7.83,0,4.32.75,7.89,2.25,10.71,1.5,2.82,3.42,5.1,5.76,6.84,2.34,1.74,4.95,2.97,7.83,3.69,2.88.72,5.7,1.08,8.46,1.08,4.32,0,8.25-.66,11.79-1.98,3.54-1.32,6.6-3.09,9.18-5.31,2.58-2.22,4.56-4.77,5.94-7.65,1.38-2.88,2.07-5.88,2.07-9,0-6.72-1.83-11.49-5.49-14.31-3.66-2.82-8.67-4.23-15.03-4.23h-19.44c-1.56.96-3.15,1.95-4.77,2.97-1.62,1.02-3.06,2.31-4.32,3.87Z"/>
      <path class="cls-1" d="M436.15,83.79c-1.14-2.34-2.88-4.23-5.22-5.67-2.34-1.44-5.49-2.16-9.45-2.16-6.12,0-10.74,1.86-13.86,5.58-3.12,3.72-4.68,9.84-4.68,18.36,0,3.6.27,6.84.81,9.72.54,2.88,1.53,5.37,2.97,7.47,1.44,2.1,3.36,3.69,5.76,4.77,2.4,1.08,5.46,1.62,9.18,1.62,6.24,0,10.68-1.95,13.32-5.85,2.64-3.9,3.96-9.81,3.96-17.73,0-2.76-.18-5.55-.54-8.37-.36-2.82-1.11-5.4-2.25-7.74Z"/>
      <path class="cls-1" d="M263.26,113.58l-13.5,5.4c-3.84,1.56-6.78,3.75-8.82,6.57-2.04,2.82-3.06,6.33-3.06,10.53,0,1.8.18,3.66.54,5.58.36,1.92,1.02,3.63,1.98,5.13.96,1.5,2.31,2.73,4.05,3.69,1.74.96,3.99,1.44,6.75,1.44,3.96,0,7.17-.84,9.63-2.52,2.46-1.68,4.32-3.78,5.58-6.3s2.1-5.25,2.52-8.19c.42-2.94.63-5.61.63-8.01v-18h-.36c-.24,1.56-2.22,3.12-5.94,4.68Z"/>
      <path class="cls-1" d="M532,101.16v-4.5c0-4.08-.39-7.44-1.17-10.08-.78-2.64-1.86-4.74-3.24-6.3-1.38-1.56-3.06-2.67-5.04-3.33-1.98-.66-4.11-.99-6.39-.99-4.08,0-7.44.81-10.08,2.43-2.64,1.62-4.74,3.81-6.3,6.57-1.56,2.76-2.73,5.94-3.51,9.54-.78,3.6-1.29,7.38-1.53,11.34h36.9c.24-1.68.36-3.24.36-4.68Z"/>
      <polygon class="cls-2" points="135.1 150.48 135.1 113.39 117.1 113.39 117.1 150.48 97.12 150.48 97.12 153 158.98 153 158.98 150.48 135.1 150.48"/>
      <path class="cls-3" d="M191.98,140.58c-6,6.6-14.28,9.9-24.84,9.9h-8.16v2.52h48.12v-39.42h-1.98c-2.76,11.4-7.14,20.4-13.14,27Z"/>
      <polygon class="cls-3" points="135.1 27.36 155.08 27.36 155.08 24.83 97.12 24.83 97.12 27.36 117.1 27.36 117.1 113.39 135.1 113.39 135.1 27.36"/>
      <path class="cls-3" d="M295.48,151.2c-1.44.48-2.82.72-4.14.72-2.04,0-3.6-.6-4.68-1.8-1.08-1.2-1.62-3.54-1.62-7.02v-44.82c0-3.24-.48-6.33-1.44-9.27-.96-2.94-2.58-5.58-4.86-7.92-2.28-2.34-5.28-4.2-9-5.58-3.72-1.38-8.34-2.07-13.86-2.07-4.56,0-8.61.54-12.15,1.62-3.54,1.08-6.48,2.55-8.82,4.41-2.34,1.86-4.11,3.99-5.31,6.39-1.2,2.4-1.8,4.92-1.8,7.56,0,2.28.48,4.14,1.44,5.58.96,1.44,3.42,2.16,7.38,2.16,2.28,0,4.02-.57,5.22-1.71,1.2-1.14,1.8-2.55,1.8-4.23,0-.96-.18-2.43-.54-4.41-.36-1.98-.54-3.99-.54-6.03,0-3.12,1.29-5.37,3.87-6.75,2.58-1.38,5.85-2.07,9.81-2.07,3,0,5.4.42,7.2,1.26,1.8.84,3.18,2.07,4.14,3.69.96,1.62,1.62,3.57,1.98,5.85.36,2.28.54,4.86.54,7.74,0,3.6-.27,6.45-.81,8.55-.54,2.1-1.53,3.84-2.97,5.22-1.44,1.38-3.45,2.55-6.03,3.51-2.58.96-5.85,2.1-9.81,3.42-3.36,1.08-6.69,2.1-9.99,3.06-3.3.96-6.3,2.19-9,3.69-2.7,1.5-4.89,3.51-6.57,6.03-1.68,2.52-2.52,5.88-2.52,10.08,0,1.8.27,3.75.81,5.85.54,2.1,1.65,3.99,3.33,5.67,1.68,1.68,4.02,3.09,7.02,4.23,3,1.14,7.02,1.71,12.06,1.71,4.44,0,8.1-.51,10.98-1.53,2.88-1.02,5.19-2.28,6.93-3.78,1.74-1.5,3.03-3.06,3.87-4.68.84-1.62,1.5-2.97,1.98-4.05h.36c.96,4.44,2.73,7.89,5.31,10.35,2.58,2.46,6.75,3.69,12.51,3.69,3.12,0,5.76-.45,7.92-1.35s4.02-1.95,5.58-3.15l-1.44-1.98c-1.32.96-2.7,1.68-4.14,2.16ZM269.56,126.9c0,2.4-.21,5.07-.63,8.01-.42,2.94-1.26,5.67-2.52,8.19s-3.12,4.62-5.58,6.3c-2.46,1.68-5.67,2.52-9.63,2.52-2.76,0-5.01-.48-6.75-1.44-1.74-.96-3.09-2.19-4.05-3.69-.96-1.5-1.62-3.21-1.98-5.13-.36-1.92-.54-3.78-.54-5.58,0-4.2,1.02-7.71,3.06-10.53,2.04-2.82,4.98-5.01,8.82-6.57l13.5-5.4c3.72-1.56,5.7-3.12,5.94-4.68h.36v18Z"/>
      <path class="cls-3" d="M342.64,81.26c-1.92,2.1-3.42,4.29-4.5,6.57-1.08,2.28-1.86,4.32-2.34,6.12h-.36v-18.18h-28.98v2.52h13.86v72.18h-13.86v2.52h45v-2.52h-15.66v-41.22c0-5.04.63-9.51,1.89-13.41,1.26-3.9,2.82-7.23,4.68-9.99,1.8-2.67,3.74-4.71,5.81-6.15v-2.94c-2.11,1.28-3.97,2.77-5.54,4.5Z"/>
      <path class="cls-2" d="M371.62,78.57c-1.32-1.38-3-2.52-5.04-3.42-2.04-.9-4.44-1.35-7.2-1.35-3.84,0-7.11.72-9.81,2.16-.48.26-.93.54-1.39.81v2.94c.07-.05.14-.11.22-.15,2.16-1.44,4.2-2.16,6.12-2.16,4.2,0,6.3,1.92,6.3,5.76,0,1.56-.12,2.76-.36,3.6-.24.84-.51,1.59-.81,2.25-.3.66-.57,1.32-.81,1.98-.24.66-.36,1.53-.36,2.61,0,3.36,2.64,5.04,7.92,5.04,2.4,0,4.5-.66,6.3-1.98,1.8-1.32,2.7-3.96,2.7-7.92,0-1.8-.3-3.6-.9-5.4-.6-1.8-1.56-3.39-2.88-4.77Z"/>
      <path class="cls-2" d="M466.12,74.96c-2.04-1.02-4.26-1.53-6.66-1.53-3.84,0-7.05.96-9.63,2.88-.66.49-1.27.99-1.84,1.5l1.43,2.64c1.22-.95,2.4-1.44,3.57-1.44s2.1.48,2.7,1.44c.6.96,1.17,1.98,1.71,3.06.54,1.08,1.17,2.1,1.89,3.06.72.96,1.92,1.44,3.6,1.44,1.44,0,2.85-.54,4.23-1.62,1.38-1.08,2.07-2.7,2.07-4.86,0-3.36-1.02-5.55-3.06-6.57Z"/>
      <path class="cls-3" d="M443.98,82.62c-1.8-1.8-4.65-3.78-8.55-5.94-3.9-2.16-8.55-3.24-13.95-3.24-3.48,0-7.11.6-10.89,1.8-3.78,1.2-7.23,2.97-10.35,5.31-3.12,2.34-5.7,5.19-7.74,8.55-2.04,3.36-3.06,7.14-3.06,11.34,0,8.16,3.48,14.64,10.44,19.44-1.56.72-3.33,1.62-5.31,2.7s-3.84,2.49-5.58,4.23c-1.74,1.74-3.21,3.78-4.41,6.12-1.2,2.34-1.8,5.13-1.8,8.37,0,6.24,1.89,10.65,5.67,13.23s9.63,3.87,17.55,3.87v.36c-2.52.96-5.04,2.16-7.56,3.6-2.52,1.44-4.77,3.15-6.75,5.13-1.98,1.98-3.6,4.26-4.86,6.84-1.26,2.58-1.89,5.43-1.89,8.55s.81,6.18,2.43,8.82c1.62,2.64,3.87,4.89,6.75,6.75,2.88,1.86,6.27,3.33,10.17,4.41,3.9,1.08,8.19,1.62,12.87,1.62,5.16,0,10.2-.87,15.12-2.61,4.92-1.74,9.27-4.2,13.05-7.38,3.78-3.18,6.81-6.93,9.09-11.25,2.28-4.32,3.42-9.12,3.42-14.4,0-8.64-2.49-14.97-7.47-18.99-4.98-4.02-11.67-6.03-20.07-6.03h-28.44c-1.56,0-3.06-.12-4.5-.36-1.44-.24-2.73-.66-3.87-1.26-1.14-.6-2.07-1.5-2.79-2.7-.72-1.2-1.08-2.7-1.08-4.5,0-1.92.42-3.63,1.26-5.13.84-1.5,1.89-2.79,3.15-3.87,1.26-1.08,2.64-1.98,4.14-2.7,1.5-.72,2.91-1.38,4.23-1.98,1.68.84,4.08,1.83,7.2,2.97,3.12,1.14,6.78,1.71,10.98,1.71s8.07-.63,11.97-1.89c3.9-1.26,7.32-3.03,10.26-5.31,2.94-2.28,5.31-4.92,7.11-7.92,1.8-3,2.7-6.3,2.7-9.9,0-4.32-.84-7.92-2.52-10.8-1.68-2.88-3.06-4.92-4.14-6.12.96-1.32,2.07-2.49,3.33-3.51.04-.03.08-.06.12-.09l-1.43-2.64c-1.69,1.5-3.02,3.1-4,4.8ZM429.22,158.4c6.36,0,11.37,1.41,15.03,4.23,3.66,2.82,5.49,7.59,5.49,14.31,0,3.12-.69,6.12-2.07,9-1.38,2.88-3.36,5.43-5.94,7.65-2.58,2.22-5.64,3.99-9.18,5.31-3.54,1.32-7.47,1.98-11.79,1.98-2.76,0-5.58-.36-8.46-1.08-2.88-.72-5.49-1.95-7.83-3.69-2.34-1.74-4.26-4.02-5.76-6.84-1.5-2.82-2.25-6.39-2.25-10.71,0-3.12.39-5.73,1.17-7.83.78-2.1,1.8-3.93,3.06-5.49,1.26-1.56,2.7-2.85,4.32-3.87,1.62-1.02,3.21-2.01,4.77-2.97h19.44ZM434.98,117.62c-2.64,3.9-7.08,5.85-13.32,5.85-3.72,0-6.78-.54-9.18-1.62-2.4-1.08-4.32-2.67-5.76-4.77-1.44-2.1-2.43-4.59-2.97-7.47-.54-2.88-.81-6.12-.81-9.72,0-8.52,1.56-14.64,4.68-18.36,3.12-3.72,7.74-5.58,13.86-5.58,3.96,0,7.11.72,9.45,2.16,2.34,1.44,4.08,3.33,5.22,5.67,1.14,2.34,1.89,4.92,2.25,7.74.36,2.82.54,5.61.54,8.37,0,7.92-1.32,13.83-3.96,17.73Z"/>
      <path class="cls-3" d="M543.7,138.24c-.96,2.28-2.43,4.53-4.41,6.75-1.98,2.22-4.68,4.11-8.1,5.67-3.42,1.56-7.77,2.34-13.05,2.34s-9.51-1.14-12.69-3.42c-3.18-2.28-5.58-5.16-7.2-8.64-1.62-3.48-2.67-7.38-3.15-11.7-.48-4.32-.72-8.46-.72-12.42,0-1.92.03-3.51.09-4.77.06-1.26.09-2.49.09-3.69h55.44c0-6.6-1.11-12.12-3.33-16.56-2.22-4.44-4.98-8.01-8.28-10.71-3.3-2.7-6.87-4.65-10.71-5.85-3.84-1.2-7.44-1.8-10.8-1.8-5.64,0-10.92,1.17-15.84,3.51-4.92,2.34-9.21,5.43-12.87,9.27-3.66,3.84-6.54,8.25-8.64,13.23-2.1,4.98-3.15,10.11-3.15,15.39,0,6.12,1.02,11.67,3.06,16.65,2.04,4.98,4.92,9.27,8.64,12.87,3.72,3.6,8.13,6.36,13.23,8.28,5.1,1.92,10.65,2.88,16.65,2.88s10.89-.93,14.67-2.79c3.78-1.86,6.78-4.02,9-6.48,2.22-2.46,3.84-4.92,4.86-7.38,1.02-2.46,1.71-4.35,2.07-5.67l-2.7-.54c-.48,1.44-1.2,3.3-2.16,5.58ZM496.27,94.5c.78-3.6,1.95-6.78,3.51-9.54,1.56-2.76,3.66-4.95,6.3-6.57,2.64-1.62,6-2.43,10.08-2.43,2.28,0,4.41.33,6.39.99,1.98.66,3.66,1.77,5.04,3.33,1.38,1.56,2.46,3.66,3.24,6.3.78,2.64,1.17,6,1.17,10.08v4.5c0,1.44-.12,3-.36,4.68h-36.9c.24-3.96.75-7.74,1.53-11.34Z"/>
    </g>
  </g>
</svg>