<?xml version="1.0" encoding="UTF-8"?>
<svg id="Layer_2" data-name="Layer 2" xmlns="http://www.w3.org/2000/svg" viewBox="0 0 554.18 218.08">
  <defs>
    <style>
      .cls-1, .cls-2, .cls-3 {
        stroke-width: 0px;
      }

      .cls-1, .cls-4 {
        fill: none;
      }

      .cls-2 {
        fill: #40b8e9;
      }

      .cls-3 {
        fill: #000;
      }

      .cls-4 {
        stroke: #000;
        stroke-miterlimit: 10;
      }
    </style>
  </defs>
  <g id="Layer_2-2" data-name="Layer 2">
    <g>
      <polyline class="cls-4" points="97.53 14.41 97.53 .5 .5 .5 .5 14.41"/>
      <polyline class="cls-4" points="204.41 14.41 204.41 .5 112.38 .5 112.38 14.41"/>
      <polyline class="cls-4" points="286.14 14.41 286.14 .5 211.79 .5 211.79 14.41"/>
      <polyline class="cls-4" points="381.77 14.41 381.77 .5 285.44 .5 285.44 14.41"/>
      <polyline class="cls-4" points="503.85 14.41 503.85 .5 407.52 .5 407.52 14.41"/>
      <g>
        <path class="cls-1" d="M475.2,78.86c-5.51-4.6-11.87-6.9-19.07-6.9s-12.86,2.3-18.02,6.9c-5.16,4.6-8.47,10.68-9.93,18.24h57.83c-1.7-7.56-5.3-13.64-10.81-18.24Z"/>
        <path class="cls-1" d="M349.34,79.52c-4.57-2.99-9.67-4.48-15.29-4.48s-10.52,1.44-15.03,4.31c-4.51,2.87-8.03,6.74-10.55,11.6-2.52,4.86-3.78,10.11-3.78,15.73s1.2,11.02,3.6,15.82c2.4,4.8,5.81,8.61,10.24,11.43,4.42,2.81,9.48,4.22,15.16,4.22s10.93-1.44,15.56-4.31c4.63-2.87,8.23-6.74,10.81-11.6,2.58-4.86,3.87-10.11,3.87-15.73,0-5.27-1.29-10.34-3.87-15.21-2.58-4.86-6.15-8.79-10.72-11.78Z"/>
        <path class="cls-1" d="M134.93,112.61c-3.49,3.02-5.23,6.81-5.23,11.38s1.52,8.04,4.57,10.94c3.05,2.9,6.97,4.35,11.78,4.35,8.91,0,17.26-3.72,25.05-11.16v-10.81c-7.91-6.15-15.82-9.23-23.73-9.23-4.81,0-8.95,1.51-12.44,4.53Z"/>
        <polygon class="cls-2" points="81.1 135.15 66.21 135.15 66.21 151.68 97.53 151.68 97.53 94.11 81.1 94.11 81.1 135.15"/>
        <rect class="cls-3" x="47.7" y="135.15" width="18.52" height="16.52"/>
        <polygon class="cls-3" points="37.59 35.75 54.64 35.75 54.64 19.23 .5 19.23 .5 35.75 17.55 35.75 17.55 119.46 37.59 119.46 37.59 35.75"/>
        <polygon class="cls-2" points="37.59 135.15 37.59 119.46 17.55 119.46 17.55 135.15 .5 135.15 .5 151.68 47.7 151.68 47.7 135.15 37.59 135.15"/>
        <path class="cls-3" d="M188.94,91.91c0-12.13-2.86-21.01-8.57-26.63s-14.75-8.44-27.11-8.44c-9.2,0-17.14,1.8-23.82,5.41s-11.98,9.07-15.91,16.39l17.4,4.31c2.17-3.63,4.91-6.34,8.22-8.13,3.31-1.79,7.43-2.68,12.35-2.68,6.97,0,11.98,1.55,15.03,4.66,3.05,3.11,4.57,8.26,4.57,15.47v9.93c-7.79-5.27-16.2-7.91-25.22-7.91-5.39,0-10.75,1.23-16.08,3.69-5.33,2.46-9.57,5.96-12.7,10.5-3.14,4.54-4.7,9.71-4.7,15.51,0,5.39,1.42,10.3,4.26,14.72,2.84,4.42,6.62,7.95,11.34,10.59,4.72,2.64,9.92,3.96,15.6,3.96,10.78,0,20.57-4.31,29.36-12.92v11.34h31.46v-16.17h-15.47v-43.59ZM171.1,128.12c-7.79,7.44-16.14,11.16-25.05,11.16-4.81,0-8.73-1.45-11.78-4.35-3.05-2.9-4.57-6.55-4.57-10.94s1.74-8.36,5.23-11.38c3.49-3.02,7.63-4.53,12.44-4.53,7.91,0,15.82,3.08,23.73,9.23v10.81Z"/>
        <path class="cls-3" d="M250.68,92c1.55-5.21,4.73-9.11,9.54-11.69,4.8-2.58,12.13-3.87,21.97-3.87h3.96v-18.37h-4.13c-10.2,0-18.03,1.63-23.51,4.88-5.48,3.25-10.06,9.01-13.75,17.27v-20.92h-32.96v16.26h18.54v59.94h-18.54v16.17h56.69v-16.17h-20.13v-20.92c0-9.84.78-17.37,2.33-22.59Z"/>
        <polygon class="cls-2" points="363.75 68.66 381.77 83.24 381.77 75.56 398.47 75.56 398.47 59.3 363.75 59.3 363.75 68.66"/>
        <path class="cls-3" d="M363.75,72.66c-5.04-4.92-10.21-8.58-15.51-10.99-5.3-2.4-11-3.6-17.09-3.6-8.5,0-16.23,2.23-23.2,6.68-6.97,4.45-12.47,10.43-16.48,17.93-4.01,7.5-6.02,15.62-6.02,24.35s1.92,16.42,5.76,23.6c3.84,7.18,9.17,12.93,16,17.27,6.83,4.34,14.52,6.5,23.07,6.5,6.09,0,12.2-1.35,18.33-4.04,6.12-2.69,11.18-6.39,15.16-11.07v8.61c0,9.37-2.58,16.9-7.73,22.59-5.16,5.68-12.3,8.53-21.45,8.53-5.04,0-9.68-.78-13.93-2.33-4.25-1.55-8.48-3.88-12.7-6.99l-11.69,13.1c10.43,8.32,23.03,12.48,37.79,12.48,15.59,0,27.44-4.38,35.55-13.14,8.11-8.76,12.17-21.2,12.17-37.31v-61.59l-18.02-14.57v4ZM360.06,122.23c-2.58,4.86-6.18,8.73-10.81,11.6-4.63,2.87-9.81,4.31-15.56,4.31s-10.74-1.41-15.16-4.22c-4.42-2.81-7.84-6.62-10.24-11.43-2.4-4.8-3.6-10.08-3.6-15.82s1.26-10.87,3.78-15.73c2.52-4.86,6.03-8.73,10.55-11.6,4.51-2.87,9.52-4.31,15.03-4.31s10.72,1.49,15.29,4.48,8.14,6.91,10.72,11.78c2.58,4.86,3.87,9.93,3.87,15.21,0,5.62-1.29,10.87-3.87,15.73Z"/>
        <path class="cls-3" d="M475.99,134.98c-5.22,2.52-10.87,3.78-16.96,3.78-8.32,0-15.35-2.56-21.09-7.69-5.74-5.13-9.17-12.11-10.28-20.96h77.43c-.35-10.9-2.61-20.35-6.77-28.34-4.16-8-9.86-14.15-17.09-18.46-7.24-4.31-15.72-6.46-25.44-6.46-8.91,0-17.05,2.1-24.43,6.28-7.38,4.19-13.2,10.01-17.45,17.45-4.25,7.44-6.37,15.79-6.37,25.05s2.15,17.7,6.46,25.14c4.31,7.44,10.33,13.24,18.06,17.4s16.58,6.24,26.54,6.24,18.5-2.01,26.67-6.02,14.78-9.95,19.82-17.8l-16-7.21c-3.52,5.22-7.88,9.08-13.1,11.6ZM438.11,78.86c5.16-4.6,11.16-6.9,18.02-6.9,7.21,0,13.56,2.3,19.07,6.9,5.51,4.6,9.11,10.68,10.81,18.24h-57.83c1.46-7.56,4.78-13.64,9.93-18.24Z"/>
      </g>
      <line class="cls-4" x1="508.39" y1="109.99" x2="554.13" y2="109.99"/>
      <line class="cls-4" x1="507.03" y1="123.68" x2="554.13" y2="128.57"/>
      <line class="cls-4" x1="400.84" y1="75.04" x2="400.84" y2="33.12"/>
      <line class="cls-4" x1="333.61" y1="41.6" x2="333.61" y2="218.08"/>
      <line class="cls-4" x1="457.09" y1="46.28" x2="457.09" y2="175.4"/>
    </g>
  </g>
</svg>