<?xml version="1.0" encoding="UTF-8"?>
<svg id="Layer_1" data-name="Layer 1" xmlns="http://www.w3.org/2000/svg" viewBox="0 0 740 400">
  <defs>
    <style>
      .cls-1 {
        fill: #000;
        stroke-width: 0px;
      }
    </style>
  </defs>
  <path class="cls-1" d="M115.97,45.7l32.47,90.49h13.37v14.96h-47.28v-14.96h15.68l-9.31-27.22h-43.54l-9.31,27.22h15.2v14.96h-47.59v-14.96h14.49l32.31-90.49h-14.41v-14.49h62.32v14.49h-14.41ZM99.57,45.7h-.56l-16.95,49.19h34.06l-16.55-49.19Z"/>
  <path class="cls-1" d="M245.62,66.24v-20.06h-44.97v35.58h38.76v14.96h-38.76v39.48h15.28v14.96h-48.55v-14.96h15.12V46.18h-15.12v-14.96h93.04v35.02h-14.8Z"/>
  <path class="cls-1" d="M374.87,44.43v-13.21h15.28v39.4h-15.28c-3.5-7.69-9.03-13.85-16.59-18.46-7.56-4.62-15.51-6.92-23.84-6.92s-15.65,1.95-22.13,5.85c-6.47,3.9-11.5,9.27-15.08,16.12-3.58,6.84-5.37,14.62-5.37,23.32,0,9.13,1.88,17.22,5.65,24.27,3.77,7.06,9.01,12.55,15.72,16.48,6.71,3.93,14.37,5.89,22.96,5.89,6.53,0,12.59-1.19,18.19-3.58,5.6-2.39,10.24-5.78,13.93-10.19,3.69-4.4,5.98-9.44,6.88-15.12h-22.05v-15.12h43.69v3.9c0,11.41-2.6,21.36-7.8,29.85-5.2,8.49-12.38,14.99-21.53,19.5-9.15,4.51-19.43,6.77-30.84,6.77-13,0-24.39-2.61-34.18-7.84-9.79-5.23-17.3-12.54-22.52-21.93-5.23-9.39-7.84-20.3-7.84-32.71s2.61-22.42,7.84-31.76c5.23-9.34,12.43-16.62,21.61-21.85,9.18-5.23,19.58-7.84,31.2-7.84,16.45,0,30.48,5.07,42.1,15.2Z"/>
  <path class="cls-1" d="M442.29,46.18v106.09c0,13.37-2.36,22.8-7.08,28.29-4.72,5.49-12.36,8.24-22.92,8.24-4.88,0-9.5-.64-13.85-1.91v-16.95c4.56,1.17,8.75,1.75,12.58,1.75s6.49-.6,8.32-1.79c1.83-1.19,3.1-3.09,3.82-5.69.72-2.6,1.07-6.29,1.07-11.06V46.18h-15.36v-14.96h48.79v14.96h-15.36Z"/>
  <path class="cls-1" d="M593.03,90.83c0,10.88-2.2,20.75-6.61,29.61-4.41,8.86-10.65,16.12-18.74,21.77-8.09,5.65-17.52,9.06-28.29,10.23,5.68,2.49,10.41,4.35,14.21,5.57,3.79,1.22,7.28,1.83,10.47,1.83,1.91,0,4.06-.29,6.45-.88l-6.29,14.88c-1.33.32-2.92.48-4.78.48-3.13,0-6.28-.49-9.43-1.47-3.16-.98-7.39-2.72-12.69-5.21-5.36-2.39-9.55-4.1-12.58-5.13-3.02-1.04-6.08-1.55-9.15-1.55-2.28,0-4.34.36-6.17,1.07-1.83.72-3.68,1.76-5.53,3.14l-5.73-7.64c4.56-4.14,8.91-6.53,13.05-7.16-13.48-4.03-23.88-11.46-31.2-22.29s-10.98-23.35-10.98-37.57c0-11.73,2.6-22.26,7.8-31.6,5.2-9.34,12.47-16.62,21.81-21.85,9.34-5.23,19.95-7.84,31.84-7.84s22.97,2.67,32.47,8c9.5,5.33,16.89,12.67,22.17,22.01,5.28,9.34,7.92,19.87,7.92,31.6ZM530.95,137.15c8.49,0,15.93-2.2,22.32-6.61,6.39-4.4,11.33-10.16,14.8-17.27,3.47-7.11,5.21-14.59,5.21-22.44,0-8.33-1.84-15.98-5.53-22.96-3.69-6.98-8.85-12.5-15.48-16.55-6.63-4.06-14.14-6.09-22.52-6.09s-15.15,1.98-21.41,5.93c-6.26,3.95-11.1,9.38-14.53,16.28-3.42,6.9-5.13,14.64-5.13,23.24,0,9.02,1.71,17.06,5.13,24.12,3.42,7.06,8.34,12.55,14.76,16.48,6.42,3.93,13.88,5.89,22.37,5.89Z"/>
  <path class="cls-1" d="M689.57,75.07v-28.89h-24.75v90.02h15.6v14.96h-49.03v-14.96h15.28V46.18h-24.59v28.89h-14.8V31.22h97.1v43.85h-14.8Z"/>
  <path class="cls-1" d="M93.8,292.64v39.48h14.01v14.64h-28.49v-10.27c-7.96,7.8-16.82,11.7-26.58,11.7-5.15,0-9.86-1.19-14.13-3.58-4.27-2.39-7.69-5.58-10.27-9.59-2.57-4.01-3.86-8.45-3.86-13.33,0-5.25,1.42-9.94,4.26-14.05,2.84-4.11,6.67-7.28,11.5-9.51,4.83-2.23,9.68-3.34,14.56-3.34,8.17,0,15.78,2.39,22.84,7.16v-8.99c0-6.53-1.38-11.2-4.14-14.01-2.76-2.81-7.3-4.22-13.61-4.22-4.46,0-8.19.81-11.18,2.43-3,1.62-5.48,4.07-7.44,7.36l-15.76-3.9c3.55-6.63,8.36-11.58,14.41-14.84,6.05-3.26,13.24-4.89,21.57-4.89,11.19,0,19.38,2.55,24.55,7.64,5.17,5.09,7.76,13.13,7.76,24.12ZM54.96,335.54c8.06,0,15.63-3.37,22.68-10.11v-9.79c-7.16-5.57-14.33-8.36-21.49-8.36-4.35,0-8.11,1.37-11.26,4.1-3.16,2.73-4.74,6.17-4.74,10.31s1.38,7.28,4.14,9.91c2.76,2.63,6.31,3.94,10.67,3.94Z"/>
  <path class="cls-1" d="M171.72,243.61l-14.64,2.23c-.48-5.41-2.55-8.12-6.21-8.12-2.6,0-4.34.93-5.21,2.79-.88,1.86-1.31,5.17-1.31,9.95v12.66h14.33v14.72h-14.33v54.28h15.76v14.64h-44.49v-14.64h12.26v-54.28h-12.26v-14.72h12.26v-12.97c0-7.64,1.87-13.85,5.61-18.62,3.74-4.78,9.27-7.16,16.59-7.16,6.05,0,10.92,1.61,14.6,4.82,3.69,3.21,6.04,8.03,7.04,14.45Z"/>
  <path class="cls-1" d="M239.53,275.21v-12.1h31.44v14.72h-15.12v62.72c0,14.59-3.67,25.85-11.02,33.79-7.35,7.93-18.08,11.9-32.19,11.9-13.37,0-24.78-3.77-34.22-11.3l10.59-11.86c3.82,2.81,7.65,4.92,11.5,6.33,3.85,1.41,8.05,2.11,12.61,2.11,8.28,0,14.75-2.57,19.42-7.72,4.67-5.15,7-11.97,7-20.45v-7.8c-3.61,4.25-8.19,7.59-13.73,10.03-5.55,2.44-11.08,3.66-16.59,3.66-7.75,0-14.71-1.96-20.89-5.89-6.18-3.93-11.01-9.14-14.49-15.64-3.48-6.5-5.21-13.62-5.21-21.37s1.82-15.25,5.45-22.05c3.63-6.79,8.61-12.2,14.92-16.24,6.31-4.03,13.32-6.05,21.01-6.05,5.52,0,10.68,1.09,15.48,3.26,4.8,2.18,9.48,5.49,14.05,9.95ZM212.31,334.5c5.2,0,9.9-1.3,14.09-3.9,4.19-2.6,7.45-6.1,9.79-10.51,2.33-4.4,3.5-9.15,3.5-14.25,0-4.78-1.17-9.36-3.5-13.77-2.34-4.4-5.57-7.96-9.71-10.67-4.14-2.71-8.75-4.06-13.85-4.06s-9.52,1.3-13.61,3.9c-4.09,2.6-7.27,6.1-9.55,10.51-2.28,4.4-3.42,9.15-3.42,14.25s1.09,9.98,3.26,14.33c2.17,4.35,5.27,7.8,9.27,10.35,4.01,2.55,8.58,3.82,13.73,3.82Z"/>
  <path class="cls-1" d="M334.88,260.88c15.55,0,23.32,8.41,23.32,25.23v46h14.17v14.64h-30.64v-54.76c0-6-.86-10.21-2.59-12.65-1.72-2.44-4.39-3.66-8-3.66-6.1,0-14.04,3.58-23.8,10.75v45.68h14.49v14.64h-45.92v-14.64h14.96v-90.81h-14.96v-14.48h31.44v46.08c9.87-8.01,19.05-12.02,27.54-12.02Z"/>
  <path class="cls-1" d="M378.73,383.45c-3.93,0-7.24-.27-9.95-.8v-14.88c2.6.32,5.39.48,8.36.48,4.4,0,7.59-.65,9.55-1.95,1.96-1.3,3.33-3.5,4.1-6.61.77-3.1,1.15-8.03,1.15-14.76v-67.09h-13.05v-14.72h29.53v76.49c0,11.19-.57,19.64-1.71,25.35-1.14,5.7-3.83,10.21-8.08,13.53-4.25,3.32-10.88,4.97-19.9,4.97ZM409.38,234.94c0,2.71-.98,5.04-2.94,7-1.96,1.96-4.3,2.95-7,2.95s-5.01-.98-6.92-2.95c-1.91-1.96-2.87-4.3-2.87-7s.96-5.04,2.87-7c1.91-1.96,4.22-2.94,6.92-2.94s5.17.96,7.08,2.87,2.87,4.27,2.87,7.08Z"/>
  <path class="cls-1" d="M458.96,313.17v18.94h18.23v14.64h-51.33v-14.64h16.79v-54.28h-16.79v-14.72h29.85v18.94c3.34-7.48,7.49-12.69,12.46-15.64,4.96-2.95,12.06-4.42,21.29-4.42h3.74v16.63h-3.58c-8.91,0-15.55,1.17-19.9,3.5-4.35,2.34-7.23,5.86-8.64,10.59s-2.11,11.54-2.11,20.45Z"/>
  <path class="cls-1" d="M546.51,266.69v-3.58h14.33v27.78h-14.33v-5.09c-4.78-6.84-11.3-10.27-19.58-10.27-4.35,0-7.91.96-10.67,2.87-2.76,1.91-4.14,4.38-4.14,7.4,0,2.71,1.05,4.83,3.14,6.37,2.1,1.54,6.8,2.89,14.13,4.06l11.06,2.15c16.5,3.02,24.75,11.12,24.75,24.28,0,7.69-2.98,13.88-8.96,18.54-5.97,4.67-13.89,7-23.76,7-3.93,0-7.79-.57-11.58-1.71-3.79-1.14-6.96-2.56-9.51-4.26v4.54h-14.64v-28.65h14.64v2.87c.79,4.03,3.04,7.27,6.72,9.71,3.69,2.44,7.97,3.66,12.85,3.66,5.36,0,9.58-.94,12.66-2.83,3.08-1.88,4.62-4.68,4.62-8.4,0-2.71-1.22-4.74-3.66-6.09-2.44-1.35-7.35-2.75-14.72-4.18l-8.52-1.83c-8.44-1.7-14.62-4.62-18.54-8.75-3.93-4.14-5.89-9.42-5.89-15.84,0-5.2,1.45-9.64,4.34-13.33,2.89-3.69,6.59-6.46,11.1-8.32,4.51-1.86,9.15-2.79,13.93-2.79,8.01,0,14.75,1.57,20.22,4.7Z"/>
  <path class="cls-1" d="M619.49,263.11v14.72h-15.28v43.85c0,4.56.49,7.52,1.47,8.87.98,1.35,2.67,2.03,5.05,2.03,2.92,0,5.84-.5,8.75-1.51v14.88c-5.09,1.48-9.21,2.23-12.34,2.23-6.9,0-11.86-1.74-14.88-5.21-3.03-3.47-4.54-9.43-4.54-17.87v-47.28h-10.9v-14.72h10.9v-12.66l16.47-15.04v27.7h15.28Z"/>
  <path class="cls-1" d="M659.13,277.83l18.15,47.28,17.59-47.28h-11.14v-14.72h39.95v14.72h-12.34l-41.31,106.41h-27.86v-14.33h16.47l9.95-24.59-27.38-67.49h-14.01v-14.72h41.86v14.72h-9.95Z"/>
</svg>