<?xml version="1.0" encoding="UTF-8"?>
<svg id="Layer_1" data-name="Layer 1" xmlns="http://www.w3.org/2000/svg" viewBox="0 0 650 400">
  <defs>
    <style>
      .cls-1 {
        fill: #000;
        stroke-width: 0px;
      }
    </style>
  </defs>
  <path class="cls-1" d="M78.98,44.89c5.05,15.81,8.48,24.12,14.02,39.28,5.38,14.67,18.58,45.31,20.7,50.37,3.42,7.66,5.54,10.59,15,12.39.33,0-.65,4.4-1.3,4.89-13.53-.16-16.79-.16-22.17-.16s-9.78.49-11.25.49c-.65,0-.98-.16-1.14-.49-.49-.98-.98-3.91-.81-4.24,8.31-2.28,9.45-3.42,7.5-9.78-.81-3.26-6.03-16.3-8.15-21.52-.49-1.14-1.47-2.44-2.77-2.44-11.74,0-25.59.16-35.21.65-2.12,0-2.93.65-4.24,3.26-1.63,3.42-6.85,17.44-6.85,21.84,0,3.59,1.3,4.89,9.29,7.33.33.98-.49,4.07-1.3,4.56-7.82-.16-17.28-.16-20.7-.16-2.77,0-5.38.16-6.03.16-.81,0-.98-.16-1.14-.49-.49-.98-.98-4.07-.65-4.56,6.85-1.96,8.64-5.54,12.88-13.85,4.56-8.96,23.31-54.93,32.76-77.42,1.79-4.4,2.77-7.17,3.59-9.62.16-.98.49-1.14.98-1.47.81-.33,3.42-1.47,5.05-1.47,1.3,0,1.47.81,1.96,2.44ZM69.04,106.99c7.66,0,12.06-.16,16.63-.33,1.14,0,1.63-1.47,1.3-2.28-6.52-17.11-9.62-26.73-14.83-39.93-.16-.49-1.47-.33-1.79.81-7.82,17.6-9.94,22.98-16.14,39.61-.16.65.81,1.79,2.77,1.79,1.3,0,4.56.33,12.06.33Z"/>
  <path class="cls-1" d="M145.48,145.46c1.96,0,2.44-.33,2.77-3.26.81-6.68,1.47-23.8,1.47-39.44v-16.3c0-11.25,0-20.7-.49-27.71-.49-6.52-1.14-7.5-9.62-9.13-.16-.98-.16-2.61.16-3.91,0-.49.81-.65,1.79-.65,1.14,0,9.29.33,15.97.33h29.5c15.81,0,22.82-.65,24.77-.98.65-.16,1.3.81,1.3,1.79-.16,11.74-.16,17.93-.16,21.84,0,.81-.33,1.3-2.44.81-2.28-.33-2.44-.49-2.61-1.14-1.79-9.29-3.1-13.04-8.48-14.83-4.24-1.3-7.99-1.63-19.07-1.63-8.64,0-10.27.16-13.69.98-1.3.33-1.79,1.79-2.28,5.87-1.63,15.48-.98,34.72-.98,36.84-.16.98.65,1.47.98,1.47.81.16,3.59.33,13.2.33,8.8,0,13.04-.33,17.93-.81,3.42-.16,3.91-.65,6.19-8.96.49-.33,4.73-1.3,5.22-.81,0,4.73-.33,8.96-.33,13.37,0,4.73.98,12.06.98,14.83-.65.49-4.56.65-5.22.33-.98-3.91-1.79-7.82-4.24-9.29-3.26-1.63-6.68-2.28-19.4-2.28-9.45,0-11.41.16-14.02.33-1.47.16-1.79,1.79-1.79,6.52v12.88c0,7.82.49,12.88.81,15.65.82,6.19,4.73,7.01,14.34,7.33,1.14,0,1.63.98,1.47,1.47l-1.14,4.56h-3.91c-6.68,0-10.76-.65-17.44-.65s-14.34.65-15,.65c-.81,0-1.47-.33-1.63-1.47-.65-2.28-.33-4.4,0-4.89h5.05Z"/>
  <path class="cls-1" d="M243.93,58.91c7.17-6.36,15.16-9.94,26.41-13.2,9.62-2.77,20.05-3.1,25.26-3.1s14.67.98,20.86,2.93c.81.16,1.47.33,1.63,0l1.47-2.61c.33-.49.49-.49,1.63-.49h3.26c.49.16.81.49.81,1.3.49,10.59,1.47,18.91,2.28,23.15.33,1.63.33,3.1.16,3.75-.16.33-.49.49-1.63.49h-2.45c-.33,0-.98-.33-1.47-1.47-4.4-11.57-15.16-21.35-33.25-21.35-9.13,0-18.74,2.45-27.87,10.43-7.33,6.52-16.79,19.23-16.79,39.77,0,10.76,2.93,23.96,13.85,34.55,12.55,12.22,30.15,14.34,38.79,14.34,4.89,0,11.25-1.96,13.69-3.75,2.93-2.28,4.4-9.62,4.4-21.19,0-15.65-.65-17.6-6.19-18.74-1.79-.33-8.64-1.14-10.59-1.47-.49-.33-1.3-.65-1.63-1.14-.49-.82-.65-2.12-.81-3.1-.16-.81.16-1.3.81-1.3,9.13,0,16.46.65,23.47.65,8.8,0,14.18-.49,16.79-.65.49.33.16,5.38-.16,6.36-1.79.16-3.75.49-6.36.81-.49,1.47-1.14,12.88-1.14,40.42,0,3.1-.98,4.24-2.61,5.7-1.3,1.3-3.75,1.47-4.4,1.47-3.75,0-6.36,0-12.88.49-6.03.49-10.92.98-17.44.98-21.35,0-36.84-5.38-48.25-16.3-9.45-8.64-15.97-22-15.97-39.12s6.19-29.18,16.3-38.63Z"/>
  <path class="cls-1" d="M385.09,50.59c-6.03.65-7.01,1.3-7.33,4.24-.33,3.91-.65,10.59-.65,28.52v20.54c0,9.94-.16,35.37-.16,48.57,0,5.87-1.14,9.78-3.1,13.37-5.05,8.96-15.97,16.3-24.12,20.21-2.45,1.3-5.54,2.12-7.99,2.12-4.56,0-9.29-2.44-11.57-4.4-1.14-1.14-1.63-2.12-1.63-3.42,0-.81.33-1.96.82-2.61,2.28-2.77,3.75-3.75,5.22-5.05.98-.49,2.12-.49,3.26.33,2.93,1.79,7.33,4.24,12.88,4.24,3.26,0,5.87-1.3,7.99-3.26,2.61-2.28,3.91-5.87,4.07-13.85.49-11.9.65-25.1.65-36.35v-33.09c0-16.79-.16-24.94-.49-29.18-.49-9.78-1.3-10.11-13.69-11.08,0-.49.65-3.1.98-4.07.33-.98,1.3-1.14,2.28-1.14,2.93,0,10.43.16,15.16.16,6.85,0,15.48-.65,20.05-.65.81,0,.98.16,1.14.82l.98,4.4-4.73.65Z"/>
  <path class="cls-1" d="M502.45,58.91c11.08,11.08,14.51,25.92,14.51,37.16,0,16.3-6.19,33.25-19.56,43.52-11.41,8.64-18.58,11.08-21.68,12.55-.81.16-1.47,1.96-1.14,2.77,5.21,11.74,16.3,20.86,27.06,24.94,7.66,2.93,15,4.4,21.03,4.07,8.15-.16,10.59-.98,11.25-1.14.49,0,1.79.33,2.28,1.47.49,1.3,0,1.47-1.63,3.26-3.58,1.14-15,3.26-22.66,3.26-5.54,0-11.57-.65-18.75-2.61-8.96-2.12-16.14-6.52-22.98-12.71-4.73-4.24-10.11-11.57-13.86-16.95-2.28-3.42-5.22-4.73-9.13-5.87-5.05-1.47-18.58-5.54-26.24-12.55-7.5-6.85-18.26-20.37-18.26-39.77,0-11.74,2.61-29.34,21.03-44.33,8.31-6.85,23.47-13.53,36.67-13.53s30.32,4.56,42.05,16.46ZM435.78,56.62c-11.57,9.45-16.3,23.15-16.3,42.22,0,9.62,2.93,23.47,9.78,32.27,10.27,13.85,26.24,17.93,33.09,17.93,3.75,0,15.97-3.1,24.29-11.9,8.96-9.78,14.02-21.35,14.02-37.81,0-11.57-2.28-24.29-11.9-35.37-8.8-10.11-18.58-15.16-33.25-15.16-5.54,0-12.55,1.96-19.72,7.82Z"/>
  <path class="cls-1" d="M552.65,146.92c2.61-.33,7.01-.98,9.45-1.3,4.24-.81,6.36-1.79,7.01-5.54.33-2.28,1.47-13.37,1.47-36.84v-16.46c0-29.67-.16-35.37-.81-35.37h-13.2c-15.32,0-22.49,2.61-23.8,3.59-1.96,1.3-3.1,4.24-5.38,10.92,0,.49-.65.49-1.47.16-1.3-.65-3.59-2.77-3.91-3.26,2.12-4.73,5.38-12.06,9.13-24.29.65-.16,1.79,0,3.1.49,1.14.16,1.3.33,1.47.98,0,3.1.33,4.4,1.63,4.73,1.3.33,3.59.49,7.33.49,4.89.16,12.71.16,28.04.16,17.77,0,31.29,0,40.75-.33,4.56-.16,7.33-.49,8.96-.98.98-.33,1.96-1.79,3.1-4.73.16-.49.33-.65.81-.65.81,0,2.93.81,4.24,1.47.16.33.33.81-.16,2.12-3.1,8.48-3.26,12.39-4.07,22.33,0,.81-.49,1.3-1.96,1.3-.82,0-1.96-.16-2.77-.33-.65-.16-.82-.65-.82-.98,0-1.3.33-7.01.33-8.48,0-1.14-.65-2.44-2.61-3.1-1.47-.65-9.29-1.63-20.86-1.63h-10.59c-1.47,0-2.12,1.14-2.12,4.24-.16,2.77-.65,10.76-.65,32.6v16.3c0,23.47.65,30.48,1.14,33.41.65,2.77,1.63,4.89,3.75,5.87,2.77,1.63,10.11,2.61,13.85,2.93.98,0,1.14.16.98.65l-.65,3.26c-.16.65-.33.98-1.47.98-1.96,0-15.97-.49-23.96-.49-8.47,0-21.35.65-22.66.65s-1.96-.49-2.12-1.3l-.49-3.59Z"/>
  <path class="cls-1" d="M70.99,301.94c-.98.33-1.96.49-2.93.49-.65,0-1.96-1.3-1.96-2.12,0-.98.49-2.28,1.47-3.75,2.93-4.56,14.83-11.57,19.07-13.04,3.42-1.3,6.36-1.96,8.96-1.96,7.17,0,10.92,2.93,13.53,5.87,2.77,2.93,3.1,5.87,3.1,7.99,0,11.41-.33,22.82-.33,33.58-.16,8.8,1.47,11.9,3.91,11.9,2.93,0,7.5-2.12,7.99-2.28.49-.33,1.63.98,1.63,1.63l-.33,2.77c0,.82-.33,1.47-.98,1.79-1.96,1.14-12.55,4.08-18.09,4.08-2.93,0-5.38-1.47-6.85-8.48-6.19,2.77-18.58,8.15-20.54,8.15-2.28,0-5.54-.49-9.29-3.26-2.12-1.96-4.73-6.19-4.73-12.71,0-3.42,2.61-6.19,7.01-8.48,8.48-4.4,18.42-7.01,28.03-8.64.49-2.12.49-8.48.49-11.74,0-6.85-1.3-10.59-2.77-11.9-1.3-1.3-5.38-2.61-9.13-2.61-3.26,0-5.54.65-6.52,1.14-.65.49-1.14,1.63-1.14,6.85,0,1.14,0,1.79-.98,2.12l-8.64,2.61ZM95.93,336.98c1.96-1.47,3.26-2.45,3.59-4.4.16-1.96.49-8.15.49-10.43,0-1.14-.33-1.79-.81-1.79-9.78,1.47-15.65,3.42-19.23,6.19-.98.65-1.63,1.79-1.63,4.73,0,5.54,1.63,8.96,7.33,8.96,1.63,0,6.03-1.47,10.27-3.26Z"/>
  <path class="cls-1" d="M167.65,292.65c-2.28,0-6.36-.16-13.04-.16-1.14,0-1.63.33-1.63,7.5v29.83c0,9.29.49,10.76,2.12,10.76,1.14,0,7.66-.49,8.96-.49.81,0,1.3.49,1.3,3.75,0,2.93-.33,2.93-2.12,2.93h-17.28c-3.59,0-12.39.82-14.67.82-.81,0-.98-.16-.81-1.3.49-3.26.81-3.58,1.96-3.75,8.15-2.12,8.31-2.61,8.31-18.25v-28.52c0-2.77-.33-3.42-4.08-3.75l-4.89-.33c-.49,0-1.47-.65-1.14-1.14l1.47-2.61c.65-1.14.98-1.63,1.79-1.79.65-.33,4.56-1.3,6.85-1.63v-8.64c0-12.88,1.79-22,9.78-29.99,4.08-4.24,10.76-8.96,18.26-11.74,3.75-1.47,6.68-1.96,9.29-1.96,4.4,0,9.94,2.12,11.57,5.05.65.82.81,1.63.81,2.77,0,1.63-2.12,4.4-3.91,6.36-.49.49-1.3.81-2.44.81-1.79,0-3.59-1.14-6.68-2.93-4.08-2.61-6.03-3.42-9.13-3.42-2.61,0-5.54,1.14-7.99,3.59-4.56,4.73-6.68,14.02-6.68,37.98,0,1.3.98,2.12,1.79,2.12,5.05,0,14.51-.81,15.16-.81,1.14,0,2.45,1.14,2.61,1.96.33.98.49,4.56.49,5.38,0,.98-.49,1.63-1.79,1.63h-4.24Z"/>
  <path class="cls-1" d="M221.11,284.98c1.14.65,2.44.65,2.93.65,2.61,0,12.22-1.96,15.48-1.96,1.3,0,3.1,1.47,3.26,2.12.16.65.65,4.56.65,5.22,0,.81-.81,1.96-2.77,1.96-1.79,0-6.68.16-13.85,0,2.61,4.08,4.4,8.48,4.4,12.88,0,11.41-8.31,21.52-20.86,26.57-6.03,2.28-9.78,4.24-13.37,6.03-.98.49-1.47,1.63-1.47,2.28,0,2.93,3.91,4.24,8.31,4.24,1.96,0,12.22-.33,13.69-.33,6.68,0,13.04.98,18.58,5.05,2.45,1.79,4.56,5.87,4.56,11.41,0,5.22-1.47,7.99-5.87,13.2-8.48,10.11-15.97,13.04-20.05,14.67-3.75,1.3-11.25,2.44-15.97,2.44-17.6,0-24.61-8.64-24.61-15.16,0-5.38,2.12-9.94,6.19-12.71,3.91-2.93,7.17-5.05,12.22-8.31-7.17-3.26-11.08-5.38-11.08-10.27,0-1.47.16-2.12,1.14-3.42,1.63-1.3,8.8-5.22,15.48-8.48-4.89-1.14-8.96-2.93-13.04-6.52-4.56-4.08-7.33-10.11-7.33-16.46,0-9.78,5.38-16.62,12.71-21.84,5.38-3.59,11.41-6.68,18.26-6.68,4.4,0,9.45,1.79,12.39,3.42ZM226,376.59c3.26-2.77,5.7-6.03,5.7-9.94,0-2.28-.16-4.89-3.42-7.33-3.75-2.45-8.31-3.42-14.02-3.42s-12.55.49-16.46,1.47c-1.63.33-3.75,1.47-6.36,3.91-4.24,3.42-5.87,7.82-5.87,10.27,0,2.93,3.59,11.25,19.89,11.25,9.62,0,16.3-2.28,20.54-6.19ZM216.22,296.07c-2.28-3.75-7.17-7.82-14.34-7.82-2.93,0-5.71,1.14-8.31,3.59-2.93,2.45-4.24,6.52-4.24,11.08,0,6.36,2.61,13.69,7.33,17.77,5.22,4.56,9.13,5.54,12.06,5.54,5.87,0,11.57-3.59,11.57-14.51,0-5.38-1.3-11.25-4.07-15.65Z"/>
  <path class="cls-1" d="M244.91,344.97c-.33-.81-.33-1.14.33-1.47,8.64-3.91,9.13-4.4,9.13-19.88v-64.55c0-9.62-.33-9.78-6.03-15-.65-.49-.65-1.3.16-1.96,2.44-2.12,12.06-7.33,16.46-9.78.65-.49,1.79-.33,2.28.16.16.33.33.82.33,1.63,0,10.27-.49,20.54-.49,31.95v24.12c0,.33.65,1.14.98.98,3.42-1.47,13.04-6.03,17.28-7.5,3.42-.98,6.03-1.63,8.96-1.63,14.67,0,17.93,12.39,17.93,26.08,0,4.89-.33,15.97-.49,26.41,0,5.38.65,5.87,7.01,7.82,1.47.33,1.63.33,1.63.98v2.61c0,.98-.16,1.14-1.14,1.14h-11.57c-7.99,0-14.67.81-16.46.98-.65,0-.81-.33-.81-2.12-.33-2.12-.16-2.44.33-2.77s2.93-.98,4.56-1.79c2.93-1.47,3.59-2.45,4.07-6.52.81-7.17.65-12.06.65-18.26,0-15.32-2.77-19.4-6.19-22.17-3.75-2.77-6.68-3.1-9.78-3.1-4.73,0-10.92,1.96-15.32,4.4-1.47.65-1.96,1.79-1.96,4.89v17.44c0,8.64.33,13.53.98,17.77.49,3.91,1.14,4.73,8.48,5.54.65,0,.81.49.98,4.08,0,1.14-.16,1.3-.81,1.3-13.04,0-21.84,0-29.01,1.14-.98.16-1.3.16-1.47-.33l-.98-2.61Z"/>
  <path class="cls-1" d="M348.91,349.53c0,12.22-1.96,16.46-5.7,21.35-5.22,6.68-15.48,13.85-21.35,15.81-2.12.82-4.56.98-6.03.98-1.96,0-7.33-1.3-8.31-3.26-.65-1.14-.98-3.1-.16-4.24.98-1.3,5.38-5.71,6.68-5.87.65,0,1.47,0,2.28.49,2.44.98,7.01,3.1,8.8,3.1,1.63,0,3.59-.16,5.7-1.79,2.28-1.96,4.24-4.56,4.89-10.76.49-6.52,1.47-20.37,1.47-35.86v-9.62c0-8.64-.16-16.79-.33-19.56-.16-4.73-.49-5.22-7.99-6.36-.49-.33-.33-3.42.49-3.91,7.01-3.1,16.3-6.68,18.09-7.82.65-.49,1.3-.65,1.96-.65.49.16.98.98.98,2.12,0,3.58-1.47,18.42-1.47,34.23v31.62ZM352.82,252.88c0,4.56-3.91,8.15-7.99,8.15-3.75,0-7.82-3.75-7.82-7.5,0-4.89,2.93-8.64,7.99-8.64,4.73,0,7.82,4.73,7.82,7.99Z"/>
  <path class="cls-1" d="M368.3,341.87c3.91-1.3,4.56-1.79,4.89-3.91.33-1.79.49-6.19.49-20.37v-14.34c0-3.91-.33-4.89-6.68-6.68-1.3-.49-2.12-2.61-1.96-3.75,6.36-3.91,13.04-7.17,17.93-10.59.81-.49,1.63-.65,2.12-.65.65,0,1.47,1.14,1.14,2.61-.33,4.24-.65,7.17-.65,12.22,3.42-1.47,13.37-9.62,15.32-11.08,1.47-1.14,3.26-2.28,4.73-2.28,4.4,0,8.96,4.07,8.96,7.82,0,2.45-3.91,7.17-5.38,8.48-.98.65-1.96,1.3-2.77,1.3-.98,0-1.63-.33-2.12-1.14-1.3-1.79-3.59-3.75-6.19-3.75-3.59,0-8.15,2.93-10.92,5.54-1.14.98-1.47,3.1-1.47,10.76v20.37c0,4.08.16,6.19.65,7.01s1.14,1.3,2.77,1.14l8.96-.33c.65,0,1.3.81,1.3,1.47l-.98,5.05h-21.52c-4.24,0-8.31.33-9.45.33-.65,0-.98-.49-.65-1.47l1.47-3.75Z"/>
  <path class="cls-1" d="M459.58,343.66c-4.89,3.42-11.08,4.56-16.46,4.56-4.4,0-11.41-.98-14.02-1.47-2.61-.65-3.42-.82-5.54.33-.16,0-.98,0-1.47-.33-.49-.49-.49-.98-.33-1.79.65-6.03.65-11.57,0-18.09.16-.49.16-.82.49-.98.65-.33,1.47-.65,3.91-1.14,1.47,4.24,4.24,9.29,7.34,12.71,4.24,4.73,8.31,5.87,10.92,5.87,3.75,0,10.11-3.42,10.11-9.45,0-8.64-9.62-12.39-14.51-15.16-4.08-2.28-15.97-7.33-15.97-17.93,0-5.21,2.28-9.62,7.17-13.69,4.56-3.59,10.27-5.05,14.02-5.05s7.34.65,10.76.65c1.63,0,2.45-.16,2.93-.33.33-.33.65-.33,1.14.16.49.33.49.65.49.98.16,4.89,1.3,10.43,3.1,16.3,0,.65-1.14,1.47-1.47,1.47-2.61,0-3.26-.16-4.73-2.28-2.12-4.24-6.52-11.74-14.83-11.74-2.93,0-7.17,2.61-7.17,8.48,0,7.33,6.68,10.76,13.37,14.18,4.4,2.28,18.58,7.66,18.58,20.54,0,4.89-2.28,9.45-7.82,13.2Z"/>
  <path class="cls-1" d="M497.56,272.6c0,2.12-.82,10.59-.82,12.22,7.82,0,17.44-.82,23.15-.82,1.63,0,1.79.33,1.79,1.79,0,1.3-.33,3.1-.98,5.54-.33,1.3-1.14,1.47-2.44,1.47-4.73.16-12.39.16-21.03.49-.49,0-.81.33-.98,2.28-.49,7.33-.33,24.29-.33,33.25,0,7.33,4.73,11.25,12.06,11.25,3.91,0,6.36-1.3,10.27-3.75.82-.49,1.14-.49,1.3.16.33,1.14.49,1.96.49,3.1,0,.81-.49,1.47-1.14,1.79-6.19,3.59-12.55,7.17-20.37,7.17-2.93,0-8.96-1.14-12.39-5.22-2.12-2.61-2.61-5.71-2.28-11.9.33-8.8.33-31.29.65-35.86.16-.98-.65-2.12-1.47-2.28-2.28,0-5.54,0-6.68-.16-.49,0-1.3-1.3-.81-1.63,6.03-5.38,16.14-15.16,19.72-18.91.65-.65,1.47-.98,1.79-.98s.49.33.49.98Z"/>
  <path class="cls-1" d="M569.61,284.17c3.26,0,10.92,0,15.32-.33,2.93-.16,4.73-.16,5.54-.16.65,0,1.14,0,1.47.49.65.65,1.47,3.91,1.3,4.24-6.19,2.12-8.15,5.87-12.39,14.02-12.06,23.31-18.74,37.98-23.14,48.9-4.73,12.06-10.11,26.41-10.76,29.34-1.14,4.24-1.14,6.36-1.14,7.17,0,.65,0,1.14-.49,1.63-1.14.82-2.44.98-3.42.98-2.45,0-5.54-.82-7.33-2.45-1.63-1.3-1.63-3.42-.65-5.22.65-.98,15.65-28.36,16.46-31.29.49-1.3.65-3.91-.16-6.19-4.89-16.3-9.62-30.15-16.79-49.55-1.63-4.24-2.61-4.89-6.68-5.87-1.14-.49-1.3-.65-1.3-1.14s.33-1.3.81-3.26c.49-1.14.82-1.3,1.96-1.3,11.57,0,18.25-.49,23.8-.49,1.3,0,1.63.16,1.79.49.33.65,1.3,3.26,1.14,4.07-8.31,2.61-9.29,2.93-7.66,8.48,1.63,6.52,8.64,30.32,11.9,36.51,5.38-9.94,11.9-23.31,16.14-35.53,1.79-5.54,1.79-6.52-5.71-8.48-.65-.16-.65-.65-.65-1.47,0-1.14.33-2.93.65-3.59Z"/>
</svg>