<?xml version="1.0" encoding="UTF-8"?>
<svg id="Layer_2" data-name="Layer 2" xmlns="http://www.w3.org/2000/svg" viewBox="0 0 436.57 210.48">
  <defs>
    <style>
      .cls-1, .cls-2, .cls-3 {
        stroke-width: 0px;
      }

      .cls-1, .cls-4 {
        fill: none;
      }

      .cls-2 {
        fill: #40b8e9;
      }

      .cls-3 {
        fill: #000;
      }

      .cls-4 {
        stroke: #000;
        stroke-miterlimit: 10;
      }
    </style>
  </defs>
  <g id="Layer_2-2" data-name="Layer 2">
    <g>
      <polyline class="cls-4" points="91.2 14.41 91.2 .5 .5 .5 .5 14.41"/>
      <polyline class="cls-4" points="165.15 14.41 165.15 .5 105.08 .5 105.08 14.41"/>
      <polyline class="cls-4" points="242.59 14.41 242.59 .5 183.56 .5 183.56 14.41"/>
      <polyline class="cls-4" points="319.09 14.41 319.09 .5 248.71 .5 248.71 14.41"/>
      <polyline class="cls-4" points="393.43 14.41 393.43 .5 328.09 .5 328.09 14.41"/>
      <line class="cls-4" x1="95.2" y1="130.6" x2="98.17" y2="88.65"/>
      <line class="cls-4" x1="134.33" y1="46.66" x2="134.33" y2="172.61"/>
      <g>
        <path class="cls-1" d="M282.55,79.74c-5.22,0-8.46,1.62-9.72,5.22-1.26,2.88-1.62,8.82-1.62,20.88,0,13.14,2.52,16.92,11.16,16.92,4.5,0,7.74-1.44,9.54-4.5,1.62-2.7,2.16-7.02,2.16-18.72,0-10.8-.36-14.04-1.98-16.2-1.62-2.52-4.5-3.6-9.54-3.6Z"/>
        <path class="cls-1" d="M281.65,193.14c18,0,31.86-10.98,31.86-25.38,0-5.58-2.7-7.56-10.08-7.56-.72,0-4.14,0-8.64.18-3.6.18-16.74.36-18.9.36-4.5,0-6.12,0-10.08-.54-4.32,4.5-6.12,8.64-6.12,14.04,0,11.16,8.82,18.9,21.96,18.9Z"/>
        <path class="cls-1" d="M121.1,130.5c0,7.56,3.96,12.06,10.8,12.06,5.4,0,9.9-2.88,12.78-8.1,1.98-3.42,2.88-8.82,2.88-18.18v-3.6c-9.54.36-14.04,1.44-18.36,4.14-5.4,3.24-8.1,7.74-8.1,13.68Z"/>
        <path class="cls-1" d="M373.27,87.3c-1.62-4.5-5.94-7.02-11.52-7.02-5.94,0-10.8,2.34-12.96,6.48q-1.98,3.6-1.98,17.1h27.9c0-11.88-.18-13.32-1.44-16.56Z"/>
        <path class="cls-3" d="M55.94,145.08h-16.94v3.6h51.14l3.06-37.08h-2.34c-6.66,28.08-13.14,34.38-34.92,33.48Z"/>
        <polygon class="cls-2" points="34.7 145.08 34.7 127.62 15.44 127.62 15.44 145.08 .5 145.08 .5 148.68 38.99 148.68 38.99 145.08 34.7 145.08"/>
        <polygon class="cls-3" points="34.7 32.22 49.64 32.22 49.64 28.62 .5 28.62 .5 32.22 15.44 32.22 15.44 127.62 34.7 127.62 34.7 32.22"/>
        <path class="cls-3" d="M167.54,145.26c-1.8,0-2.52-.54-3.06-2.16q-.72-1.62-.72-18.72v-19.8c0-15.84-.18-16.74-4.14-20.88-4.32-4.68-12.42-7.56-21.24-7.56-14.94,0-28.26,8.46-28.26,18,0,4.68,3.24,7.92,7.74,7.92,4.14,0,7.38-3.24,7.38-7.74,0-1.98-.54-3.42-2.52-5.58-.72-.9-.9-1.26-.9-1.98,0-3.6,7.2-7.56,13.68-7.56,3.96,0,7.92,1.44,9.72,3.6,1.98,2.34,2.34,4.14,2.34,14.4v12.42c-12.06.18-19.44,1.44-26.1,3.96-10.62,4.32-16.38,11.34-16.38,20.16,0,9.9,7.74,16.74,19.08,16.74,9.72,0,18.18-5.04,23.4-14.04,1.08,9.18,6.3,14.04,15.12,14.04,4.68,0,8.28-1.44,12.42-5.4l-2.16-2.7c-3.24,2.7-3.6,2.88-5.4,2.88ZM147.56,116.28c0,9.36-.9,14.76-2.88,18.18-2.88,5.22-7.38,8.1-12.78,8.1-6.84,0-10.8-4.5-10.8-12.06,0-5.94,2.7-10.44,8.1-13.68,4.32-2.7,8.82-3.78,18.36-4.14v3.6Z"/>
        <path class="cls-3" d="M211.82,95.04v-17.1h-28.26v3.6h12.06v63.54h-12.06v3.6h40.14v-3.6h-11.88v-16.74c0-20.88,1.8-31.14,7.2-40.32.26-.43.52-.82.79-1.2l-1.36-4.02c-2.47,3.02-4.67,7.08-6.63,12.24Z"/>
        <path class="cls-2" d="M231.25,76.14c-4.94,0-9.16,2.19-12.81,6.66l1.36,4.02c1.44-2.01,3-3.3,4.07-3.3,1.44,0,1.62.54,1.8,3.78.36,5.22,3.42,8.46,8.1,8.46,5.04,0,8.82-3.96,8.82-9.18,0-6.12-4.68-10.44-11.34-10.44Z"/>
        <path class="cls-3" d="M303.07,83.52c-5.22-4.86-12.06-7.38-20.52-7.38-16.2,0-28.44,10.98-28.44,25.2,0,8.1,3.42,14.4,11.16,20.52-10.62,6.84-15.84,14.4-15.84,22.5s4.86,13.5,13.5,15.84c-9,2.88-14.22,8.64-14.22,15.84,0,11.88,14.4,21.6,32.4,21.6,22.5,0,37.98-13.86,37.98-33.84,0-7.38-2.34-12.96-6.66-16.02-3.6-2.34-6.84-3.06-14.58-3.06h-5.22c-5.22,0-9,0-9.72.18q-12.24.18-14.04.18c-9.18,0-12.24-1.62-12.24-6.66,0-4.68,4.14-9.72,12.06-14.76,4.86,2.16,8.1,2.88,13.32,2.88,17.28,0,29.16-10.08,29.16-24.84,0-5.76-1.8-10.98-5.58-16.02.53-.58.98-1.05,1.37-1.43l-1.97-2.69c-.62.6-1.26,1.24-1.92,1.95ZM275.89,160.74c2.16,0,15.3-.18,18.9-.36,4.5-.18,7.92-.18,8.64-.18,7.38,0,10.08,1.98,10.08,7.56,0,14.4-13.86,25.38-31.86,25.38-13.14,0-21.96-7.74-21.96-18.9,0-5.4,1.8-9.54,6.12-14.04,3.96.54,5.58.54,10.08.54ZM291.91,118.26c-1.8,3.06-5.04,4.5-9.54,4.5-8.64,0-11.16-3.78-11.16-16.92,0-12.06.36-18,1.62-20.88,1.26-3.6,4.5-5.22,9.72-5.22s7.92,1.08,9.54,3.6c1.62,2.16,1.98,5.4,1.98,16.2,0,11.7-.54,16.02-2.16,18.72Z"/>
        <path class="cls-2" d="M316.03,76.14c-3.75,0-6.96,1.5-11.04,5.43l1.97,2.69c1.18-1.15,1.82-1.45,2.77-1.45,1.08,0,1.62.9,1.98,2.88.72,3.6,2.7,5.4,6.12,5.4,3.6,0,6.48-2.88,6.48-6.84,0-4.86-3.42-8.1-8.28-8.1Z"/>
        <path class="cls-3" d="M363.91,146.34c-6.84,0-12.06-2.88-14.76-8.28-1.98-3.78-2.34-7.56-2.34-25.38v-5.22h46.62c-.36-7.56-1.62-11.88-4.68-16.74-5.76-9.18-15.66-14.58-26.82-14.58-18,0-33.84,17.28-33.84,37.08s16.38,37.26,34.74,37.26c14.4,0,26.46-10.44,29.34-25.56h-4.32c-3.42,13.5-12.42,21.42-23.94,21.42ZM348.79,86.76c2.16-4.14,7.02-6.48,12.96-6.48,5.58,0,9.9,2.52,11.52,7.02,1.26,3.24,1.44,4.68,1.44,16.56h-27.9q0-13.5,1.98-17.1Z"/>
      </g>
      <line class="cls-4" x1="282.64" y1="56.55" x2="282.64" y2="210.48"/>
      <line class="cls-4" x1="360.76" y1="55.11" x2="360.76" y2="176.67"/>
      <line class="cls-4" x1="396.65" y1="109.63" x2="436.57" y2="109.63"/>
      <line class="cls-4" x1="396.65" y1="121.4" x2="436.57" y2="121.4"/>
    </g>
  </g>
</svg>