<?xml version="1.0" encoding="UTF-8"?>
<svg id="Layer_1" data-name="Layer 1" xmlns="http://www.w3.org/2000/svg" viewBox="0 0 650 400">
  <defs>
    <style>
      .cls-1 {
        fill: #000;
        stroke-width: 0px;
      }
    </style>
  </defs>
  <path class="cls-1" d="M84.46,39.34h11.19l49.85,111.82h-16.29l-14.82-32.95h-47.44l-13.89,32.95h-16.36l47.76-111.82ZM107.85,104.04l-17.94-40.27-16.64,40.27h34.57Z"/>
  <path class="cls-1" d="M157.84,39.97h59.29v14.17h-43.38v31.04h43.38v14.17h-43.38v51.81h-15.92V39.97Z"/>
  <path class="cls-1" d="M294.26,96.4h37.33v47.12c-13.69,5.94-27.27,8.91-40.75,8.91-18.41,0-33.12-5.37-44.13-16.12-11.01-10.74-16.51-24-16.51-39.75,0-16.61,5.7-30.43,17.11-41.47,11.41-11.04,25.71-16.55,42.9-16.55,6.26,0,12.2.68,17.83,2.03,5.62,1.35,12.73,3.83,21.33,7.44v16.24c-13.27-7.69-26.42-11.54-39.48-11.54-12.15,0-22.39,4.14-30.72,12.42-8.33,8.28-12.5,18.44-12.5,30.48s4.16,22.95,12.5,30.96c8.33,8.01,19.05,12.02,32.15,12.02,6.37,0,13.98-1.46,22.84-4.38l1.51-.48v-23.16h-21.41v-14.17Z"/>
  <path class="cls-1" d="M354.98,39.97h15.92v109.75c0,10.24-1.05,17.81-3.14,22.72-2.1,4.91-5.48,8.83-10.15,11.78-4.67,2.95-10.29,4.42-16.87,4.42-1.01,0-2.73-.16-5.17-.48l-2.95-14.8h4.06c4.56,0,8.05-.56,10.47-1.67,2.41-1.11,4.32-3.08,5.73-5.89,1.4-2.81,2.11-8.78,2.11-17.91V39.97Z"/>
  <path class="cls-1" d="M507.64,158.16l-15.98,15.52c-4.98-.27-10.19-1.15-15.63-2.67-5.43-1.51-10.95-3.6-16.54-6.25-5.59-2.65-13.06-7.19-22.39-13.61-13.52-2.44-24.67-8.86-33.45-19.26-8.78-10.4-13.17-22.39-13.17-35.97,0-16.61,5.65-30.35,16.94-41.23,11.29-10.88,25.58-16.32,42.87-16.32s31.46,5.4,42.83,16.2c11.37,10.8,17.06,24.37,17.06,40.71,0,13.74-4.29,25.81-12.89,36.21-8.59,10.4-19.7,16.95-33.33,19.66l4.22,1.59c13.1,5.04,22.54,7.56,28.32,7.56,3.18,0,6.89-.72,11.13-2.15ZM450.29,53.5c-12.51,0-22.85,4.03-31.01,12.1-8.16,8.07-12.25,18.23-12.25,30.48s4.11,21.88,12.33,29.81c8.22,7.93,18.53,11.9,30.93,11.9s22.56-4.06,30.93-12.18,12.56-18.12,12.56-30.01-4.11-22.21-12.33-30.16-18.61-11.94-31.17-11.94Z"/>
  <path class="cls-1" d="M520.29,39.81h92.88v14.17h-38.76v97.18h-16V53.98h-38.12v-14.17Z"/>
  <path class="cls-1" d="M107.58,302.75v31.12c0,2.5.85,3.74,2.55,3.74s4.48-1.3,8.2-3.9v8.83c-3.29,2.12-5.93,3.57-7.92,4.34-1.99.77-4.07,1.15-6.25,1.15-6.21,0-9.87-2.44-10.98-7.32-6.16,4.78-12.71,7.16-19.66,7.16-5.09,0-9.34-1.68-12.73-5.05-3.4-3.37-5.09-7.6-5.09-12.7,0-4.62,1.66-8.74,4.97-12.38,3.32-3.63,8.02-6.51,14.13-8.64l18.54-6.37v-3.9c0-8.81-4.4-13.21-13.21-13.21-7.91,0-15.6,4.09-23.08,12.26v-15.84c5.62-6.63,13.72-9.95,24.27-9.95,7.91,0,14.25,2.07,19.02,6.21,1.59,1.33,3.02,3.09,4.3,5.29,1.27,2.2,2.08,4.4,2.43,6.61.34,2.2.52,6.38.52,12.54ZM93.33,332.27v-21.73l-9.71,3.74c-4.93,1.96-8.42,3.94-10.47,5.93-2.04,1.99-3.06,4.47-3.06,7.44s.97,5.49,2.91,7.4c1.94,1.91,4.44,2.87,7.52,2.87,4.62,0,8.89-1.88,12.81-5.65Z"/>
  <path class="cls-1" d="M132.81,273.54v-4.38c0-11.78,2.51-20.56,7.52-26.34,5.01-5.78,11.02-8.67,18.03-8.67,3.02,0,6.61.48,10.74,1.43v14.17c-2.34-.85-4.56-1.27-6.69-1.27-5.68,0-9.62,1.51-11.82,4.54-2.2,3.02-3.3,8.41-3.3,16.16v4.38h13.05v13.05h-13.05v60.17h-14.49v-60.17h-10.51v-13.05h10.51Z"/>
  <path class="cls-1" d="M168.15,298.85c0-7.8,2.85-13.97,8.56-18.5,5.7-4.54,13.49-6.8,23.36-6.8h30.16v11.3h-14.8c2.87,2.92,4.85,5.57,5.97,7.96s1.67,5.12,1.67,8.2c0,3.82-1.09,7.57-3.26,11.26-2.18,3.69-4.97,6.51-8.4,8.48-3.42,1.96-9.03,3.53-16.83,4.7-5.47.8-8.2,2.68-8.2,5.65,0,1.7,1.02,3.09,3.06,4.18,2.04,1.09,5.74,2.22,11.1,3.38,8.97,1.96,14.74,3.5,17.31,4.62,2.57,1.11,4.89,2.71,6.96,4.78,3.5,3.5,5.25,7.91,5.25,13.21,0,6.95-3.09,12.5-9.27,16.63-6.18,4.14-14.45,6.21-24.79,6.21s-18.8-2.08-25.03-6.25c-6.24-4.17-9.35-9.75-9.35-16.75,0-9.92,6.13-16.32,18.39-19.18-4.88-3.13-7.32-6.23-7.32-9.31,0-2.33,1.05-4.46,3.14-6.37,2.1-1.91,4.92-3.32,8.48-4.22-10.77-4.78-16.16-12.5-16.16-23.16ZM191.94,350.18c-4.88,0-8.87,1.04-11.98,3.1-3.1,2.07-4.66,4.72-4.66,7.96,0,7.53,6.79,11.3,20.38,11.3,6.42,0,11.39-.94,14.92-2.83,3.53-1.88,5.29-4.55,5.29-8s-2.23-6.17-6.69-8.32c-4.46-2.15-10.21-3.22-17.27-3.22ZM195.37,286.11c-3.93,0-7.27,1.33-10.03,3.98-2.76,2.65-4.14,5.84-4.14,9.55s1.35,6.88,4.06,9.35c2.71,2.47,6.13,3.7,10.27,3.7s7.49-1.26,10.23-3.78c2.73-2.52,4.1-5.66,4.1-9.43s-1.38-7-4.14-9.55c-2.76-2.55-6.21-3.82-10.35-3.82Z"/>
  <path class="cls-1" d="M241.13,235.57h14.49v47.6c6.05-7.38,13.56-11.06,22.52-11.06,4.88,0,9.26,1.22,13.13,3.66,3.87,2.44,6.75,5.81,8.64,10.11,1.88,4.3,2.83,10.69,2.83,19.18v41.71h-14.49v-45.29c0-5.36-1.31-9.67-3.94-12.93-2.63-3.26-6.09-4.9-10.39-4.9-3.18,0-6.18.82-8.99,2.47-2.81,1.65-5.92,4.38-9.31,8.2v52.45h-14.49v-111.19Z"/>
  <path class="cls-1" d="M322.79,273.54h14.49v83.65c0,12.68-4.87,21.65-14.6,26.9l-10.78-10.59c3.34-1.17,6-3.21,7.96-6.13,1.96-2.92,2.94-6.31,2.94-10.19v-83.65ZM329.63,242.74c2.39,0,4.43.83,6.13,2.51,1.7,1.67,2.55,3.67,2.55,6.01s-.81,4.48-2.43,6.13c-1.62,1.64-3.65,2.47-6.09,2.47-2.28,0-4.3-.85-6.05-2.55-1.75-1.7-2.63-3.71-2.63-6.05s.86-4.21,2.59-5.93c1.72-1.72,3.7-2.59,5.93-2.59Z"/>
  <path class="cls-1" d="M374.21,273.54v16.79l.8-1.27c7-11.3,14.01-16.95,21.01-16.95,5.46,0,11.17,2.76,17.11,8.28l-7.64,12.73c-5.04-4.78-9.71-7.16-14.01-7.16-4.67,0-8.72,2.23-12.14,6.69-3.42,4.46-5.13,9.74-5.13,15.84v38.28h-14.56v-73.22h14.56Z"/>
  <path class="cls-1" d="M419.65,341.51v-15.6c4.09,2.87,8.26,5.19,12.54,6.96,4.27,1.78,7.87,2.67,10.79,2.67s5.62-.74,7.8-2.23c2.17-1.48,3.26-3.26,3.26-5.33s-.7-3.89-2.11-5.29c-1.41-1.4-4.44-3.43-9.11-6.09-9.34-5.2-15.45-9.64-18.34-13.33-2.89-3.69-4.34-7.71-4.34-12.06,0-5.62,2.19-10.21,6.57-13.77,4.38-3.55,10.01-5.33,16.91-5.33s14.51,2.02,22.05,6.05v14.33c-8.6-5.2-15.63-7.8-21.09-7.8-2.81,0-5.08.6-6.8,1.79-1.72,1.2-2.59,2.78-2.59,4.74,0,1.7.78,3.32,2.34,4.86,1.56,1.54,4.31,3.4,8.24,5.57l5.17,2.94c12.21,6.9,18.31,14.54,18.31,22.92,0,5.99-2.35,10.91-7.04,14.76-4.7,3.84-10.73,5.77-18.11,5.77-4.35,0-8.23-.46-11.62-1.39-3.4-.93-7.67-2.64-12.81-5.13Z"/>
  <path class="cls-1" d="M475.68,285.16l27.22-26.74v15.12h23.16v13.05h-23.16v35.84c0,8.37,3.47,12.55,10.43,12.55,5.2,0,10.69-1.72,16.47-5.17v13.53c-5.57,3.13-11.65,4.7-18.23,4.7s-12.15-1.94-16.55-5.81c-1.38-1.17-2.52-2.48-3.42-3.94-.9-1.46-1.66-3.37-2.27-5.73-.61-2.36-.92-6.86-.92-13.49v-32.47h-12.73v-1.43Z"/>
  <path class="cls-1" d="M585.18,273.54h16.25l-51.88,110.55h-16.17l24.86-53.05-28.28-57.5h16.51l19.77,41.36,18.94-41.36Z"/>
</svg>