<?xml version="1.0" encoding="UTF-8"?>
<svg id="Layer_2" data-name="Layer 2" xmlns="http://www.w3.org/2000/svg" viewBox="0 0 415.49 190.08">
  <defs>
    <style>
      .cls-1, .cls-2, .cls-3 {
        stroke-width: 0px;
      }

      .cls-1, .cls-4 {
        fill: none;
      }

      .cls-2 {
        fill: #40b8e9;
      }

      .cls-3 {
        fill: #000;
      }

      .cls-4 {
        stroke: #000;
        stroke-miterlimit: 10;
      }
    </style>
  </defs>
  <g id="Layer_2-2" data-name="Layer 2">
    <g>
      <polyline class="cls-4" points="46.94 14.41 46.94 .5 .5 .5 .5 14.41"/>
      <polyline class="cls-4" points="131.89 14.41 131.89 .5 57.02 .5 57.02 14.41"/>
      <polyline class="cls-4" points="197.77 14.41 197.77 .5 156.37 .5 156.37 14.41"/>
      <polyline class="cls-4" points="275.53 14.41 275.53 .5 200.66 .5 200.66 14.41"/>
      <polyline class="cls-4" points="366.82 14.41 366.82 .5 295.33 .5 295.33 14.41"/>
      <g>
        <path class="cls-1" d="M238.45,83.7c-7.92,0-13.32,3.42-16.92,7.02-6.3,6.48-7.56,14.4-7.56,20.52,0,6.48,1.26,15.3,8.46,21.96,4.14,3.78,9.18,6.12,16.02,6.12s12.24-2.16,16.38-6.3c5.04-4.86,8.46-12.78,8.46-21.6s-3.24-16.56-7.92-21.06c-4.14-4.14-10.26-6.66-16.92-6.66Z"/>
        <path class="cls-1" d="M94.82,83.7c-12.78,0-24.48,9.36-24.48,27.54,0,16.02,9,28.08,24.48,28.08s24.84-13.14,24.84-27.9c0-19.26-13.32-27.72-24.84-27.72Z"/>
        <path class="cls-1" d="M331.51,83.7c-10.98,0-19.98,8.28-21.96,19.44h43.92c-2.16-11.7-10.98-19.44-21.96-19.44Z"/>
        <rect class="cls-3" x="26.32" y="136.08" width="20.61" height="12.6"/>
        <rect class="cls-3" x=".5" y="28.62" width="13.32" height="82.89"/>
        <polygon class="cls-2" points="13.82 136.08 13.82 111.51 .5 111.51 .5 148.68 26.32 148.68 26.32 136.08 13.82 136.08"/>
        <path class="cls-3" d="M118.94,84.6c10.16,10.76,12.96,36.7,0,53.64v10.44h12.96v-74.7h-12.96v10.62Z"/>
        <path class="cls-2" d="M118.94,84.6c-3.42-4.5-11.16-12.42-25.56-12.42-19.08,0-36.36,13.32-36.36,39.06s17.46,39.6,36.36,39.6c13.14,0,21.24-7.02,25.56-12.6,12.96-16.94,10.16-42.87,0-53.64ZM94.82,139.32c-15.48,0-24.48-12.06-24.48-28.08,0-18.18,11.7-27.54,24.48-27.54,11.52,0,24.84,8.46,24.84,27.72,0,14.76-9,27.9-24.84,27.9Z"/>
        <path class="cls-3" d="M169.33,82.08v-8.1h-12.96v74.7h12.96v-39.42c0-12.24,2.16-17.28,4.32-20.16,1.98-2.52,5.22-4.68,10.44-4.68,1.98,0,4.68.54,7.56,2.52l6.12-11.7c-3.24-1.62-7.56-3.06-11.52-3.06-10.08,0-15.66,7.92-16.92,9.9Z"/>
        <path class="cls-3" d="M262.57,84.6c-5.94-7.74-14.58-12.42-25.56-12.42-10.08,0-19.26,3.96-25.56,10.08-5.4,5.4-10.8,14.4-10.8,28.98s5.76,24.48,10.8,29.52c5.76,5.76,14.58,10.08,25.56,10.08,13.14,0,21.24-7.02,25.56-12.6v10.8c0,6.3-.36,12.96-4.14,19.08-4.32,7.2-10.62,10.44-19.8,10.44-5.76,0-12.6-1.26-18-7.2-3.24-3.6-5.76-9.18-5.76-15.48h-12.78c0,10.98,4.68,19.08,9.72,24.12s13.86,10.08,26.64,10.08c14.04,0,24.3-6.3,29.88-13.86,7.2-9.72,7.2-21.24,7.2-29.34v-72.9h-12.96v10.62ZM254.83,133.02c-4.14,4.14-9.54,6.3-16.38,6.3s-11.88-2.34-16.02-6.12c-7.2-6.66-8.46-15.48-8.46-21.96,0-6.12,1.26-14.04,7.56-20.52,3.6-3.6,9-7.02,16.92-7.02,6.66,0,12.78,2.52,16.92,6.66,4.68,4.5,7.92,12.24,7.92,21.06s-3.42,16.74-8.46,21.6Z"/>
        <path class="cls-3" d="M359.77,85.86c-4.5-6.48-13.68-13.68-28.26-13.68-22.5,0-36.18,17.28-36.18,39.6,0,27.72,18.9,39.06,36.9,39.06,9.54,0,18-3.06,24.84-9.18,3.78-3.42,7.02-7.92,9.18-12.06l-10.8-5.94c-1.62,3.6-4.32,7.38-7.74,10.26-4.32,3.6-9.18,5.4-15.3,5.4-12.96,0-23.58-9.9-23.76-25.38h58.14c.36-9.9-2.34-21.42-7.02-28.08ZM309.55,103.14c1.98-11.16,10.98-19.44,21.96-19.44s19.8,7.74,21.96,19.44h-43.92Z"/>
      </g>
      <line class="cls-4" x1="194.46" y1="88.65" x2="209.75" y2="61.24"/>
      <line class="cls-4" x1="357.41" y1="116.53" x2="415.49" y2="116.53"/>
      <line class="cls-4" x1="357.41" y1="121.4" x2="412.92" y2="148.23"/>
    </g>
  </g>
</svg>