<?xml version="1.0" encoding="UTF-8"?>
<svg id="Layer_1" data-name="Layer 1" xmlns="http://www.w3.org/2000/svg" viewBox="0 0 650 400">
  <defs>
    <style>
      .cls-1 {
        fill: #000;
        stroke-width: 0px;
      }
    </style>
  </defs>
  <path class="cls-1" d="M128.12,120.52h-46.29l-13.04,30.64h-13.37l50.04-113.93,48.74,113.93h-13.37l-12.71-30.64ZM123.4,109.11l-18.26-43.52-18.58,43.52h36.84Z"/>
  <path class="cls-1" d="M219.08,53.85h-37.49v32.11h36.18v11.41h-36.18v53.79h-12.06V42.44h49.55v11.41Z"/>
  <path class="cls-1" d="M296.34,96.56h45.31v2.61c0,12.06-3.59,25.1-10.43,34.39-3.26,4.4-15.48,19.56-40.42,19.56-32.27,0-56.4-24.61-56.4-56.23s24.29-56.23,56.72-56.23c10.43,0,22.66,2.61,33.25,10.76,4.89,3.75,9.45,8.64,12.55,12.88l-8.96,8.15c-3.1-4.4-6.68-8.31-10.27-11.25-5.22-4.24-13.37-9.13-26.41-9.13-26.24,0-44.5,19.72-44.5,44.99,0,29.67,23.63,44.66,44.17,44.66,14.51,0,27.06-7.33,33.25-18.26,1.96-3.42,4.08-8.64,4.4-15.48h-32.27v-11.41Z"/>
  <path class="cls-1" d="M385.66,42.44v78.24c0,8.8-.16,18.74-6.68,25.59-3.75,4.07-9.29,6.85-17.28,6.85s-14.51-2.44-19.4-7.99l6.68-9.45c3.59,3.91,8.31,6.03,12.39,6.03,3.26,0,6.19-1.14,8.15-3.1,4.08-4.07,4.08-10.92,4.08-17.6V42.44h12.06Z"/>
  <path class="cls-1" d="M497.15,143.17c-4.56,3.1-15.48,9.94-32.76,9.94-31.29,0-56.56-23.96-56.56-56.23s25.26-56.23,56.56-56.23,56.56,23.8,56.56,56.23c0,19.89-8.96,32.27-15.32,38.96l15.97,16.46h-15.65l-8.8-9.13ZM496.99,127.04c4.08-4.4,11.57-14.18,11.57-30.15,0-24.94-19.89-44.82-44.17-44.82s-44.17,19.89-44.17,44.82,19.72,44.82,44.17,44.82c6.85,0,15.65-1.63,24.12-7.17l-26.24-27.06h15.65l19.07,19.56Z"/>
  <path class="cls-1" d="M569.85,53.85v97.31h-12.06V53.85h-26.41v-11.41h64.87v11.41h-26.41Z"/>
  <path class="cls-1" d="M119.41,279.12h11.74v67.64h-11.74v-9.45c-3.91,5.05-11.25,11.41-23.15,11.41-17.11,0-32.92-12.06-32.92-35.86s15.65-35.37,32.92-35.37c13.04,0,20.05,7.17,23.15,11.25v-9.62ZM75.4,312.86c0,14.51,8.15,25.43,22.17,25.43s22.49-11.9,22.49-25.26c0-17.44-12.06-25.1-22.49-25.1-11.57,0-22.17,8.48-22.17,24.94Z"/>
  <path class="cls-1" d="M165.37,289.88v56.88h-11.74v-56.88h-6.52v-10.76h6.52v-29.5c0-6.19.49-14.02,6.52-19.07,3.26-2.77,8.15-4.4,13.53-4.4,4.24,0,7.01.98,8.31,1.47v11.41c-2.44-.98-5.22-1.47-7.66-1.47-2.61,0-5.7.65-7.5,3.59-1.47,2.44-1.47,6.19-1.47,9.78v28.2h16.63v10.76h-16.63Z"/>
  <path class="cls-1" d="M244.26,279.12h11.74v66.01c0,7.33,0,17.77-6.52,26.57-5.05,6.85-14.34,12.55-27.06,12.55-11.57,0-19.56-4.56-24.12-9.13-4.56-4.56-8.8-11.9-8.8-21.84h11.57c0,5.71,2.28,10.76,5.22,14.02,4.89,5.38,11.08,6.52,16.3,6.52,8.31,0,14.02-2.93,17.93-9.45,3.42-5.54,3.75-11.57,3.75-17.28v-9.78c-3.91,5.05-11.25,11.41-23.15,11.41-9.94,0-17.93-3.91-23.15-9.13-4.56-4.56-9.78-13.04-9.78-26.73s4.89-21.35,9.78-26.24c5.7-5.54,14.02-9.13,23.15-9.13,9.94,0,17.77,4.24,23.15,11.25v-9.62ZM207.1,294.28c-5.7,5.87-6.85,13.04-6.85,18.58,0,5.87,1.14,13.85,7.66,19.88,3.75,3.42,8.31,5.54,14.51,5.54s11.08-1.96,14.83-5.71c4.56-4.4,7.66-11.57,7.66-19.56s-2.93-15-7.17-19.07c-3.75-3.75-9.29-6.03-15.32-6.03-7.17,0-12.06,3.1-15.32,6.36Z"/>
  <path class="cls-1" d="M278.17,227.94h11.74v59c2.12-2.77,8.15-9.45,19.4-9.45,7.99,0,15.32,3.26,19.4,9.29,3.42,5.05,3.91,10.6,3.91,18.09v41.89h-11.74v-41.56c0-4.08-.33-8.8-3.1-12.39-2.28-2.93-5.87-4.89-11.08-4.89-4.07,0-8.48,1.14-11.9,5.22-4.56,5.38-4.89,13.37-4.89,18.26v35.37h-11.74v-118.82Z"/>
  <path class="cls-1" d="M360.64,245.21c4.56,0,8.31,3.75,8.31,8.31s-3.75,8.31-8.31,8.31-8.31-3.75-8.31-8.31,3.75-8.31,8.31-8.31ZM366.51,279.12v105.13h-11.74v-105.13h11.74Z"/>
  <path class="cls-1" d="M388.68,279.12h11.74v7.33c1.14-1.79,6.19-8.96,15.32-8.96,3.59,0,7.5,1.3,10.43,2.77l-5.54,10.59c-2.61-1.79-5.05-2.28-6.85-2.28-4.73,0-7.66,1.96-9.45,4.24-1.96,2.61-3.91,7.17-3.91,18.26v35.7h-11.74v-67.64Z"/>
  <path class="cls-1" d="M463,294.76c-1.63-3.91-5.05-6.85-9.45-6.85s-8.15,2.44-8.15,7.66c0,4.89,3.26,6.36,10.92,9.62,9.78,4.08,14.34,7.17,16.95,10.43,2.93,3.59,3.59,7.17,3.59,10.92,0,14.18-10.27,22.17-23.31,22.17-2.77,0-17.93-.33-23.63-17.28l10.11-4.24c1.3,3.59,5.22,11.08,13.69,11.08,7.66,0,11.08-5.71,11.08-10.76,0-6.36-4.56-8.48-10.92-11.25-8.15-3.59-13.37-6.19-16.46-9.94-2.61-3.26-3.1-6.52-3.1-9.94,0-11.9,8.31-18.91,19.72-18.91,3.59,0,13.2.65,18.58,12.22l-9.62,5.05Z"/>
  <path class="cls-1" d="M504.57,289.88v56.88h-11.74v-56.88h-7.17v-10.76h7.17v-24.45h11.74v24.45h11.74v10.76h-11.74Z"/>
  <path class="cls-1" d="M553.63,340.4l-31.13-61.29h13.37l23.96,48.41,22-48.41h13.04l-49.71,105.13h-13.04l21.52-43.85Z"/>
</svg>