<?xml version="1.0" encoding="UTF-8"?>
<svg id="Layer_2" data-name="Layer 2" xmlns="http://www.w3.org/2000/svg" viewBox="0 0 650 255.17">
  <defs>
    <style>
      .cls-1, .cls-2, .cls-3 {
        stroke-width: 0px;
      }

      .cls-1, .cls-4 {
        fill: none;
      }

      .cls-2 {
        fill: #40b8e9;
      }

      .cls-3 {
        fill: #000;
      }

      .cls-4 {
        stroke: #000;
        stroke-miterlimit: 10;
      }
    </style>
  </defs>
  <line class="cls-4" x1="531.7" y1="108.9" x2="572.06" y2="108.9"/>
  <line class="cls-4" x1="530.97" y1="136.81" x2="572.06" y2="148.42"/>
  <line class="cls-4" x1="404.32" y1="40.57" x2="416.62" y2="240.77"/>
  <g>
    <path class="cls-1" d="M245.2,136.12c0,3.69.97,6.67,2.9,8.92,1.93,2.26,4.45,3.38,7.56,3.38,2.75,0,5.95-.91,9.58-2.72,3.63-1.82,7.7-4.54,12.22-8.17v-28.48l-9.58,3.87c-15.12,6.15-22.68,13.89-22.68,23.2Z"/>
    <path class="cls-1" d="M410.25,82.16c-5.39,0-9.43,2.02-12.13,6.06-2.7,4.04-4.04,10.14-4.04,18.28,0,7.56,1.55,13.1,4.66,16.61,3.11,3.52,7.06,5.27,11.87,5.27,4.45,0,8.28-1.74,11.47-5.23,3.19-3.49,4.79-9.54,4.79-18.15s-1.7-14.65-5.1-17.93c-3.4-3.28-7.24-4.92-11.51-4.92Z"/>
    <path class="cls-1" d="M513.09,98.24c0-5.16-1.51-9.15-4.53-12-3.02-2.84-6.72-4.26-11.12-4.26-10.67,0-17.02,6.62-19.07,19.86h34.45c.18-1.35.26-2.55.26-3.6Z"/>
    <path class="cls-2" d="M160.42,147.15c-2.08-1.2-3.35-2.89-3.82-5.05-.47-2.17-.7-7.56-.7-16.17v-12.53h-17.14v8.57c0,9.96-.28,16.3-.83,19.03-.56,2.72-1.82,4.73-3.78,6.02-1.96,1.29-5.49,1.93-10.59,1.93h-3.52v4.04h48.07v-4.23c-3.68-.26-6.26-.79-7.69-1.62Z"/>
    <path class="cls-3" d="M155.9,63.52c0-9.9.31-16.17.92-18.81s1.83-4.44,3.65-5.41c1.82-.97,5.65-1.45,11.51-1.45h5.27v-4.04h-57.22v4.04h2.64c6.03,0,9.95.53,11.73,1.58,1.79,1.05,2.96,2.96,3.52,5.71.56,2.75.83,8.88.83,18.37v49.87h17.14v-49.87Z"/>
    <path class="cls-3" d="M209.29,138.58c-3.19,4.34-6.56,7.15-10.11,8.44-3.55,1.29-8.98,1.93-16.3,1.93h-9.05c-2.15,0-4.04-.07-5.71-.18v4.23h53.18l.88-35.07h-4.13c-2.64,9.43-5.55,16.32-8.75,20.65Z"/>
    <path class="cls-3" d="M295.73,148.42c-2.34,0-3.87-.97-4.57-2.9s-1.05-6.3-1.05-13.1v-29.09c0-6.15-.66-10.72-1.98-13.71s-4.03-5.65-8.13-8c-4.1-2.34-9.87-3.52-17.31-3.52-10.02,0-17.4,1.92-22.15,5.76-4.75,3.84-7.12,7.43-7.12,10.77s1.79,5.1,5.36,5.1c3.98,0,6.44-2.99,7.38-8.96,1-5.86,5.89-8.79,14.68-8.79,4.39,0,7.94.88,10.63,2.64,2.69,1.76,4.36,3.75,5.01,5.98.64,2.23.97,5.83.97,10.81v3.52l-13.62,5.54c-10.37,4.28-18.5,8.67-24.39,13.18-5.89,4.51-8.83,9.79-8.83,15.82,0,4.63,1.76,8.35,5.27,11.16s7.7,4.22,12.57,4.22c3.81,0,8.13-1.05,12.96-3.16s10.18-5.24,16.04-9.4c.7,4.16,2.21,7.29,4.53,9.4,2.31,2.11,5.46,3.16,9.45,3.16,9.32,0,14.24-5.01,14.77-15.03h-3.25c-.94,5.74-3.34,8.61-7.21,8.61ZM277.45,137.53c-4.51,3.63-8.58,6.36-12.22,8.17-3.63,1.82-6.83,2.72-9.58,2.72-3.11,0-5.62-1.13-7.56-3.38-1.93-2.25-2.9-5.23-2.9-8.92,0-9.32,7.56-17.05,22.68-23.2l9.58-3.87v28.48Z"/>
    <path class="cls-2" d="M325.62,143.42c-.29,1.76-1.19,3.12-2.68,4.09s-4,1.45-7.51,1.45h-1.85v4.04h38.23v-4.04h-2.46c-3.75,0-6.36-.53-7.82-1.58-1.46-1.05-2.3-2.58-2.5-4.57-.16-1.55-.26-4.84-.29-9.85h-12.69c-.05,5.57-.19,9.06-.42,10.46Z"/>
    <path class="cls-3" d="M360.86,78.11c-4.28,0-8.66,1.76-13.14,5.27s-7.72,7.88-9.71,13.1c-.18-7.62-1.11-13.74-2.81-18.37-8.91,2.81-16.11,4.54-21.62,5.19v3.96h1.85c3.75,0,6.36.54,7.82,1.63,1.46,1.08,2.3,2.61,2.5,4.57.2,1.96.31,6.81.31,14.55v20.3c0,1.69,0,3.24-.02,4.66h12.69c0-1.42-.02-2.96-.02-4.66v-12.83c0-6.45.5-11.51,1.49-15.21,1-3.69,3.25-7.25,6.77-10.68s6.53-5.14,9.05-5.14c2.11,0,3.69,1.46,4.75,4.39,1.52,4.34,3.75,6.5,6.68,6.5,1.64,0,3.03-.62,4.17-1.85s1.71-2.69,1.71-4.39c0-2.52-1.11-4.98-3.34-7.38-2.23-2.4-5.27-3.6-9.14-3.6Z"/>
    <path class="cls-2" d="M448.75,78.9c-4.26,0-8.48,1.97-12.67,5.91l1.62,3c2-1.83,3.87-2.75,5.6-2.75,1.41,0,2.75,1.11,4.04,3.34,1.41,2.4,3.08,3.6,5.01,3.6,3.52,0,5.27-1.93,5.27-5.8,0-1.82-.78-3.49-2.33-5.01-1.55-1.52-3.74-2.29-6.55-2.29Z"/>
    <path class="cls-3" d="M433.63,87.34c-5.92-6.15-13.77-9.23-23.55-9.23-7.91,0-14.75,2.56-20.52,7.69-5.77,5.13-8.66,11.35-8.66,18.68,0,5.22,1.41,9.93,4.22,14.15s7,7.97,12.57,11.25c-10.72,1.99-16.08,6.83-16.08,14.5,0,3.99,1.88,7.24,5.62,9.76,3.75,2.58,11.92,4.13,24.52,4.66,10.96.47,18.57,1.88,22.85,4.22,4.28,2.4,6.42,6.53,6.42,12.39,0,5.33-2.39,9.71-7.16,13.14-4.78,3.43-11.44,5.14-20,5.14-9.61,0-16.83-1.68-21.67-5.05-4.83-3.37-7.25-7.63-7.25-12.79,0-4.45,1.82-8.67,5.45-12.66-.76-.29-1.61-.44-2.55-.44-3.46,0-6.12,1.14-8,3.43-1.88,2.29-2.81,5.21-2.81,8.79,0,6.45,3.28,11.78,9.84,16,6.56,4.22,15.29,6.33,26.19,6.33,11.89,0,21.01-2.37,27.33-7.12s9.49-10.99,9.49-18.72c0-5.51-1.55-10.25-4.66-14.24-3.11-3.99-7.27-6.64-12.48-7.95-5.22-1.32-12.66-2.21-22.32-2.68-8.85-.47-14.65-1.17-17.4-2.11-2.81-.88-4.22-2.4-4.22-4.57,0-4.63,6.21-7.15,18.63-7.56,11.95-.41,20.45-3.34,25.49-8.79,5.04-5.39,7.56-11.6,7.56-18.63,0-5.39-1.52-10.49-4.57-15.29.61-.69,1.2-1.29,1.79-1.82l-1.62-3c-.82.77-1.64,1.61-2.45,2.53ZM422.08,123.16c-3.19,3.49-7.02,5.23-11.47,5.23-4.8,0-8.76-1.76-11.87-5.27-3.11-3.52-4.66-9.05-4.66-16.61,0-8.14,1.35-14.24,4.04-18.28,2.69-4.04,6.74-6.06,12.13-6.06,4.28,0,8.12,1.64,11.51,4.92,3.4,3.28,5.1,9.26,5.1,17.93s-1.6,14.66-4.79,18.15Z"/>
    <path class="cls-3" d="M501.31,151.15c-7.85,0-13.75-3.18-17.71-9.54-3.96-6.36-5.93-15.86-5.93-28.52,0-1.7.12-4.28.35-7.73h50.19c-.29-6.68-3.02-12.89-8.17-18.63-5.16-5.74-12.45-8.61-21.88-8.61-10.02,0-18.37,3.77-25.05,11.29-6.68,7.53-10.02,16.98-10.02,28.34,0,8.03,1.73,14.85,5.19,20.48,3.46,5.62,7.9,9.98,13.32,13.05,5.42,3.08,11.18,4.61,17.27,4.61,6.56,0,12.63-1.68,18.19-5.05,5.57-3.37,9.29-8.04,11.16-14.02h-4.22c-4.45,9.55-12.01,14.33-22.68,14.33ZM497.44,81.98c4.39,0,8.1,1.42,11.12,4.26,3.02,2.84,4.53,6.84,4.53,12,0,1.05-.09,2.26-.26,3.6h-34.45c2.05-13.24,8.41-19.86,19.07-19.86Z"/>
  </g>
  <path class="cls-4" d="M500.42,65.18v63.56s-1.62,15.3,38.62,55.54"/>
</svg>