<?xml version="1.0" encoding="UTF-8"?>
<svg id="Layer_2" data-name="Layer 2" xmlns="http://www.w3.org/2000/svg" viewBox="0 0 439.22 188.49">
  <defs>
    <style>
      .cls-1, .cls-2, .cls-3 {
        stroke-width: 0px;
      }

      .cls-1, .cls-4 {
        fill: none;
      }

      .cls-2 {
        fill: #40b8e9;
      }

      .cls-3 {
        fill: #000;
      }

      .cls-4 {
        stroke: #000;
        stroke-miterlimit: 10;
      }
    </style>
  </defs>
  <g id="Layer_2-2" data-name="Layer 2">
    <g>
      <g>
        <path class="cls-1" d="M418.02,77.66c-4.3-7.62-11.48-11.43-21.53-11.43-7.2,0-13.25,2.62-18.13,7.87-4.88,5.24-7.47,11.91-7.76,20h51.86c-.64-6.86-2.12-12.33-4.45-16.44Z"/>
        <path class="cls-1" d="M294.54,66.85c-11.08,0-18.66,5.22-22.74,15.64-2.16,5.57-3.24,12.86-3.24,21.88,0,10.61,2.14,18.68,6.43,24.21,4.29,5.54,10.04,8.31,17.27,8.31,11.31,0,19.26-5.13,23.87-15.38,2.56-5.8,3.85-12.57,3.85-20.3,0-11.66-2.39-20.3-7.17-25.93-4.78-5.62-10.87-8.44-18.28-8.44Z"/>
        <polygon class="cls-3" points="17.99 19.57 .5 19.57 .5 148.68 82.77 148.68 82.77 133.3 17.99 133.3 17.99 19.57"/>
        <path class="cls-2" d="M149.4,103.92c3.04-.82,5.52-1.85,7.46-3.09v8.62h15.82v-31.18c0-8.91-3.42-15.47-10.27-19.69-1.99-1.22-4.17-2.23-6.51-3.1l-8.13,11.98c1.4.5,2.67,1.1,3.78,1.81,3.83,2.44,5.75,6.37,5.75,11.78,0,2.65-.35,4.68-1.05,6.09-1.23,2.57-3.66,4.1-7.29,4.56l-9.65,1.21,2.03,12.64c2.65-.36,5.34-.9,8.08-1.64Z"/>
        <path class="cls-3" d="M135.46,52.26c-9.54,0-17.92,2.28-25.15,6.83s-10.99,12.65-11.28,24.28h14.77c.58-4.89,1.84-8.57,3.77-11.04,3.45-4.47,9.3-6.71,17.54-6.71,5.06,0,9.27.63,12.66,1.85l8.13-11.98c-5.77-2.14-12.57-3.23-20.44-3.23Z"/>
        <path class="cls-3" d="M177.95,137.95c-2.17,0-3.59-.5-4.26-1.49-.67-.99-1.01-2.31-1.01-3.95v-23.05h-15.82v4.11c0,9.71-4.39,16.7-13.18,20.97-5.22,2.57-10.61,3.86-16.17,3.86-4.57,0-8.53-1.31-11.87-3.95-3.34-2.63-5.01-6.23-5.01-10.79,0-6.02,2.45-10.41,7.34-13.15,2.89-1.64,7.2-2.84,12.93-3.6l9.56-1.23c.29-.03.58-.08.87-.12l-2.03-12.64-15.57,1.95c-8.85,1.11-16,4.07-21.45,8.87-5.45,4.8-8.17,11.56-8.17,20.28,0,7.96,2.77,14.59,8.31,19.88,5.54,5.29,12.67,7.94,21.4,7.94,7.26,0,13.92-1.55,19.95-4.66,6.03-3.1,10.66-6.77,13.89-10.98.53,3.75,1.44,6.65,2.72,8.7,2.46,3.87,6.42,5.8,11.87,5.8,2.23,0,3.98-.09,5.27-.26,1.29-.18,3.16-.62,5.62-1.32v-11.69c-1,.18-1.93.31-2.81.39s-1.67.13-2.37.13Z"/>
        <path class="cls-3" d="M239.74,52.44c-6.27,0-11.81,2.27-16.61,6.81-4.8,4.54-7.82,8.39-9.05,11.56v-16.26h-15.03v94.13h15.82v-54.14c0-6.68,2.14-12.58,6.42-17.71,4.28-5.13,10.4-7.69,18.37-7.69.94,0,1.8.03,2.59.09.79.06,1.66.18,2.59.35v-16.7c-1.7-.18-2.9-.29-3.6-.35-.7-.06-1.2-.09-1.49-.09Z"/>
        <path class="cls-2" d="M319.98,67.29c-3.09-3.92-6.13-6.91-9.11-8.96-5.49-3.63-11.91-5.45-19.26-5.45-10.86,0-20.12,4.42-27.8,13.27-7.67,8.85-11.51,21.15-11.51,36.91,0,16.7,3.81,28.67,11.42,35.9,7.62,7.24,16.5,10.85,26.66,10.85,7.29,0,13.16-1.17,17.6-3.52,4.44-2.34,8.23-5.92,11.38-10.72.18,12.95-.84,21.94-3.06,26.98-3.73,8.55-11.62,12.83-23.69,12.83-7.63,0-13.23-1.76-16.78-5.27-2.27-2.29-3.79-5.54-4.54-9.76h-16.08c.82,9.67,4.67,16.77,11.57,21.31,6.89,4.54,15.39,6.81,25.49,6.81,18.16,0,30.51-6.39,37.05-19.16,3.5-6.91,5.26-16.35,5.26-28.3V55.43h-14.59v11.87ZM316.13,121.52c-4.61,10.25-12.56,15.38-23.87,15.38-7.23,0-12.99-2.77-17.27-8.31-4.28-5.54-6.43-13.61-6.43-24.21,0-9.02,1.08-16.32,3.24-21.88,4.08-10.43,11.66-15.64,22.74-15.64,7.4,0,13.5,2.81,18.28,8.44,4.78,5.62,7.17,14.27,7.17,25.93,0,7.73-1.28,14.5-3.85,20.3Z"/>
        <path class="cls-3" d="M416.04,130.18c-4.88,5.47-11.42,8.21-19.62,8.21-8.78,0-15.26-2.89-19.45-8.68-4.19-5.79-6.42-13.47-6.72-23.05h68.47c0-9.49-.47-16.41-1.4-20.74-1.05-6.33-3.14-11.87-6.29-16.61-3.26-4.98-8.01-9.04-14.24-12.17-6.23-3.13-12.67-4.7-19.3-4.7-13.16,0-23.82,4.72-31.97,14.15-8.15,9.43-12.23,21.71-12.23,36.83s4.05,27.29,12.14,35.82c8.09,8.53,17.96,12.79,29.61,12.79,4.77,0,9.04-.47,12.82-1.41,7.04-1.64,12.94-4.8,17.71-9.49,2.85-2.69,5.43-6.17,7.75-10.42,2.31-4.25,3.68-8.1,4.09-11.56h-15.56c-1.14,4.18-3.08,7.86-5.81,11.04ZM378.36,74.1c4.88-5.24,10.92-7.87,18.13-7.87,10.05,0,17.23,3.81,21.53,11.43,2.32,4.1,3.81,9.58,4.45,16.44h-51.86c.29-8.09,2.88-14.75,7.76-20Z"/>
      </g>
      <line class="cls-4" x1="114.32" y1="85.76" x2="74.26" y2="85.76"/>
      <polyline class="cls-4" points="82.77 14.41 82.77 .5 .5 .5 .5 14.41"/>
      <polyline class="cls-4" points="179.75 14.41 179.75 .5 97.49 .5 97.49 14.41"/>
      <polyline class="cls-4" points="244.84 14.41 244.84 .5 199.04 .5 199.04 14.41"/>
      <polyline class="cls-4" points="334.57 14.41 334.57 .5 252.31 .5 252.31 14.41"/>
      <polyline class="cls-4" points="438.72 14.41 438.72 .5 353.29 .5 353.29 14.41"/>
    </g>
  </g>
</svg>